<?xml version="1.0" standalone="no"?>
<!DOCTYPE svg PUBLIC "-//W3C//DTD SVG 1.1//EN" "http://www.w3.org/Graphics/SVG/1.1/DTD/svg11.dtd" >
<svg xmlns="http://www.w3.org/2000/svg">
<metadata></metadata>
<defs>
<font id="chunkstyleregular" horiz-adv-x="1562" >
<font-face units-per-em="2048" ascent="1638" descent="-410" />
<missing-glyph horiz-adv-x="409" />
<glyph horiz-adv-x="2048" />
<glyph horiz-adv-x="2048" />
<glyph unicode="&#xd;" horiz-adv-x="409" />
<glyph unicode=" "  horiz-adv-x="409" />
<glyph unicode="&#x09;" horiz-adv-x="409" />
<glyph unicode="&#xa0;" horiz-adv-x="409" />
<glyph unicode="!" horiz-adv-x="675" d="M53 211q0 123 67.5 193.5t190.5 70.5q115 0 181.5 -62t66.5 -175v-2q0 -135 -62.5 -192.5t-197.5 -57.5q-111 0 -178.5 58t-67.5 167zM76 1073q0 82 4 230q4 164 4 231q0 125 201 125q139 0 191 -22.5t69 -86.5q4 -12 24 -172q11 -78 11 -129q0 -37 -29 -295 q-2 -25 -23 -133q-14 -86 -14 -135q0 -12 3 -36.5t3 -39.5q0 -55 -55 -55l-127 2q-37 0 -107 10q-84 10 -98 21q-57 41 -57 485z" />
<glyph unicode="&#x22;" horiz-adv-x="1040" d="M37 1419q0 92 75.5 168t168.5 76q98 0 160.5 -71t62.5 -169q0 -125 -105 -188q-18 -10 -59 -127q-37 -109 -66 -109q-53 0 -81 115q-31 127 -56 137q-100 47 -100 168zM575 1430q0 96 65 164.5t159 68.5q92 0 167.5 -77t75.5 -167q0 -125 -84 -176q-27 -16 -69 -131 q-41 -106 -68 -106q-33 0 -63 106q-31 117 -58 131q-72 39 -94 68q-31 39 -31 119z" />
<glyph unicode="#" horiz-adv-x="1630" d="M49 997q0 20 2 82t2 82q0 78 174 78q49 0 143.5 -5t141.5 -5q35 0 37 10q10 55 71.5 196.5t94.5 178.5q20 23 57 22q139 0 135 0q104 -4 105 -34q0 -27 -31 -84q-39 -74 -43 -88q-27 -59 -82 -199l55 -6q125 0 133 22q35 94 70 187q39 102 88 178q16 25 205 24 q106 0 106 -32q0 -18 -38 -95q-43 -86 -50 -104q-12 -39 -82 -182q47 4 162 8q51 0 66 -80q6 -35 6 -127q0 -49 -16.5 -69.5t-65.5 -20.5q-27 0 -58.5 2t-56.5 2q-14 0 -45.5 4t-48.5 4q-20 0 -35 -8q-4 -2 -32 -111q-4 -12 -25 -51q-16 -31 -14 -51l2 -12q2 -12 61 -13 q47 0 118 2.5t116 2.5q53 0 71 -13q23 -18 23 -69q0 -121 -8 -144q-18 -66 -107 -65q-39 0 -100.5 5t-104.5 5q-23 0 -67.5 -3t-65.5 -3q-35 0 -65 -66q-23 -51 -45 -102q-23 -76 -45 -150q-31 -102 -89 -102h-102q-76 2 -104 2q-61 0 -62 39q0 55 66 182q47 92 94 185 q-68 14 -160 16q-20 0 -24 -19q-16 -51 -78 -200q-66 -156 -80 -176q-23 -31 -215 -25q-80 2 -80 35q0 51 59 192q51 123 91 185l-62 -6q-14 0 -34.5 3t-37.5 3q-72 0 -88 39q-8 20 -6 125q0 51 10 88q12 47 123 47q31 0 82 -4t64 -4q18 0 26 4q16 6 54.5 93t38.5 107 q0 33 -48 33q-25 0 -54.5 -2t-55.5 -2h-129q-98 4 -105.5 24.5t-7.5 34.5zM674 705q129 -10 160 -11q51 0 110 244h2q-47 4 -149 4q-25 0 -33 -7t-47 -110q-35 -92 -43 -120z" />
<glyph unicode="$" horiz-adv-x="1075" d="M37 303l2 313q0 98 37 99q166 0 184 -2q35 -4 59 -58q33 -72 54 -94q49 -49 149 -49q84 0 84 66q0 59 -117 116q-164 82 -219 135q-119 117 -118 314q0 203 192 303q8 4 8 97t62 93q14 0 57 3t68 3q92 0 112 -43q4 -10 2 -92q-2 -66 52 -65q4 0 28 24q4 4 17 4h145 q43 0 51 -137v-174q0 -66 -2 -80q-8 -49 -47 -49q-121 0 -145.5 10.5t-40.5 49.5q-18 47 -35 61q-33 29 -101 25q-25 -2 -42 -27t-17 -51q0 -63 127 -125q188 -90 240 -131q127 -105 127 -271q0 -240 -226 -342q-29 -4 -73 -22q-8 -8 -11 -41q0 -23 3.5 -66t3.5 -49 q0 -41 -60 -49q-12 -2 -92 -2q-127 0 -156 10q-35 12 -34 62q0 10 3 60t3 89q0 43 -52 43q-18 0 -41.5 -30.5t-56.5 -30.5q-18 0 -55 3t-55 3q-74 0 -74 94z" />
<glyph unicode="%" horiz-adv-x="1415" d="M27 1174q0 164 77 264q86 111 246 110q143 0 235.5 -94t90.5 -237v2q0 -141 -101.5 -250t-240.5 -109q-127 0 -217 92t-90 222zM31 74q0 39 65 114q133 154 322 439q219 330 309 446q59 76 162 244q139 227 155 250q33 49 66 60t88 11q123 0 150 -4q102 -12 102 -65 q0 -10 -14 -27q-18 -23 -21 -26q-100 -197 -418 -603q-70 -90 -193.5 -270t-201.5 -276q-90 -150 -225 -340q-29 -27 -191 -27q-156 0 -155 74zM225 1212q-2 -145 121 -145q47 0 81 40t34 89q0 61 -31 109.5t-90 48.5q-113 0 -115 -142zM760 348q0 143 101.5 247.5 t246.5 104.5q129 0 213 -87t84 -216q0 -164 -95.5 -267t-260.5 -103q-131 0 -210 94t-79 227zM954 358q0 -57 39 -99t97 -42q51 0 83.5 47.5t32.5 102.5q0 49 -33.5 92t-82.5 43q-53 0 -94.5 -44t-41.5 -100z" />
<glyph unicode="&#x26;" horiz-adv-x="1710" d="M2 578q2 215 137 383q86 68 172 141q0 2 -19.5 27.5t-33.5 82t-14 107.5q0 172 127 260q111 76 288 76q78 0 195 -82q12 0 12 39q0 8 7.5 18t39.5 10q14 0 43 -3t43 -3q16 0 45 3t41 3q55 0 56 -73q0 -55 -6.5 -168t-6.5 -170q0 -39 -47 -37q-180 4 -186 4q-47 0 -86 75 t-107 75q-39 0 -62.5 -30t-23.5 -71q0 -61 43 -86q6 -2 82 -24q43 -12 43 -45q0 -16 -32.5 -106.5t-42 -100t-54.5 -9.5q-80 0 -130 -70.5t-50 -154.5q0 -115 82 -192.5t197 -77.5q82 0 156.5 50t74.5 130q0 41 -29.5 65.5t-70.5 24.5q-47 0 -90 -28.5t-43 -73.5 q0 -10 5 -28.5t5 -26.5q0 -6 -14 -7q-68 0 -109 54q-35 47 -35 116q0 92 94 179q72 66 189 81q49 8 209 11q49 0 125 18q98 25 98 57q0 2 -6 7q-27 14 -55.5 28.5t-43.5 36.5q-27 39 -26 90q-2 82 60.5 140.5t146.5 58.5q121 0 188.5 -80t67.5 -201h2q0 -180 -125 -293 q-6 -6 -84 -55q-66 -43 -64 -53q45 -88 45 -141q0 -39 -24 -129q-55 -205 -250 -330q-180 -119 -401 -119q-172 0 -279 25q-145 33 -252 120q-219 182 -217 472z" />
<glyph unicode="'" horiz-adv-x="536" d="M51 1434q0 96 72 160.5t170 64.5q113 0 178 -82q61 -73 61 -188q0 -119 -79 -259q-90 -156 -201 -155q-78 0 -78 51q0 14 27 31q37 23 51 41q27 35 27 96q0 27 -27 27q-88 0 -144.5 61t-56.5 152z" />
<glyph unicode="(" horiz-adv-x="624" d="M41 602q0 276 115 565q45 115 155 283q139 209 215 211q35 0 35 -49v-2q0 -51 -74 -215q-84 -186 -96 -238q-86 -348 -86 -598q0 -195 49 -444q12 -59 90 -244q70 -166 70 -219q0 -47 -35 -47q-72 0 -196 196q-100 158 -140 265q-102 283 -102 536z" />
<glyph unicode=")" horiz-adv-x="507" d="M16 1610q0 51 35 51q74 2 213 -209q109 -166 156 -283q117 -293 117 -565q0 -256 -103 -538q-39 -106 -139 -265q-125 -197 -197 -196q-35 0 -35 49q0 53 70 219q78 184 90 244q49 248 49 442q0 250 -86 598q-12 51 -96 238q-74 164 -74 215z" />
<glyph unicode="*" horiz-adv-x="626" d="M25 1466q0 53 49 52q20 0 60 -14.5t61 -14.5q8 0 15 79t60 79q47 0 60 -66q12 -78 14 -78h4q4 0 38 20.5t52 20.5q68 0 68 -61q0 -29 -39 -63t-39 -40q0 -4 50 -33.5t50 -72.5q0 -20 -14 -40t-35 -20q-16 0 -52 16.5t-54 16.5q-8 0 -11 -16q-2 -10 0 -33q2 -25 3 -24 q0 -82 -62 -82q-55 0 -63 65q-8 76 -11 78h-2q-8 0 -52 -29.5t-73 -29.5q-57 0 -57 59q0 33 39 75t39 46t-49 40t-49 70z" />
<glyph unicode="+" horiz-adv-x="1232" d="M31 604v164q0 68 119 68q20 0 55 -2.5t45 -2.5q23 0 67.5 3.5t68.5 3.5t24 26q0 43 -9.5 146.5t-9.5 142.5q0 72 135 72q20 0 61.5 -6.5t61.5 -6.5q14 0 40 3.5t38 3.5q53 0 53 -66q0 -20 -4 -77.5t-4 -76.5q0 -106 4 -125q8 -27 45 -26q8 0 42 2t61 2q10 0 46 2t56 2 q141 0 141 -78v-2q0 -266 -14 -270q-25 -8 -121 -10q-23 0 -81 -6.5t-85 -6.5q-6 0 -25.5 3t-31.5 1q-31 0 -31 -26q0 -14 4 -46t4 -48q0 -10 -3 -42t-3 -44q0 -16 3 -50t3 -51q0 -78 -73 -78q-201 0 -246 19q-51 23 -51 123q0 20 3 88.5t3 118.5q0 49 -64 49 q-43 0 -136 -8.5t-134 -8.5q-47 0 -57 121z" />
<glyph unicode="," horiz-adv-x="714" d="M72 248q0 106 80.5 179t187.5 73q127 0 196.5 -88t69.5 -217v2q0 -131 -90 -285q-100 -172 -221 -174q-86 0 -86 51q0 23 31 43q43 27 55 43q31 37 31 105q0 33 -35 32q-96 0 -157.5 70t-61.5 166z" />
<glyph unicode="-" horiz-adv-x="1019" d="M51 795q0 111 144 110q29 0 81 -4t72 -4q33 0 139.5 4t139.5 4q23 0 67.5 -4t67.5 -4q10 0 30.5 4t30.5 4q64 1 64 -114q0 -12 -3 -39t-3 -41q0 -8 3 -30t3 -32q0 -43 -38 -80t-75 -37l-643 -2q-57 0 -70 64q-4 18 -4 108q0 16 -3 47t-3 46z" />
<glyph unicode="." horiz-adv-x="681" d="M115 244q0 94 65.5 164.5t159.5 70.5q100 0 167.5 -67.5t67.5 -165.5q0 -111 -62 -178.5t-171 -67.5q-96 0 -161.5 72.5t-65.5 171.5z" />
<glyph unicode="/" horiz-adv-x="1093" d="M2 -123q0 39 25 90q20 43 43 86q119 236 342 709q29 82 98 242q16 29 45 88q14 47 47 145q27 76 84 199q68 143 102 180q25 27 70 29q193 3 193 -54v2q0 -27 -27 -69q-23 -33 -43 -66q-29 -49 -57 -137q-41 -117 -50 -139q-55 -106 -153 -324q-51 -135 -156 -405 q-31 -66 -90 -205q-35 -70 -100 -211q-29 -88 -78 -195q-14 -10 -37 -14q-12 0 -35.5 3t-36.5 3q-16 0 -49 -3t-49 -3q-88 0 -88 49z" />
<glyph unicode="0" d="M45 809q0 465 334 696q195 135 381 135q193 0 409 -157q349 -252 349 -717q0 -317 -221.5 -541.5t-538.5 -224.5q-326 0 -525 246q-188 229 -188 563zM451 811q0 -145 81 -260q92 -125 234 -125q143 0 253.5 98.5t110.5 237.5h3q0 190 -82 303q-94 127 -281 127 q-147 0 -238 -119q-82 -111 -81 -262z" />
<glyph unicode="1" d="M342 1350q0 45 27.5 58t58.5 28q82 59 131 110q16 31 66 78q27 10 131 10q211 0 235 -4q39 -6 39 -76q0 -43 -6 -129t-6 -129q0 -59 7 -180t7 -182q0 -37 -5 -110.5t-5 -110.5q0 -35 3 -104.5t3 -104.5q0 -43 19 -53q10 -4 57 -5q92 0 102 -57q15 -79 15 -276v2 q0 -74 -13.5 -88.5t-81.5 -14.5q-27 0 -80 -5t-79 -5q-37 0 -110 4t-107 4q-25 0 -74 -4t-72 -4q-154 0 -181.5 25.5t-27.5 181.5q0 18 4 55t4 55q0 10 -4 30t-4 30q0 41 84 57q104 18 111 25q18 14 18 76q0 63 -7 190t-7 193q0 18 3 59t3 63q-2 68 -39 68q-20 0 -62 -7 t-63 -7q-59 2 -71 28q-23 49 -23 226z" />
<glyph unicode="2" d="M141 1010q0 268 184.5 448t454.5 180q231 0 402 -131q186 -141 186 -366q0 -190 -141 -338q-78 -80 -266 -195q-141 -88 -142 -131q0 -25 27 -28q-2 0 45 0q25 0 71 5t68.5 5t24.5 24q-2 -33 -2 39q0 47 75 47q14 0 44 -2t38 -2q20 0 64.5 4t66.5 4q76 -2 76 -75 q0 -10 -2 -38t-2 -40q0 -55 4 -168t4 -170v2q0 -27 -10 -53q-18 -33 -295 -33q-27 0 -80 5t-80 5q-29 0 -86 -5t-88 -5l-512 2q-43 0 -55 2q-43 2 -49 12q-14 29 -14 82q0 342 184 559q106 127 340 252q184 100 184 158q0 47 -31.5 80t-76.5 33q-78 0 -119 -64 q-33 -53 -35 -133q0 -20 -4 -29q-10 -14 -201 -14q-18 0 -56 -6t-58 -6q-137 0 -138 84z" />
<glyph unicode="3" d="M172 520q0 57 4 72q8 35 49 35h133q88 -2 134 -2q63 0 63 -21q0 -70 62.5 -139.5t132.5 -69.5q57 0 101 32t44 89q0 88 -86 115q-39 10 -154 10q-23 0 -34 10q-20 16 -29 260q-2 29 10 58q4 10 78 22q86 14 129 37q68 37 68 111q0 49 -46 82q-41 27 -94 26 q-78 0 -116 -51q-2 -2 -46 -92q-23 -51 -67 -51q-37 0 -110.5 6t-110.5 6q-47 0 -65.5 21.5t-18.5 246.5q0 39 5 113t5 110q0 86 113 86q16 0 51 -2t51 -2q41 0 53.5 -29.5t26.5 -29.5q10 0 33.5 13.5t29.5 15.5q125 45 260 45q199 0 349 -113q164 -123 166 -313 q0 -131 -72 -254q-31 -53 -75 -76t-44 -29q0 -8 23 -20q16 -8 30 -17q82 -59 131.5 -152.5t49.5 -193.5q0 -227 -154 -368.5t-381 -141.5q-201 0 -285 25q-182 53 -288.5 192.5t-108.5 327.5z" />
<glyph unicode="4" d="M168 840q0 74 186 309q123 154 248 307q2 2 57 94q41 70 57.5 78t53.5 6q70 -4 55 -4q53 0 160 3t160 3q51 0 51 -47q0 -10 -2 -29.5t-2 -29.5q0 -90 4 -307q2 -197 2 -308q0 -39 31 -43q-18 2 59 2q59 0 80 -12q27 -19 27 -74q0 -324 -16.5 -331.5t-41.5 -7.5 q-23 0 -63.5 7t-61.5 7q-37 0 -49 -10.5t-12 -44.5q0 -29 49 -33q61 -8 78 -25q35 -37 41 -119q0 4 0 -131q0 -80 -41 -94q-16 -6 -131 -6q-432 0 -545 2q-49 0 -55 66q-4 49 -4 174q0 70 96 96.5t96 81.5q0 47 -53 55h-96q-20 0 -63.5 -4t-65.5 -4q-29 0 -82 2h-82 q-55 0 -76 12q-35 20 -39 123q0 -18 0 141q0 16 -5 48t-5 47zM635 858q0 -14 22 -8q127 0 130.5 11t3.5 36q0 147 -15 186l-6 7q-4 0 -25 -31q-10 -20 -22 -39q-88 -123 -88 -162z" />
<glyph unicode="5" d="M162 512q0 68 4 84q12 41 57 41q57 0 169 -6t167 -6q23 0 39 -41q20 -55 39 -76q39 -41 119 -41q68 0 117 46t49 114q0 76 -57.5 128t-135.5 52q-76 0 -112.5 -56.5t-73.5 -56.5q-55 0 -178 29q-137 31 -156 61q-6 12 -6 39q0 180 76 627l12 94q12 61 43 78q14 8 74 10 q16 0 55 3t59 3q37 0 108.5 -4t106.5 -4q80 0 267 4q170 2 266 2q80 0 80 -88q0 -12 -2 -37.5t-2 -37.5q0 -16 2 -49t2 -50q0 -76 -11 -106q-16 -53 -73 -54q-27 0 -82.5 6.5t-83.5 6.5q-31 0 -92.5 -2t-94.5 -2q-29 0 -88 4t-90 4q-47 0 -47 -82q0 -6 17 -6q20 0 61 6t63 6 q248 0 406 -141q166 -145 166 -393l2 -3q0 -150 -78 -299q-170 -330 -610 -329q-223 0 -385 147q-168 154 -168 375z" />
<glyph unicode="6" d="M117 823q0 492 383 723q184 111 356 111q174 0 295 -66q152 -80 152 -239q0 -100 -54 -168q-57 -76 -155 -76q-242 0 -242 182q0 12 -25 13q-70 0 -129 -99q-53 -90 -51 -164q0 -43 8 -43q-14 0 90.5 45t198.5 45q211 0 356.5 -140t145.5 -351q0 -287 -178 -454 t-469 -167q-338 0 -523 265q-160 231 -159 583zM643 563q0 -74 43 -123t117 -49t126 50t52 124v-2q0 68 -48 114t-116 46q-76 0 -125 -42t-49 -118z" />
<glyph unicode="7" d="M172 1487q0 150 170 149q29 0 84 -4t82 -4h487q37 0 111 4t111 4q131 0 157 -63q8 -20 8 -180q0 -23 4.5 -68t4.5 -68q0 -61 -60 -147q-49 -66 -96 -133q-104 -182 -207 -463q-63 -174 -92 -276l-18 -117q-14 -80 -36 -101.5t-440 -21.5q-104 0 -104 57q0 100 129 379 q88 184 242 469q131 238 131 242q0 14 -138 14q-82 0 -88 -10q-14 -25 -14 -55v-17.5v-17.5q0 -31 -33 -41q-41 -14 -168 -14q-178 2 -198 30q-29 39 -29 453z" />
<glyph unicode="8" d="M215 549q0 90 35 151q29 55 102 117l58 39q47 31 45 37q0 14 -25 31q-18 10 -37 22q-127 121 -127 299q0 205 156 307q131 84 346 84q193 0 336 -106q158 -117 158 -303q0 -88 -45 -168q-31 -51 -87 -107q-47 -47 -47 -53q0 -2 81 -65.5t96 -81.5q86 -117 86 -277 q0 -217 -175 -356q-164 -131 -385 -131q-264 0 -416.5 149.5t-154.5 411.5zM606 512q0 -70 60 -109q51 -35 125 -34q167 -1 167 161q0 68 -49 109t-118 41q-72 0 -128.5 -48t-56.5 -120zM627 1167q0 -121 157 -123q61 0 99.5 35.5t38.5 96.5v-2q0 63 -49.5 98t-112.5 35 q-59 0 -96 -41t-37 -99z" />
<glyph unicode="9" d="M115 1040q0 283 176 445q168 158 457 157q344 0 532 -245q168 -220 168 -574q0 -338 -207 -577q-217 -250 -551 -250q-174 0 -313 90q-160 102 -160 268q0 72 62.5 123t134.5 51q100 0 153 -49q10 -10 66 -92q35 -51 84 -51q72 0 129 92q53 82 55 160q0 35 -12 35 q16 0 -76 -45.5t-182 -45.5q-219 0 -367.5 145.5t-148.5 362.5zM580 1071q0 -68 48 -114t115 -46q76 0 125.5 42t49.5 118q0 74 -43.5 123t-116.5 49q-74 0 -126 -50t-52 -122z" />
<glyph unicode=":" horiz-adv-x="591" d="M51 240q0 94 65.5 164.5t159.5 70.5q100 0 168 -67.5t68 -165.5q0 -111 -62.5 -178.5t-170.5 -67.5q-96 0 -162 72.5t-66 171.5zM53 993q0 96 62.5 165t158.5 69q100 0 169 -68t69 -164v-2q0 -111 -62.5 -178t-173.5 -67q-98 0 -160.5 71.5t-62.5 173.5z" />
<glyph unicode=";" horiz-adv-x="600" d="M49 258q0 92 70.5 155.5t163.5 63.5q113 0 174 -75.5t61 -188.5v-2q0 -115 -78 -250q-90 -152 -196 -151q-76 0 -74 51q0 14 27 30q35 20 49 39q27 33 26 93q0 27 -26 26q-88 0 -142.5 59.5t-54.5 149.5zM53 993q0 94 65.5 165t160.5 71q98 0 167.5 -69t71.5 -165l-2 -2 q0 -109 -62.5 -176t-168.5 -67q-98 0 -165 71.5t-67 171.5z" />
<glyph unicode="&#x3c;" horiz-adv-x="1271" d="M68 772q0 12 4 27q8 27 51 49q33 16 67 33q80 51 457 172t461 121q2 0 11 -3.5t11 -3.5q44 -34 44 -288h2q0 -70 -17.5 -88.5t-331.5 -88.5q-303 -70 -303 -88q0 -16 309.5 -85.5t319.5 -79.5q20 -23 21 -78q0 -291 -39 -291q-102 0 -557 164q-473 170 -504 241 q-8 16 -4 56q4 31 6 59q0 31 -4 88t-4 84z" />
<glyph unicode="=" horiz-adv-x="1245" d="M33 469q0 39 8 92q12 70 31 80q29 14 121 29q84 12 126 12q70 0 344.5 -13.5t344.5 -13.5q104 0 126.5 -23.5t22.5 -121.5l-2 -2q0 -209 -22 -248q-10 -16 -115 -16h-344q-27 0 -183.5 5t-183.5 5q-31 0 -92 -4t-92 -4q-68 0 -84 84q-4 20 -6 139zM33 991q0 29 6 85.5 t6 87t21 38.5q55 25 284 25h684q121 -1 121 -140v-2q0 -35 -7 -95t-7 -97q0 -70 -56 -84q-10 -2 -108 -4q-16 0 -85 -4t-89 -4l-391 2q-35 6 -109 12q-20 0 -60 -3t-59 -3q-117 -2 -137 26q-14 23 -14 160z" />
<glyph unicode="&#x3e;" horiz-adv-x="1243" d="M74 371q0 53 22 78q10 10 324 81q305 68 305 84q0 18 -305 86q-315 72 -330.5 89.5t-15.5 87.5q0 254 43 288q14 6 20 9q84 0 462 -121t458 -172q35 -16 67 -33q45 -23 54 -49q4 -13 4 -27q0 -29 -4 -86t-4 -86q0 4 4 -59q4 -39 -4 -56q-31 -72 -504 -241 q-455 -164 -557 -164q-39 0 -39 291z" />
<glyph unicode="?" horiz-adv-x="1241" d="M51 1141q0 207 161 356.5t366 149.5h38q244 0 400 -123q168 -133 168 -369v2q0 -156 -86 -248q-80 -63 -162 -129q-86 -76 -86 -192q0 -80 -107 -80q-20 0 -61 5t-61 5q-14 0 -43 -3t-41 -3q-70 0 -101 16q-41 20 -41 84q0 141 88 242q31 35 160 131q88 63 88 121 q0 55 -43 96t-98 41q-25 0 -68 -18q-51 -20 -51 -39l25 -22q26 -23 32 -38q12 -29 13 -65q0 -98 -63.5 -158.5t-162.5 -60.5q-123 0 -196 92q-68 84 -68 207zM391 244q0 94 65.5 164.5t161.5 70.5q100 0 168 -67.5t66 -165.5h2q0 -111 -62.5 -178.5t-170.5 -67.5 q-96 0 -163 72.5t-67 171.5z" />
<glyph unicode="@" horiz-adv-x="935" d="M14 713q0 170 41 264q49 117 181 194q119 70 235 70q203 -2 350.5 -146t147.5 -345q0 -129 -31 -189q-43 -82 -164 -82q-57 0 -99 33t-48 33q2 0 -54.5 -33t-111.5 -33q-90 0 -153.5 74t-63.5 166q0 109 58 179.5t167 68.5q14 0 36.5 -10.5t35.5 -10.5q14 0 26.5 16.5 t24.5 16.5q55 0 90 -64l43 -110q2 -4 10 -64q8 -51 17 -49q25 0 34 99q0 113 -93 197.5t-204 84.5q-131 0 -225 -106.5t-94 -237.5q0 -106 76 -215q86 -119 190 -119q35 0 106.5 23.5t98.5 23.5q10 0 40 -63.5t30 -77.5q0 -10 -11 -20q-72 -70 -266 -70q-184 0 -307 162 q-113 150 -113 340zM383 733q0 -92 88 -94q35 0 60.5 24.5t25.5 61.5q0 39 -24.5 71.5t-61.5 32.5q-35 0 -61.5 -30.5t-26.5 -65.5z" />
<glyph unicode="A" horiz-adv-x="1501" d="M10 72v159q0 150 13 170q2 4 50 34t74 75q51 86 99 311q33 172 63 342l-67 -2h-3q-94 0 -94 148q0 29 4.5 80t4.5 67q0 92 12 121q23 53 104 53q18 0 53 -4t52 -4q20 0 64 5t67 5q18 0 59 -2t64 -2q37 0 114.5 8.5t118.5 8.5q27 0 50.5 -14.5t37.5 -57.5q10 -35 21 -72 q47 -104 123 -315q10 -59 36 -180q25 -59 68 -183q10 -47 37 -145q20 -37 57 -117q2 -4 8 -47q4 -29 21 -41l61 -16q43 -10 43 -51q7 -259 7 -308v2q0 -102 -154 -102q-29 0 -82 4t-72 4q-57 -2 -172 -4q-16 0 -48 -5t-48 -5q-68 0 -88 43q-10 25 -12 98q0 33 -7.5 101.5 t-7.5 103.5q0 45 29 65q18 10 70 21q-8 39 -17 80q-16 45 -57 45q-29 0 -172 -10q-37 -31 -37 -82q0 -59 61 -60q55 0 56 -67q0 -16 -4 -45t-4 -43q0 -27 2 -71t2 -60q0 -61 -27 -88t-111 -27q-23 0 -68.5 6t-70.5 6q-31 0 -93 -6t-95 -6q-113 0 -123 2q-74 12 -72 74z M608 811l150 -2q10 0 10 14l-2 2q0 47 -23 129q-27 98 -57 99q-33 0 -57 -107q-20 -84 -21 -135z" />
<glyph unicode="B" horiz-adv-x="1486" d="M8 109q0 14 6 243q4 143 99 144q61 0 81.5 15t22.5 71q0 16 -6 44.5t-6 43.5q0 47 5 143t5 145q0 14 5 43t5 43q0 37 -10 82q-68 10 -116 10.5t-48 71.5v250q0 10 -2 29.5t-2 30.5q0 47 27.5 79.5t75.5 32.5l520 -2q141 0 207 -12q100 -18 188 -80q207 -145 207 -365 q0 -82 -53 -186q-35 -72 -54 -90q0 -2 31 -25q90 -66 92 -69q53 -41 78 -86q51 -90 51 -213v-2q0 -217 -147.5 -354.5t-368.5 -139.5l-426 -2q-199 0 -266 6q-201 20 -201 99zM625 1167q0 -20 2 -80q3 -34 3 -59q0 -12 -1 -22q41 -10 78 -11q151 1 151 99v-2q0 55 -72 86 q-55 22 -115 22h-5q-12 0 -26.5 -10t-14.5 -23zM643 492l2 -56q35 -18 74 -18q49 0 105.5 37t56.5 84h-2q0 59 -68 90q-51 24 -114 24h-5h-37q-12 -84 -12 -144v-17z" />
<glyph unicode="C" horiz-adv-x="1329" d="M2 852q0 406 258 635q195 172 373 174q78 0 188 -43q51 -25 103 -47q6 0 35.5 34.5t70.5 34.5q12 0 34.5 -5t35.5 -5q20 0 57 5t55 5q39 0 50 -34q6 -17 6 -68q0 -41 -8.5 -122t-8.5 -120q0 -37 7.5 -112.5t7.5 -114.5q0 -121 -31 -126q-17 -3 -44 -3q-21 0 -48 2 q-78 4 -96 4q-16 0 -53.5 -3t-57.5 -3q-68 0 -102 59q-25 53 -50 107q-39 57 -118 57q-113 0 -174 -139q-47 -109 -48 -240q0 -137 50 -233q63 -121 186 -121q74 0 111 51q10 16 40 97q18 51 52 51q25 0 73 -10.5t72 -10.5q27 0 78 7.5t76 7.5q43 0 55 -45q6 -20 6 -82 q0 -225 -194 -394q-147 -127 -371 -127q-147 0 -293 76q-383 199 -383 801z" />
<glyph unicode="D" horiz-adv-x="1425" d="M8 61q0 14 4 43t4 46q0 33 -3 98t-3 98q0 78 39 94q35 6 73 13.5t38 68.5t-8.5 184t-8.5 185q0 106 7 162q0 8 6 29.5t6 33.5q0 53 -77 64.5t-77 68.5q0 12 3 40t3 42q-4 166 -4 164q0 84 39 114.5t125 30.5q25 0 71 -7t66 -7q373 -12 529 -63q250 -84 389 -338 q110 -201 110 -406v-2q0 -88 -14 -184q-33 -223 -195 -416q-182 -215 -395 -215l-614 -2q-31 0 -68 16q-45 18 -45 45zM563 977q0 -98 4 -268q6 -197 6 -267q31 -12 66 -12q119 0 186 129q56 105 56 236h2q0 141 -37 241q-51 145 -166 146q-86 0 -98 -17q-18 -25 -19 -188z " />
<glyph unicode="E" horiz-adv-x="1198" d="M8 1300q0 16 6 44t6 38q2 16 2 38t-2 48q-6 72 -6 88q0 47 49 66q33 12 91 12q29 0 88 -6t92 -6q98 0 292.5 5t291.5 5q104 0 124 -12q31 -20 31 -117q0 -63 2 -172q4 -127 4 -174q0 -61 -24 -76q-14 -10 -82 -10q-25 0 -75 -8t-75 -8q-84 0 -100 30q-6 12 -8 113 q-29 4 -90 8h-3q-34 0 -34 -53l-2 -174q0 -27 55 -27q14 0 42 4.5t42 4.5q41 0 53.5 -12.5t12.5 -53.5q0 -31 -3.5 -95.5t-3.5 -97.5q0 -57 -28 -67q-8 -4 -78 -4q-57 0 -57 -27l-3 -188q0 -27 46 -27q68 0 77 17q4 6 7 83q2 72 51 72h119q78 -2 116 -2q61 0 72.5 -14 t11.5 -80v2q0 -31 -4 -94.5t-4 -96.5q0 -25 4 -73.5t4 -71.5q0 -86 -28.5 -109.5t-112.5 -23.5q-23 0 -70 5t-71 5q-27 0 -82.5 -5t-83.5 -5q-92 0 -252 4q-180 6 -252 6q-14 0 -43 -4t-43 -4q-61 0 -62 51q0 121 7 365q2 53 88 53q41 0 47 94q-2 61 -2 123q0 16 6 191 q2 58 2 105.5t-2 84.5l-2 37q-2 29 -37 31q-53 2 -59 6q-41 18 -52 67q-6 25 -6 92z" />
<glyph unicode="F" horiz-adv-x="1157" d="M8 1300q0 16 6 44t6 38q2 16 2 38t-2 48q-6 72 -6 88q0 47 49 66q33 12 91 12q29 0 89 -6t91 -6q106 0 307 6q211 8 307 8q94 0 117 -16q29 -23 29 -117v-342q0 -68 -23 -82q-12 -10 -84 -10q-25 0 -76 -10t-77 -10q-76 0 -91 38q-6 14 -8 111q-111 6 -108 6 q-45 0 -45 -110q0 -29 3 -70t3 -45q0 -29 98 -31l-25 1q0 1 152 1q88 0 111 -45q12 -25 12 -131q0 -90 -18.5 -117.5t-69.5 -27.5q-12 0 -45 2t-55 2q-98 0 -117 -35q-10 -16 -13 -121q0 -45 62 -61q10 -2 100 -13q57 -6 60 -225v-16q0 -92 -21 -121q-29 -43 -129 -43 q-96 0 -262 4q-188 6 -262 6q-14 0 -44 -5t-42 -5q-23 0 -42.5 15.5t-19.5 37.5q0 121 7 365q2 53 92 53q37 0 43 94q-2 61 -2 123q0 16 6 191q2 58 2 105.5t-2 84.5l-2 37q-2 29 -37 31q-53 2 -59 4q-41 18 -52 67q-6 25 -6 94z" />
<glyph unicode="G" horiz-adv-x="1361" d="M2 856q0 383 260 614q100 88 166 123q90 49 199 49q76 0 182 -47q98 -41 94 -43q4 0 39 35t84 35q217 0 229 -43q25 -79 25 -487q0 -150 -39 -158q-10 -2 -33 -2q-31 0 -91 6t-91 6q-12 0 -40 -2t-42 -2q-68 0 -102 55q-27 51 -56 103q-43 55 -129 55q-117 0 -174 -137 q-45 -104 -45 -240q0 -135 54 -223q66 -109 192 -109q47 0 106.5 40t59.5 83q0 18 -78 20.5t-80 12.5q-12 52 -12 135v25q2 39 4 55q4 43 21 45q59 10 180 10q59 0 181 -6t183 -6q10 0 13 -39q3 -18 3 -47q0 -14 -1 -31q-2 -68 -2 -57q0 -43 8 -125t8 -121q0 -31 -7 -89 t-7 -87q0 -25 5 -76t5 -77q0 -82 -10 -95q-12 -18 -86 -18q-14 0 -44 4t-47 4q-45 0 -137 -4l-37 106q-126 -118 -294 -118h-3q-100 0 -235 69q-203 104 -299 342q-80 197 -80 457z" />
<glyph unicode="H" horiz-adv-x="1566" d="M8 115q0 49 2 145v143q0 43 142 43q45 0 45 107q0 31 -4.5 81t-4.5 58q0 53 4.5 159.5t4.5 158.5q0 86 -23 112q-12 14 -49 14.5t-52.5 19t-19.5 61.5q-1 14 -1 34t1 45q4 63 4 68q0 31 -12 86t-12 82q0 90 188 90q37 0 93.5 -3t70.5 -3q29 0 89.5 6t92.5 6 q113 0 135 -55q8 -20 9 -158q0 -168 -6 -209q-4 -20 -64 -20q-29 0 -33 -45q0 3 1 3t1 -73q0 -76 56 -76q12 0 41.5 4.5t46.5 4.5q20 0 57 -6.5t55 -6.5h2q53 0 56 105q0 45 -4 59q-10 20 -48 23q-68 2 -71 30q-5 29 -5 111q0 27 1 61q2 162 18 195q33 63 172 63 q31 0 91.5 -5t90.5 -5q33 0 94.5 5t92.5 5q117 0 117 -110q0 -18 -4.5 -64.5t-4.5 -68.5q0 -25 6.5 -73t5.5 -73q0 -55 -12 -72.5t-63 -17.5q-12 0 -19 -2q-37 0 -36 -22l-3 -154q0 -76 13.5 -221.5t13.5 -214.5q0 -55 25 -74q14 -8 49 -11t45 -20q16 -26 16 -161h2 q0 -86 -14 -230q-2 -14 -4 -25.5t-19.5 -16.5t-48.5 -5t-94 5t-96 5q-53 0 -161.5 -7t-164.5 -7q-59 0 -80 12q-30 17 -30 71q0 26 6 72q5 34 5 57q0 7 -1 13l-6 118v-1q0 61 32 80q6 4 62 16q33 8 33 39l2 127q0 55 -103 55q-25 0 -63.5 2.5t-52.5 2.5q-53 0 -74 -23 q-25 -29 -25 -109q0 -84 66 -84q53 0 53 -86q0 -39 -3 -119.5t-3 -121.5q0 -111 -39 -111q-16 0 -51 6t-53 6q-72 0 -217.5 -8t-219.5 -8q-84 0 -104 12q-31 20 -31 99z" />
<glyph unicode="I" horiz-adv-x="917" d="M8 358q0 63 45 80q23 8 103 8q45 0 45 107q0 31 -4 81t-4 58q0 53 4 159.5t4 160.5q0 72 -8 92q-14 33 -70 33q-31 2 -46.5 19.5t-19.5 60.5q-1 14 -1 34t1 45q4 63 4 68q0 31 -12 86t-12 84q0 90 184 90q35 0 94.5 -4t73.5 -4q35 0 105.5 6t107.5 6q158 0 158 -80 q0 -27 -5 -76t-5 -73q0 -29 5 -85.5t5 -86.5q0 -74 -62 -74h-18h-18q-31 0 -31 -25v-73q0 -35 7 -105.5t7 -107.5q0 -45 -7 -132t-7 -130q0 -106 53 -134q49 -8 100.5 -16t51.5 -76q0 -25 -7.5 -70.5t-7.5 -68.5q0 -25 3 -70t3 -65q0 -55 -27.5 -63.5t-70.5 -8.5 q-10 -1 -22 -1q-24 0 -58 3q-57 2 -76 2q-70 0 -198 -4q-137 -6 -201 -6q-100 0 -131 18.5t-31 67.5q0 14 3 60.5t3 78.5q0 20 -5 64.5t-5 66.5z" />
<glyph unicode="J" horiz-adv-x="1259" d="M8 524q0 145 91 240.5t235 95.5q233 -2 233 -209q0 -98 -65 -153q-4 -4 -31 -13.5t-25 -17.5q0 -32 36 -32q5 0 12 1q66 0 108 82q37 68 37 137q0 16 -2 62q-4 39 -2 61q0 16 6 62q4 39 4 59q0 195 -12 234q-8 16 -92 16q-10 0 -61.5 -4t-82.5 -4q-141 0 -141 67v320 q0 80 20.5 96t108.5 16q57 0 171 -6t167 -6h240q20 0 63 4t68 4q59 0 81.5 -26.5t22.5 -85.5q0 -20 -5 -62.5t-5 -64.5q0 -25 5 -74t5 -76q0 -66 -53 -66q-1 0 -1 1h-6q-49 0 -63 -8q-23 -14 -22 -64q0 -82 16 -247t16 -249q0 -622 -543 -622h-5q-528 0 -529 532z" />
<glyph unicode="K" horiz-adv-x="1609" d="M8 1518q0 68 21 81q37 12 69.5 24.5t65.5 12.5q39 0 121 -8t123 -8q25 0 76 6t77 6q74 0 92 -6q41 -14 41 -72q0 -18 -5 -57t-5 -59q0 -27 2 -81t2 -83q0 -53 -63.5 -63.5t-63.5 -36.5q0 -16 2 -50v-49q0 -6 8 -8q23 0 33 27q27 29 82 86q82 94 154 202q39 72 121 211 q25 39 114 39q23 0 66 -5t63 -5q23 0 68 4t69 4q63 0 80 -10q27 -14 27 -72q0 -20 -5 -60t-5 -61q0 -14 2 -42.5t2 -43.5q0 -98 -41 -129q-25 -18 -86.5 -20t-81.5 -23q-166 -166 -170 -186q0 -33 287 -508q12 -20 112 -20q72 0 72 -179q0 -30 -2 -65q-1 -8 -1 -19 q0 -21 3 -49q4 -49 4 -67l2 -2q0 -61 -41 -62q-6 0 -24.5 2t-28.5 2q-41 0 -119 -4q-84 -6 -121 -6h-145q-72 0 -109 141q-10 37 -37 91q-37 70 -45 90q-25 74 -79 219q-10 25 -19 51q-16 37 -33 37q-18 0 -87.5 -84t-69.5 -107q0 -18 36 -18q18 0 44 4q70 0 73 -219 q0 -39 -10 -111q-2 -31 -6 -62.5t-43 -31.5h-533q-131 0 -131 144q0 14 4 42.5t4 43.5q0 16 -4 48.5t-4 49.5q0 102 58 125q4 2 51 -4q49 0 49 24q0 27 -5 79t-5 79q0 25 5 77t5 79q0 25 -7 73.5t-7 73.5q0 31 11 86t11 80q0 35 -33 43h-61q-74 0 -74 87q0 29 3 85 q3 55 3 86q0 18 -4 55t-4 56z" />
<glyph unicode="L" horiz-adv-x="1165" d="M8 383q0 61 43 78q23 8 96 10q14 0 19 33q6 51 6 276q0 23 -7 67t-7 64q0 23 2 68t2 68q0 78 -15 127q-4 10 -16 14q-10 2 -27 0q-25 -2 -24 -2q-33 0 -41 14t-8 47q0 53 -8.5 156.5t-8.5 152.5t31 66q20 10 76 10q29 0 86 -5t88 -5q53 0 157.5 6t155.5 6q86 0 86 -127 q0 -20 -2 -57t-2 -49q0 -23 5 -67t5 -66q0 -53 -16 -66.5t-68 -13.5q-33 0 -34 -248q-2 -172 -2 -442q0 -82 73 -84q59 0 70 26q0 4 2 84q0 47 59 47q43 0 129 -3t131 -3q60 0 60 -76q0 -18 -4 -54t-4 -54v-285q0 -63 -41 -84q-28 -14 -88 -14h-15q-29 0 -91 4t-95 4h-516 q-20 0 -58 -5t-57 -5h-5q-110 0 -110 80q0 14 5.5 39.5t5.5 38.5q0 39 -11.5 115.5t-11.5 113.5z" />
<glyph unicode="M" horiz-adv-x="1931" d="M8 113q0 301 31 348q14 20 76 20q53 0 63 68q2 12 2 113q0 25 4 72.5t4 72.5q0 29 -5 86t-5 88q2 88 2 90q0 76 -51 80q-61 2 -74 31q-12 32 -12 252v67q0 94 21.5 116.5t115.5 22.5q360 0 473 -6q49 -2 70 -24q8 -6 39 -62q18 -31 38.5 -102.5t45.5 -104.5q6 -8 63 -110 q49 -92 56 -92q10 0 10 14q18 37 39 109q23 80 37 110q31 86 59 172q41 82 143 82q10 0 32 -4t32 -2q219 0 297 2q57 8 174 16q41 0 51 -16q4 -6 10 -55q21 -142 21 -189h2v-114q-6 -78 -37 -101q-14 -10 -72 -10q-43 0 -43 -78q0 -31 4.5 -96.5t4.5 -97.5q0 -45 -5 -154 q-4 -98 -4 -154q0 -72 39 -84l70 -8q39 -12 39 -88q0 -45 -2 -155q-2 -100 -2 -158q0 -82 -138 -82q-61 0 -184 2t-184 2q-150 0 -162 10.5t-12 141.5q0 29 -5 85t-5 85q0 88 32 102q31 8 60 14q32 19 32 109v6v152q0 111 -20 110q-25 -12 -162 -266q-129 -244 -190 -244 q-39 0 -161 250t-157 250q-14 0 -14 -45q0 -20 3 -63.5t3 -65.5q0 -18 -4 -51t-4 -50q0 -51 18 -61q10 -6 60.5 -6t60.5 -160v-207q0 -70 -20.5 -85t-92.5 -15q-74 0 -196 2q-152 4 -197 4q-123 2 -145 6q-72 20 -72 103z" />
<glyph unicode="N" horiz-adv-x="1495" d="M8 1161q0 49 2 150.5t2 152.5q0 16 4 51t4 54q0 61 105 61q16 0 45 -2t35 -2q33 0 96.5 4t93.5 4h41q55 0 133 -131q49 -94 101 -186q43 -76 137 -221q4 -4 37 -74q31 -61 37 -61q10 0 10 24v189q0 33 -19 36h-47q-73 0 -73 57q0 15 4 41q4 24 4 38q0 20 -7.5 59t-7.5 57 v17q0 151 70 151q45 0 135 -4t135 -4q39 0 116 5t116 5q72 0 88 -10q25 -16 25 -84q0 -53 -4.5 -161.5t-4.5 -164.5q0 -61 -100 -61q-23 0 -25 -12q-16 -211 -16 -564q0 -49 35 -59q8 -2 74 -2q33 0 41 -27q4 -12 4 -55q0 -59 -5.5 -179t-5.5 -181q0 -72 -96 -72 q-20 0 -63 3t-66 3t-71 -3t-72 -3q-59 0 -74 23q-100 190 -319 561q-20 39 -41 78q-35 63 -46 63q-14 0 -14 -78v-121q0 -59 55 -59q27 0 35 -14q20 -35 21 -177q0 -35 10 -103.5t10 -100.5q0 -70 -74 -70q-16 0 -52 4t-50 4q-27 0 -74 -6t-69 -6q-23 0 -66 6t-63 6 q-29 0 -80 -6q-57 -6 -82 -6q-57 0 -57 190v74q2 43 2 49q0 94 6 138q2 12 56 22t58 31q6 35 7 98v418q0 68 -16.5 88t-82.5 20q-47 0 -47 35z" />
<glyph unicode="O" horiz-adv-x="1626" d="M2 821q0 309 219 561q119 135 245 191.5t308 60.5l19 -2h12q356 0 528 -225q125 -164 174 -287q58 -141 58 -329h-2q0 -342 -223.5 -571.5t-563.5 -229.5q-338 0 -559 250q-215 240 -215 581zM451 788q0 -127 84 -231q88 -113 215 -113q160 0 251 121q82 111 82 275v-2 q0 115 -86 219q-91 110 -200 110h-2q-160 0 -252 -107.5t-92 -271.5z" />
<glyph unicode="P" horiz-adv-x="1294" d="M8 1202q0 39 6 118t6 120q0 27 -4 79t-4 78v17q0 26 290 26h22q635 0 788 -225q121 -178 121 -319h-2q0 -190 -151.5 -355.5t-338.5 -169.5q-45 0 -135 -8q-12 -6 -10 -8q-6 -25 -6 -49q0 -51 6 -66q12 -27 54 -27q1 1 2 1h1q42 0 41 -75v-7l-4 -138v1q0 -12 2 -62 q2 -37 2 -59q-2 -76 -73 -76q-25 0 -74 5t-74 5q-53 0 -162.5 -3t-165.5 -3q-67 0 -67 74q0 16 2 43.5t2 40.5q0 33 -5 96t-5 94q0 68 8 84q14 27 74 27q22 0 22 144v13q0 78 -5 229.5t-5 227.5q0 45 -19 49q2 0 -59 0q-80 0 -80 78zM606 979q0 -45 41 -45q178 0 178 125v-2 q0 55 -61 90q-53 29 -113 29q-45 0 -45 -50v-147z" />
<glyph unicode="Q" horiz-adv-x="1691" d="M2 817q0 311 219 567q117 135 254 195q131 55 318 55q367 0 540 -227q125 -162 174 -281q57 -143 58 -325q0 -236 -129 -447q18 -45 61 -110q53 -84 66 -107q153 -280 349 -280h1q72 0 173 61.5t130 61.5q39 0 39 -109q0 -209 -164 -358.5t-375 -149.5q-242 0 -407 256 q-123 190 -181 473q-115 -74 -174 -90t-202 -16q-315 2 -541 264q-115 133 -162 262t-47 305zM451 786q0 -80 38 -168q141 125 328 125q129 0 240 -63q26 69 26 141q0 125 -79 232q-87 114 -209 114h-2q-160 0 -254 -112q-86 -104 -88 -269zM600 508q66 -57 154 -57h3 q44 0 95 24q-53 68 -145 70h-5q-49 0 -102 -37z" />
<glyph unicode="R" horiz-adv-x="1437" d="M8 1204q0 39 6 118t6 118q0 25 -4 76t-4 77v21q0 28 293 28h21q637 0 790 -227q119 -176 119 -319q0 -121 -45 -215q-29 -61 -82 -115q-45 -45 -45 -47q0 -10 37 -66q45 -66 47 -69q25 -61 74 -146q8 -8 36 -6h41q76 0 76 -108q0 -23 -3 -63t-3 -52q0 -23 4 -67t4 -64 q0 -51 -18.5 -65.5t-67.5 -14.5h-293q-29 0 -61 6q-51 10 -131 258q-90 276 -119 309q-10 12 -43 13q-35 0 -42 -13.5t-7 -50.5q0 -57 4 -71q10 -35 51 -35q51 0 51 -99q0 -27 -4 -69.5t-4 -52.5q0 -20 4 -61.5t4 -63.5q0 -74 -77 -74q-25 0 -74 6t-74 6q-55 0 -165.5 -3 t-166.5 -3q-63 0 -63 80q0 14 2 42t2 38q0 31 -6 95t-6 97q0 68 10 84q14 25 76 25q20 0 20 160q0 70 -4 225q-4 147 -4 227q0 55 -29 55q-6 0 -22.5 -2t-28.5 -2h-4q-78 0 -78 80zM610 985q0 -51 43 -51q178 0 178 125q0 55 -61 90q-51 29 -113 29q-33 0 -40 -14.5 t-7 -178.5z" />
<glyph unicode="S" horiz-adv-x="1183" d="M8 184q0 29 5 85.5t5 82.5q0 37 -4 108.5t-4 106.5q0 84 29 99q10 6 108 6q27 0 82.5 -4t83.5 -4q53 0 76 -62q16 -55 35 -110q31 -61 100 -62q45 0 83 28.5t38 71.5q0 84 -137 177q-213 141 -256 184q-139 137 -139 330q0 182 121.5 304t302.5 122q49 0 136 -30t103 -30 q8 0 15.5 19.5t15.5 23.5q18 8 57 8q209 0 221.5 -25.5t12.5 -70.5q0 -29 -6.5 -86t-6.5 -86q0 -31 4.5 -94.5t4.5 -97.5q0 -70 -70 -70q-12 0 -43 3t-47 3q-18 0 -55 -5t-56 -5q-14 0 -26 8q-31 55 -62 109q-37 55 -108 55q-29 0 -54.5 -24.5t-25.5 -53.5q0 -68 147 -158 q207 -123 279 -196q149 -156 149 -383h2q0 -199 -114 -338q-123 -147 -320 -148q-82 0 -196 53l-113 54q-4 0 -7 -2t-7 -2q-10 -8 -13.5 -30.5t-11.5 -31.5q-14 -14 -53 -12q-29 4 -60 6q-23 0 -62.5 -5t-57.5 -5q-78 0 -95 57q-6 20 -6 127z" />
<glyph unicode="T" horiz-adv-x="1421" d="M8 1114q0 70 4 209t4 207q0 108 193 108h4q61 0 181 -8t179 -8q45 0 135.5 6t137.5 6q43 0 129 -3t131 -3q25 0 72 3t69 3q76 0 99 -65q10 -31 12 -131q0 -25 -4 -75t-4 -73q0 -39 5 -117.5t5 -119.5h-2q0 -100 -127 -101q-18 0 -55 2t-54 2q-68 0 -92 25q-20 18 -20 68 q0 10 2 38.5t2 42.5q0 31 -60 31q-2 0 -11 -2t-11 -2q-10 -10 -14 -43q0 -23 2 -61q2 -45 2 -52q0 -57 -9 -192q-6 -125 -6 -193q0 -133 15 -159q14 -8 67 -8q47 0 55 -19q14 -31 15 -334q0 -61 -14.5 -79.5t-75.5 -18.5q-35 0 -114 4t-122 4h-321q-74 0 -103 35 q-20 25 -20 84v43q2 31 2 47q0 20 -4 59t-4 60q0 82 41 100q37 8 77.5 20.5t40.5 82.5q0 25 -4 70.5t-4 68.5q0 182 4 278q0 20 6 74q6 47 7 76q0 55 -52 55q-41 0 -47 -57q-6 -72 -26 -90q-27 -23 -183 -23h-26q-109 2 -109 125z" />
<glyph unicode="U" horiz-adv-x="1515" d="M8 1540q0 88 101 88q16 0 48.5 -2t49.5 -2l291 2q16 0 53 2t57 2q53 0 73.5 -20.5t20.5 -75.5q0 -27 -5 -82t-5 -84q0 -18 3 -55t3 -56q0 -49 -16 -68.5t-64 -19.5q-32 0 -32 -73q0 -58 3 -172q3 -113 3 -170q0 -137 16 -187q31 -96 137 -96q96 0 132 74q20 49 20 160 q0 256 1 256l1 -23q-2 154 -25 229q-4 16 -34.5 17.5t-36.5 11.5q-16 33 -19 92l1 -35q1 0 1 129q0 23 -3 67t-3 67q2 120 117 120h2q20 0 67.5 -4t69.5 -4q51 0 170 4q111 4 170 4q53 0 70 -30q8 -17 8 -80h2q0 -23 -5 -68t-5 -67q0 -20 4 -61.5t4 -61.5q0 -96 -94 -97 q-16 0 -17 -10q-10 -66 -10 -174q-2 -86 -2 -174q-2 -141 -2 -283q-6 -152 -49 -247q-53 -123 -184 -211t-316 -88q-272 0 -397 71q-156 88 -211 334q-8 39 -10 213q-2 205 -4 268q-6 154 -23 271q-4 23 -45 24q-47 2 -57 19q-16 29 -21 67q-1 14 -1 33.5t1 42.5q4 59 4 72 q0 25 -4 72t-4 69z" />
<glyph unicode="V" horiz-adv-x="1519" d="M8 1540q0 88 101 88q16 0 48.5 -2t49.5 -2l291 2q18 0 55 3t57 3q55 0 75 -22.5t20 -77.5q0 -41 -4.5 -124t-4.5 -126q0 -70 -54 -83t-54 -48q0 -53 20 -137q35 -131 35 -135q27 -135 102 -338q29 117 74 323q53 254 53 312q0 18 -34.5 22t-38.5 14q-12 23 -17 56 q-2 20 0 57q2 45 2 57q0 20 -3 65.5t-3 70.5q0 118 117 118h2q23 0 70 -4t69 -4q51 0 170 4q111 4 170 4q55 0 72 -30q8 -19 8 -82q0 -39 -3 -118t-3 -120q0 -106 -92 -106q-23 0 -31 -17q-33 -70 -110 -368q-76 -279 -95 -385q-55 -305 -129 -394q-10 -12 -65 -14 q-18 -1 -44 -1t-59 1q-76 4 -77 4q-31 0 -92.5 -5t-92.5 -5q-25 0 -35 6q-25 8 -59 115q-20 70 -41 137q-37 86 -102 262q-37 133 -115 399q-31 72 -76 226q-4 23 -49 24.5t-55 18.5q-20 33 -21 94q0 20 3 60t3 61q0 25 -4 72t-4 69z" />
<glyph unicode="W" horiz-adv-x="2099" d="M8 1540q0 88 96 88q18 0 53.5 -3t49.5 -3q33 0 91 5t85 5q43 0 124 -2t118 -2q59 0 80 -14q28 -19 28 -76q0 -31 -5 -81t-5 -75t9 -70.5t9 -68.5q0 -47 -53 -53t-53 -49q0 -35 27 -121q27 -78 49 -123q31 59 73 188q23 70 62 209q20 96 63 201q61 154 117 154 q59 0 127 -162q37 -111 76 -221q43 -133 141 -400q14 31 35 121q2 20 17.5 65.5t15.5 73.5q0 25 -45 35q-51 12 -56 21q-18 33 -18 116q0 258 39 310q12 16 47 18q12 2 29.5 2t40.5 -2q53 -4 59 -4l221 2q29 0 88.5 5t91.5 5q78 0 86 -41q17 -84 17 -348q0 -63 -11.5 -78.5 t-68.5 -15.5q-20 0 -29 -16q-25 -49 -47 -146q-18 -78 -35 -153q-41 -129 -108 -390q-35 -174 -49 -225q-39 -158 -80 -205q-14 -16 -60 -16q-41 0 -141 4q-90 2 -141 2q-35 0 -51 6q-23 10 -89 228q-63 209 -96 209q-8 0 -12 -13q-18 -68 -66 -200q-23 -74 -43 -148 q-35 -90 -102 -90q-297 0 -322 12q-39 20 -168 522q-137 537 -167 594q-14 25 -54 31q-45 6 -59 19q-29 25 -29 102q0 20 3 60t3 61q0 25 -4 72t-4 69z" />
<glyph unicode="X" horiz-adv-x="1540" d="M8 143q0 27 4 83.5t4 84.5q0 186 115 187q29 0 49 10q29 14 147.5 168.5t118.5 181.5q0 31 -100 154t-133 139q-12 6 -66 6q-67 0 -67 91q0 26 4 71t4 70q0 20 -4 60t-4 60q0 59 42 93t105 34q55 0 158 -6q111 -8 160 -8q18 0 53 4t53 4h3q81 0 81 -98q0 -20 -4 -59 t-4 -54q0 -23 6 -63.5t6 -61.5q0 -55 -42 -67.5t-42 -22.5q0 -6 48.5 -52t60.5 -46q8 0 55 48t47 58q0 14 -33.5 22.5t-33.5 49.5v258q0 84 123 84q20 0 55 -2t47 -2q47 0 138 7t136 7q117 0 117 -120q0 -29 -2 -115v-115v-14q0 -81 -22 -109q-14 -16 -48 -16q-41 0 -53 -6 q-20 -10 -131.5 -136t-111.5 -137q240 -350 260 -364.5t61 -9.5q111 0 111 -117h-2v-144q-2 -96 -2 -143q0 -76 -50 -86q-33 -6 -82 -6h-26q-113 6 -111 6h-276q-12 0 -39 -4t-41 -4q-66 0 -84 84q-6 29 -8 139v15q0 126 33 157q8 8 40 17q27 6 27 16q0 16 -49 75.5 t-68 59.5q-20 0 -75.5 -56.5t-55.5 -76.5q0 -6 46 -20.5t46 -59.5q0 -14 -5 -42t-5 -44q0 -29 -2 -86t-2 -86q0 -90 -178 -90q-18 0 -60 3t-65 3t-73 -3t-76 -3q-127 0 -160 12q-68 27 -68 133z" />
<glyph unicode="Y" horiz-adv-x="1280" d="M8 1507q0 68 17 92q23 33 86 33q49 0 148 -4t149 -4q23 0 66.5 5t66.5 5q49 0 61 -71q2 -16 2 -113q0 -31 -6 -92.5t-6 -89.5q0 -55 -40 -66.5t-40 -32.5q0 -18 50 -104t65 -86q12 0 37 51q16 31 30 64q14 20 31.5 42.5t17.5 43.5q0 14 -38.5 17t-38.5 44q0 33 9 91.5 t9 84.5q1 9 1 20q0 23 -3 54q-4 55 -4 74q0 69 87 69h3q18 0 54 -3t50 -3q49 0 146.5 5t144.5 5q56 0 56 -104v2l2 -119q1 -45 1 -81t-1 -64q-4 -78 -14.5 -107.5t-57.5 -31.5q-59 -2 -76 -15q-31 -23 -151.5 -203t-133.5 -221q-18 -59 -18 -182q0 -41 13.5 -52t52.5 -11 q63 0 63 -95q0 -92 -2 -182q-6 -141 -40 -156.5t-492 -15.5q-96 0 -119 41q-14 25 -17 137q0 96 11 215q4 43 92 43q12 0 16 6.5t4 83.5q0 33 4 98.5t4 96.5q0 45 -92 213q-88 162 -131 205q-8 8 -24 8q-41 -4 -29 -4q-49 0 -61 84q-4 27 -5 116q0 29 -5 83.5t-5 80.5z" />
<glyph unicode="Z" horiz-adv-x="1374" d="M8 1565q0 59 70 69q8 2 117 2q35 0 104.5 -6t106.5 -6q41 0 135 4q88 4 135 4q229 0 487 -12q33 -14 39 -35q16 -33 19 -155q0 -23 3 -77.5t3 -82.5q0 -41 -6 -68q-20 -90 -299 -391q-268 -291 -269 -342q0 -20 146 -20q37 0 49 28q4 12 4 60q0 106 82 106q16 0 49 -4 t49 -4q10 0 55 2q35 2 56 2q131 0 143 -39q27 -88 27 -377q0 -123 -27 -166q-37 -59 -151 -59q-70 0 -212.5 7t-213.5 7q-78 0 -234 -6t-235 -6q-150 0 -181 39q-20 29 -20 182q0 31 -4 96.5t-4 100.5q2 45 14 67q27 45 156 174q156 160 172 179q47 63 149 184q27 25 78 78 q16 14 31 26q23 20 20 31q-2 20 -24 25q-12 0 -35 -6.5t-33 -6.5t-32.5 4.5t-34.5 4.5q-37 0 -37 -43v-13q2 -8 2 -12q0 -84 -117 -84q-23 0 -66 5t-65 5q-14 0 -45 -3t-47 -3q-104 0 -107 154q0 23 5 66.5t5 66.5q0 41 -6 124t-6 124z" />
<glyph unicode="[" horiz-adv-x="571" d="M70 29q0 76 6 239q4 154 4 238l-2 260q0 55 -4 197q-4 125 -4 196q2 256 41 342q66 143 286 144q76 0 92 -43q6 -16 7 -113v-45q0 -45 -44 -49t-87 -9q-47 -12 -48 -75q0 -45 2.5 -137.5t2.5 -139.5q0 -20 5 -62t5 -65q0 -113 -4 -340t-4 -342q0 -256 10 -334 q4 -31 47 -36h65q50 -2 50 -86q0 -102 -7 -121q-18 -41 -98 -41q-172 0 -244 49q-63 43 -75 143q-2 25 -2 230z" />
<glyph unicode="\" horiz-adv-x="1056" d="M27 1591q0 39 75 49q20 2 117 2q45 0 72 -24q35 -39 102 -184q59 -127 84 -201q12 -47 45 -141q16 -29 45 -88q33 -80 99 -242q55 -129 170 -356q123 -248 172 -355q23 -43 43 -84q24 -51 24 -90v-2q0 -47 -88 -47q-18 0 -51 4t-47 4q14 0 -70 -8q-20 0 -35.5 12.5 t-44.5 91.5q-18 53 -37 105q-35 70 -100 211q-31 68 -90 205q-39 92 -156 405q-23 59 -75 162q-57 113 -78 160q-29 96 -107 276q-20 33 -43 66q-27 43 -26 69z" />
<glyph unicode="]" horiz-adv-x="610" d="M59 -231q0 37 7 57q12 29 45 29q63 -2 65 -2q43 6 47 36q10 78 10 338q0 115 -4 342.5t-4 339.5q0 20 5.5 61.5t5.5 63.5q0 47 2 139.5t2 137.5q0 61 -47 73q-41 4 -86.5 8.5t-45.5 49.5v45q0 96 7 112q16 43 94 43q221 0 287 -141q40 -86 40 -340l-2 -2q0 -66 -5 -197 t-5 -196v-260q0 -80 5 -238.5t5 -236.5q0 -205 -2 -230q-12 -100 -75 -143q-72 -49 -244 -49q-80 0 -98 41q-6 16 -9 119z" />
<glyph unicode="^" horiz-adv-x="770" d="M41 1184q0 37 92 198q113 195 117 203t106 8h60h20q14 -2 21 -2q102 0 106 -10t117 -188q92 -152 92 -189h2q-6 -39 -8 -41q-2 -8 -16 -8q-131 -4 -228 -4q-6 0 -21.5 22.5t-17.5 32.5q-23 41 -75 140q-45 -78 -99 -181q-2 -12 -41 -12q-29 0 -90 2h-92q-37 0 -37 10 q-2 2 -8 19z" />
<glyph unicode="_" horiz-adv-x="1718" d="M-55 -217q0 117 16 123q47 18 182 18h799q139 0 429 -4t429 -4q74 0 84 -10q21 -17 25 -109q2 -47 -41 -59q-14 -4 -86 -4q-90 0 -282.5 7t-285.5 7q-184 0 -495 -5t-494.5 -5t-158.5 -2q-121 6 -121 47z" />
<glyph unicode="`" horiz-adv-x="411" d="M61 1587q2 4 3.5 10.5t3.5 12.5t16 6q131 4 248 4q16 0 18 -10q4 -16 60 -146q47 -117 47 -137h2q0 -35 -35 -43q-10 -2 -68 -2q-123 0 -128 12.5t-95 145.5q-72 111 -72 147z" />
<glyph unicode="a" horiz-adv-x="1218" d="M8 348q0 186 137 301q129 111 318 111q16 0 46 -4t44 -4q20 0 20 18q0 57 -43 116.5t-100 59.5q-43 0 -43 -18q0 2 12.5 -17.5t12.5 -38.5q0 -55 -52.5 -84.5t-109.5 -29.5q-78 0 -133.5 47t-55.5 125q0 145 136 233q117 76 270 76q297 0 455 -256q57 -92 66 -305 t40 -270q23 -41 82 -48q43 -4 43 -81q0 -16 -4 -49t-4 -52q0 -16 4 -45t4 -43v-2q0 -90 -338 -90q-76 0 -108 41q-2 2 -13 35q-10 25 -20 24q-6 0 -37 -30.5t-37 -34.5q-80 -49 -192 -49q-170 0 -285 98t-115 266zM360 383q0 -45 35 -77t80 -32q61 0 107 29q53 35 53 94v-2 q0 115 -129 115q-145 0 -146 -127z" />
<glyph unicode="b" horiz-adv-x="1460" d="M8 326q0 57 43 80q41 14 83 28.5t42 50.5q0 123 -4 338q-6 240 -6 338q0 43 -23 53q-8 4 -59 5q-16 0 -42 12t-28 26q-2 61 -2 181l2 147q0 43 33 47t305 4q139 0 168 -12q63 -25 64 -137q0 -45 -4.5 -133t-4.5 -129q0 -80 28 -80h1q55 23 111 45q117 43 186 43 q260 0 418 -246q100 -155 100 -409v-3q0 -240 -133 -407q-143 -182 -377 -182q-90 0 -172 32q-53 23 -106 62q-45 33 -47 33q-4 0 -35 -56.5t-68 -56.5t-104 4q-74 4 -103 4q-25 0 -70.5 -6t-68.5 -6q-96 0 -115 76q-6 18 -6 155q0 16 -3 49t-3 50zM586 623q0 -215 188 -215 q84 0 146.5 56t62.5 140q0 209 -213 211q-78 0 -131 -56.5t-53 -135.5z" />
<glyph unicode="c" horiz-adv-x="1118" d="M2 596v18q0 250 156 430q164 188 409 191q41 0 114 -22.5t95 -22.5q4 0 23.5 13.5t50.5 13.5q12 0 35.5 -3.5t32.5 -3.5h92q37 -10 37 -84q0 -20 -4.5 -61t-4.5 -61q0 -43 9.5 -131.5t9.5 -133.5q0 -68 -37 -80q-10 -4 -100 -4q-27 0 -79.5 3.5t-76.5 3.5q-33 0 -49 55 q-23 82 -37 102q-35 55 -119 55q-176 -2 -176 -313q0 -94 39 -155q45 -74 133 -74t125 47q23 27 33 90q8 55 21.5 62.5t64.5 7.5q193 0 224.5 -10.5t31.5 -88.5q0 -215 -129 -336.5t-346 -121.5q-281 0 -433 168q-145 162 -145 446z" />
<glyph unicode="d" horiz-adv-x="1402" d="M2 637q0 244 148 407q152 172 391 175q106 0 202 -52q4 -2 35 -26q25 -23 31 -21q12 0 12 64q0 70 -37 86q-70 27 -69 26q-37 37 -37 158q0 111 12 139q25 57 119 58q41 0 124 -3t124 -3q131 0 153 -15q33 -23 33 -139q0 -70 -6 -199q-6 -137 -6 -198q0 -31 4 -87.5 t4 -82.5q0 -61 -4 -188.5t-4 -190.5q0 -111 35 -133q31 -4 63.5 -12.5t32.5 -92.5q0 -31 -2 -112v-115q0 -59 -57 -76q-27 -6 -111 -8q-47 0 -131 2q-94 2 -133 2q-68 0 -96.5 51t-36.5 51q1 0 1 -1q0 -5 -105 -56q-118 -57 -208 -57q-203 0 -352 192q-78 100 -106 217 q-23 92 -23 240zM414 598q0 -92 45 -147q49 -61 139 -62q88 0 145.5 58.5t57.5 146.5q0 82 -55.5 148.5t-137.5 66.5q-92 0 -143 -58.5t-51 -152.5z" />
<glyph unicode="e" horiz-adv-x="1177" d="M2 614q0 252 152 433q159 192 402 192h3q250 0 408 -184q149 -174 149 -428v2q0 -45 -6 -70q-10 -41 -129 -41q-29 0 -71 2t-50 2h-459q-14 0 -18 -20q0 -74 51 -126t125 -52q66 0 125 61t111 61l241 3q43 0 43 -39q0 -68 -71 -191q-78 -131 -174.5 -185t-247.5 -54 q-260 0 -426 188q-158 182 -158 446zM395 770q0 -20 131 -20h107h7q99 0 99 28q0 55 -65 82q-47 21 -101 21h-10q-55 0 -106 -29q-61 -33 -62 -82z" />
<glyph unicode="f" horiz-adv-x="1005" d="M8 1042q0 78 10 115q6 25 100.5 54.5t104.5 91.5v135q0 168 146 280q135 102 307 103q154 0 260 -80q119 -91 119 -238v-2q0 -111 -61.5 -184.5t-170.5 -73.5q-78 0 -125 46t-47 122q0 111 74 113q6 0 15.5 -4t13.5 -4q6 0 6 4q0 29 -43 28q-72 0 -96 -75 q-12 -41 -13 -134q0 -100 17 -110q31 -18 249 -19q59 0 60 -80v-196q0 -53 -23 -64q-31 -14 -227 -14q-39 0 -49 -37q-4 -12 -4 -67q0 -185 -1 -185t-1 6q4 -137 36.5 -152t84.5 -20q33 -4 41 -22q10 -27 10 -127q0 -31 4 -82q6 -59 6 -84v-8q0 -64 -33 -68 q-129 -12 -366 -12q-369 0 -379 53q-6 30 -6 162v72q0 115 43 133q39 8 77 18q43 29 43 166q0 219 -10 240q-14 29 -84.5 30.5t-77.5 28.5q-10 45 -10 141z" />
<glyph unicode="g" horiz-adv-x="1175" d="M8 362q0 102 49 177q33 49 93 92q49 35 49 41q0 10 -23.5 66.5t-23.5 99.5v5q0 183 141 304q70 59 156 78q59 14 174 14q39 0 98 64q88 98 113 116q80 63 170 64q74 0 126 -43t52 -119q0 -51 -34 -87t-85 -36q-76 0 -76 66q0 20 -29 20q-25 0 -60.5 -29.5t-37.5 -54.5 l10 -16q121 -74 162 -127q55 -74 55 -199q0 -162 -128 -272.5t-291 -110.5q-45 0 -122 24.5t-106 24.5q-84 -2 -84 -67q0 -37 42 -37h8q39 0 118.5 12t120.5 12q197 -2 361 -125q178 -135 178 -323q0 -240 -197 -416q-190 -168 -432 -168q-180 0 -336 96q-178 111 -178 281 q0 102 71.5 184t172.5 82q90 0 157 -39q78 -47 78 -129q0 -31 -20.5 -50t-20.5 -23q0 -23 33 -39q27 -12 49 -13q68 0 126 56.5t58 124.5t-49 108.5t-118 40.5q-31 0 -93.5 -8t-95.5 -8q-150 0 -256 67q-125 78 -125 219zM498 866q0 -49 43 -82.5t92 -33.5q129 0 129 104 l2 2q0 51 -44 82t-97 31q-51 0 -88 -27t-37 -76z" />
<glyph unicode="h" horiz-adv-x="1361" d="M10 1458q0 115 4 125q14 55 95 55q20 0 58 -4t56 -4q33 0 96.5 3t94.5 3q116 0 116 -156q0 -48 2 -138t3 -136q0 -51 12 -51l105 41q106 41 173 41q248 0 332 -193q53 -125 53 -409q0 -186 7 -227q4 -25 41.5 -33t48.5 -29q14 -30 14 -151l-2 2q0 -180 -41 -185 q-115 -12 -225 -12q-195 0 -185 0q-141 6 -151 45q-4 16 -8 43q0 18 6 55t6 56q0 18 -3 53t-3 49q0 57 50 85t52 36q4 25 4 78q0 150 -18 213q-37 123 -150 123q-57 0 -99 -39t-42 -97v-45q0 -172 14 -249q4 -23 57.5 -32t53.5 -69q0 -201 -19 -272q-8 -33 -49 -33 q-14 0 -45.5 4t-48.5 4q-16 0 -49 -4t-49 -4h-252q-104 0 -105 150q0 188 19 210q10 12 57 23q41 10 47 35q14 57 15 178q0 59 -4 166.5t-4 142.5q0 25 4 72t4 67v31q0 128 -31 152q-8 6 -57 12q-41 4 -47 29q-12 43 -13 190z" />
<glyph unicode="i" horiz-adv-x="724" d="M6 98v41q2 29 2 43q0 121 10 160q4 16 62.5 30.5t64.5 35.5q14 43 17 110q1 15 1 34q0 38 -3 91q-4 90 -4 115q0 63 -41 73q-49 14 -56 29q-12 31 -18 221v18q0 84 18 101q29 25 175 25h22q172 -2 199 -6q55 -10 67 -62q6 -33 6 -192q0 -539 27 -570q16 -18 51 -25.5 t45 -19.5q21 -21 21 -78v2q0 -18 -2 -49q-2 -37 -2 -47v-123q-4 -39 -33 -49t-133 -10l-400 -2q-96 0 -96 104zM121 1481q0 86 58.5 149.5t144.5 63.5q92 0 152.5 -59.5t60.5 -149.5l-2 -2q0 -98 -55.5 -159.5t-153.5 -61.5q-86 0 -145.5 66.5t-59.5 152.5z" />
<glyph unicode="j" horiz-adv-x="1093" d="M6 -31q0 156 70 260q80 119 229 119q100 0 168 -68.5t68 -168.5q-2 -164 -135 -166q-14 0 -9 -17q0 -27 23.5 -49t50.5 -22q190 2 191 374q0 41 -2.5 104.5t-2.5 80.5q-2 317 -2 346t-8 48t-69 21q-78 2 -107 15q-55 25 -55 98q2 158 6 180q20 104 110 105q20 0 61.5 -3 t63.5 -3q39 0 99 2h82q141 0 177 -56.5t36 -287.5l-2 -2q0 -37 -2.5 -120t-2.5 -126q0 -41 5 -168q4 -117 4 -191q0 -369 -88 -559q-123 -266 -430 -266q-352 0 -482 309q-47 113 -47 211zM608 1493q0 88 59.5 149.5t149.5 61.5q92 0 152.5 -58.5t60.5 -150.5h-2 q0 -98 -51 -159.5t-148 -61.5q-94 0 -157.5 61.5t-63.5 157.5z" />
<glyph unicode="k" horiz-adv-x="1353" d="M8 1319q0 188 12 237q18 63 89 76q29 4 229 4q150 0 180 -43q23 -33 23 -239q0 -76 -3 -197t-3 -137q0 -51 8 -51q10 0 145 114q143 121 174 136q18 8 45 6q51 -4 45 -4q31 0 93.5 5t91.5 5q37 0 47 -14.5t10 -51.5q0 -317 -49 -336q-23 -8 -62 -10q-27 0 -71 2 q-51 2 -64 2q-14 0 -58 -32.5t-44 -42.5q2 0 6 -5q59 -14 98 -30.5t90 -73.5q37 -39 64 -102q45 -104 47 -109q25 -47 70 -53q53 -4 67 -23q25 -29 25 -170v-2q0 -141 -39 -166q-22 -14 -149 -14h-33h-32q-86 0 -229 8q-33 4 -38 90q2 59 2 119q-2 78 -41 178 q-49 121 -113 121q-104 0 -104 -100q0 -14 12 -20.5t31 -10.5q27 -6 28 -6q39 -8 47 -62q4 -18 4 -86q0 -20 -8 -96q-10 -98 -12 -98q-14 -39 -88 -39q-16 0 -49 4t-49 4h-291q-100 0 -125 68q-10 28 -10 125v34q-1 10 -1 22q0 36 5 91q2 14 63.5 39t65.5 49q3 16 3 57 q0 20 -1 46q2 47 2 116t-2 160v-14q0 251 1 251l1 -36q-2 195 -26.5 205t-67.5 10q-33 0 -47.5 14t-14.5 76z" />
<glyph unicode="l" horiz-adv-x="755" d="M8 106v39q2 25 2 39q0 121 10 160q4 16 61.5 30.5t63.5 35.5q10 33 11 92v667q0 66 -39 78q-49 12 -56 27q-12 31 -18 225v17q0 82 18 98q30 24 184 24h13q172 -2 199 -6q55 -10 67 -65q4 -29 4 -195q0 -123 2 -346q4 -240 5 -348q0 -199 -2 -199l-1 2q8 -88 75 -106.5 t67 -100.5v2q0 -18 -2 -49q-2 -37 -2 -47v-123q-4 -41 -33 -50t-133 -9h-398q-98 0 -98 108z" />
<glyph unicode="m" horiz-adv-x="2031" d="M8 279q0 70 69.5 99.5t69.5 102.5q0 297 -4 336q-2 18 -47 24.5t-51 16.5q-18 27 -18 137q0 23 -4.5 65t-4.5 62q0 78 33 92q12 6 99 9q18 0 57 3t59 3h122h-1q86 -4 98 -31q31 -74 27 -74q8 0 39 32t39 36q109 55 229 55q123 0 193 -41q12 -8 63 -57q45 -47 51 -47 q4 0 60 37q66 45 123 71q86 37 164 37q205 0 303 -133q78 -102 94 -303q6 -61 6 -342q0 -78 31 -90q49 -18 53 -27q31 -44 31 -200q0 -90 -11 -111q-18 -41 -96 -41h-405q-102 0 -103 113q0 14 2 42.5t2 43.5q0 16 -3 46.5t-3 45.5q0 55 27 80q14 12 51 22q31 8 35 21 q6 20 6 223q0 66 -43 121t-107 55q-147 0 -149 -135q0 -16 5 -46t5 -44q0 -25 -4 -69t-4 -64q0 -39 29 -54q49 -25 51 -26q27 -25 27 -94q-2 -223 -20.5 -252t-70.5 -29h-383q-115 0 -114 102v201q0 57 45 83t47 34q8 53 8 106q0 131 -18 189q-33 106 -133 106 q-74 0 -115 -61q-31 -51 -33 -129q0 -16 -4 -53t-4 -58q0 -104 39 -131q33 -14 67 -29q37 -27 37 -133q0 -164 -10 -182q-25 -45 -168 -45q-29 0 -86 3t-86 3q-20 0 -61 -4t-64 -4q-123 0 -147 39q-14 25 -15 156q0 14 -3 42.5t-3 43.5z" />
<glyph unicode="n" horiz-adv-x="1361" d="M10 1049q0 115 4 125q14 55 95 55q20 0 58 -4t56 -4q33 0 98.5 4t98.5 4q49 0 78 -31q8 -8 17 -44t13 -36l45 33q53 37 107 57q76 33 151 33q240 0 326 -199q53 -129 53 -407q0 -186 7 -227q4 -25 41.5 -33t48.5 -29q14 -30 14 -151l-2 2q0 -180 -41 -185 q-115 -12 -227 -12q-193 0 -183 0q-141 6 -151 45q-4 16 -8 43q0 18 6 55t6 56q0 18 -3 53t-3 51q0 55 50 83t52 36q4 25 4 78q0 150 -18 213q-37 123 -150 123q-57 0 -98 -39t-41 -97q0 -231 12 -294q4 -23 57.5 -32t53.5 -71q0 -201 -19 -270q-8 -33 -49 -33 q-14 0 -45.5 4t-48.5 4q-16 0 -49 -4t-49 -4h-252q-104 0 -105 150q0 190 18.5 212.5t51.5 23.5t43 20q16 31 17 137q0 27 4 80t4 79q0 90 -31 115q-8 6 -57 12q-41 6 -47 29q-12 43 -13 191z" />
<glyph unicode="o" horiz-adv-x="1234" d="M2 621q0 260 156 434q162 182 417 182q260 0 435 -199q164 -188 164 -452q0 -258 -166 -429t-424 -171t-424 190q-158 182 -158 445zM340 590q0 -94 64.5 -172t158.5 -78q125 0 191 80q61 74 61 201l-2 2q0 86 -63 163q-70 80 -152 80q-119 0 -188.5 -78.5t-69.5 -197.5z " />
<glyph unicode="p" horiz-adv-x="1484" d="M6 -209q0 123 39 156q35 12 72 25.5t37 88.5q0 41 -4.5 121t-4.5 119q0 61 4.5 188t4.5 191q0 111 -35 133q-31 4 -63.5 12.5t-32.5 92.5q0 31 2 112v115q0 59 57 74q27 8 111 8q45 0 133 -2t131 -2q68 0 96.5 -50.5t38.5 -50.5q-2 0 -2 1q0 5 104 57q117 57 205 57 q238 0 399 -223q115 -158 115 -400q0 -246 -147 -426q-158 -190 -400 -192q-115 0 -223 57q-8 4 -33.5 27.5t-34.5 23.5q-12 0 -12 -61q0 -72 39 -86l70 -29q39 -37 39 -159q0 -117 -13 -144q-25 -47 -131 -47q-41 0 -155 -2q-67 -3 -116 -3q-24 0 -44 1q-88 0 -154 10 q-31 4 -45 10q-23 10 -28 33q-18 70 -19 164zM563 629q0 -86 58.5 -150.5t146.5 -64.5q86 0 143.5 60.5t57.5 148.5v-2q0 88 -58.5 150.5t-144.5 62.5q-88 0 -145.5 -58.5t-57.5 -146.5z" />
<glyph unicode="q" horiz-adv-x="1306" d="M2 598q0 272 165 459.5t433 187.5q291 0 438 -192q104 -137 142 -217q53 -113 53 -252q0 -205 -114.5 -365t-309.5 -221q35 -14 190 -115q121 -78 187 -78q92 0 168 50q43 27 106 90q47 47 68 47q33 0 51 -37q14 -29 14 -64q0 -207 -140 -347t-347 -140q-168 0 -305 102 q-18 14 -197 191q-104 100 -192 100q-53 0 -113.5 -41t-75.5 -41l-10 4q-16 16 -16 45q0 63 57 138q51 72 113 100q-176 78 -273 240q-92 156 -92 356zM358 580q0 -98 67 -178t163 -80q129 0 196 81q62 78 62 209h-2q0 88 -67.5 170t-155.5 82q-121 0 -192 -81t-71 -203z " />
<glyph unicode="r" horiz-adv-x="1206" d="M8 991v133q0 61 19.5 83t81.5 22q20 0 58 -4t56 -4q33 0 98.5 4t98.5 4q53 0 76 -35q10 -29 28 -59l102 56q103 56 187 56q143 0 242.5 -86t99.5 -227v-2q0 -127 -65 -219q-72 -104 -195 -105q-76 0 -141 43q-74 49 -74 121q0 47 22 86q12 16 25 35q0 6 -14 6 q-82 0 -139.5 -70.5t-57.5 -152.5q0 -184 14 -262q4 -27 43 -33q49 -8 64 -19q33 -25 33 -102q0 -125 -8 -162q-20 -98 -97 -98l-442 2q-103 0 -103 145v113q2 84 17 100q20 25 53 26t43 20q16 31 17 137q0 27 4 80t4 82q0 104 -39 118q-35 6 -72 13q-39 25 -39 155z" />
<glyph unicode="s" horiz-adv-x="993" d="M8 174q0 59 2 76l2 16l2 -10q0 -12 -2 -18q-4 106 -4 159q0 90 19 105q12 8 110 8h133q35 0 64 -51q49 -88 53 -94q41 -51 107 -52q53 0 53 58q0 43 -123 110q-166 88 -227 146q-123 113 -123 270q0 135 103.5 234.5t240.5 101.5q49 0 127 -33q41 -16 80 -33q2 0 28.5 30 t75.5 30h20q110 0 123 -21q29 -45 29 -258q0 -92 -4 -108q-14 -47 -80 -47h-112q-66 0 -102 63.5t-91 63.5t-55 -48q0 -43 129 -104q172 -80 237 -139q129 -113 129 -285q0 -162 -103.5 -264.5t-264.5 -104.5q-133 0 -193 41q-18 20 -51 43q-12 0 -66 -53q-12 -8 -178 -8 q-68 0 -84 57q-4 18 -4 119z" />
<glyph unicode="t" horiz-adv-x="1085" d="M2 1149q0 45 68 86q82 51 114 141q10 57 21.5 114.5t73.5 57.5q16 0 48.5 -2t51.5 -2q8 0 45 2q29 4 49 4q109 0 109 -82q0 -25 -3.5 -70.5t-3.5 -68.5q0 -74 17 -82q31 -16 268 -16q102 0 103 -123q0 -18 -2.5 -57t-2.5 -56q0 -4 3 -39q2 -23 0 -36q-4 -20 -17 -35 q-25 -29 -135 -29q-33 0 -88 3t-68 3q-49 0 -65.5 -11t-16.5 -58q0 -211 2 -234q10 -186 58 -186q39 0 47 47l16 94q16 49 72 49h182q37 0 47 -20q6 -13 6 -56q0 -260 -81 -370q-96 -131 -345 -131q-238 0 -327 159q-63 115 -64 357q0 41 2 118.5t2 112.5q0 84 -34 111 q-8 4 -74 20q-47 10 -62.5 55.5t-15.5 229.5z" />
<glyph unicode="u" horiz-adv-x="1251" d="M8 1157q0 39 18.5 53.5t284.5 16.5l197 2q72 0 72 -74q0 -37 -2.5 -110.5t-2.5 -113.5t-12 -53.5t-53 -13.5q-29 0 -29 -61q-1 -40 -1 -76q0 -208 20 -293q18 -76 123 -76q76 0 100 56q14 35 14 121q0 80 2 159q0 102 -16 156q-4 14 -31.5 14t-32.5 6q-15 24 -15 189 q0 37 1 80q0 59 19.5 74.5t66.5 15.5h191q127 -2 190 -2q78 0 84 -37q14 -80 14 -158q0 -92 -4 -112q-16 -63 -80 -64q-18 0 -18 -12q-4 -22 -4 -55q0 -22 2 -48q4 -98 4 -104q0 -33 2 -92v-84q0 -143 -35 -221q-45 -106 -172 -181q-113 -67 -260 -67h-4q-217 0 -319 51 q-137 68 -183 256q-4 16 -4 158q0 219 -24 381q-2 18 -39 19t-47.5 18.5t-14.5 52.5q-1 12 -1 28.5t1 36.5q4 51 4 62q0 18 -3 52t-3 50z" />
<glyph unicode="v" horiz-adv-x="1142" d="M8 1157q0 39 19.5 55.5t263.5 16.5q217 0 240.5 -16.5t23.5 -100.5v-82q-2 -53 -2 -80q0 -47 -36 -66.5t-36 -43.5q0 -57 94 -369q106 244 107 385q0 14 -24.5 18.5t-28.5 12.5q-18 31 -19 207q0 74 23 106q18 27 407 27q68 0 74 -33q8 -43 8 -244v-2q0 -61 -39 -82 q-49 -27 -51 -30q-27 -61 -135 -437q-90 -313 -152 -387q-10 -12 -313 -12q-27 0 -33 4q-18 8 -45 86q-16 51 -32 103q-27 66 -76 196q-27 100 -88 301q-20 43 -56 139q-4 16 -36.5 19.5t-40.5 17.5q-16 27 -17 291z" />
<glyph unicode="w" horiz-adv-x="1732" d="M8 1151q0 39 15 51q23 18 514 19q43 0 63 -15q29 -20 29 -252q0 -59 -46 -68t-46 -52q0 -27 14 -66l31 -104q0 -35 8 -35q18 14 74 178q70 207 104 287q66 151 118 151h1q72 0 213 -506q6 -20 26 -67q25 -55 35 -56q8 0 29 113q18 100 18 96q0 23 -46 44.5t-46 97.5 q0 182 25 215q31 45 200 45q166 0 197 -2q158 -8 164 -49q10 -60 10 -136q0 -176 -16 -186q-8 -6 -51 -10q-35 -4 -42.5 -22.5t-68.5 -231.5q-63 -221 -84 -285q-49 -158 -104 -276q-14 -31 -86 -31q-258 0 -285 14q-35 18 -73 175t-48 165l-6 2q-2 0 -8 -6 q-12 -25 -26.5 -83t-25.5 -83q-33 -78 -65 -157q-23 -25 -162 -25q-156 0 -186 16q-49 25 -133 390q-92 399 -111 432q-10 18 -52 22t-52 25q-18 33 -19 266z" />
<glyph unicode="x" horiz-adv-x="1234" d="M8 274q0 80 25 115q16 23 59 29q53 6 68 14q31 16 110.5 94t79.5 99q0 18 -94 121.5t-121 113.5q-6 2 -47 6q-29 2 -41 25q-16 31 -16 78q0 23 -2 61v53q0 76 26 105q35 39 131 39q317 0 330 -2q55 -10 57 -88q0 -18 5 -74q2 -47 2 -76q0 -27 -3.5 -38t-28 -15t-24.5 -21 q0 -12 37 -51t51 -39t40 33t26 47q0 18 -31 22.5t-31 37.5q0 31 4.5 91t4.5 89q0 86 90 86q16 0 49 -4t49 -4q29 0 86 4t86 4q104 0 141 -33q29 -27 29 -98q0 -16 -2 -61.5t-2 -73.5q0 -72 -21 -95q-14 -14 -55 -18q-51 -6 -82 -21q-14 -8 -71 -75q-20 -23 -41 -43 q-27 -33 -27 -47q0 -20 92 -130t119 -128q12 -8 44 -9.5t46 -11.5q39 -37 39 -215h-2q0 -109 -4 -123q-18 -49 -103 -49q-199 0 -303 6q-10 0 -41 -2q-29 -2 -43 0q-23 4 -34 18q-29 33 -29 197q0 70 14 90q2 4 25 19q16 10 16 18t-39 46t-49 38q-16 0 -51 -31.5t-35 -46.5 q0 -4 37 -26.5t37 -65.5q0 -160 -8 -184q-25 -76 -144 -76l-268 2q-111 0 -134.5 26.5t-23.5 147.5q0 16 -2 49t-2 51z" />
<glyph unicode="y" horiz-adv-x="1474" d="M-92 -295q0 281 282 281q70 0 111 -33q14 -12 41 -56l27 -44q16 0 57 73.5t41 96.5q0 53 -139 364q-131 293 -183 375q-33 53 -88 80q-35 16 -34 76q0 199 28.5 256t122.5 57q23 0 111 -5t153 -5q20 0 61.5 4t63.5 4q88 0 113 -90q8 -34 8 -125v-39q0 -53 -4 -72 q-6 -43 -29.5 -57.5t-48.5 -28.5q-37 -18 -37 -33q0 -27 62 -176q53 -133 78 -184q6 -16 14 -16q16 0 45 77q16 47 33 95q18 39 37 79q20 49 20 84q0 57 -51 67.5t-55 35.5q-7 36 -7 110v19q2 51 10.5 136t25 99.5t104.5 16.5q20 0 58 -6.5t58 -6.5q49 0 143.5 6.5 t139.5 6.5q98 0 123 -33q18 -25 18 -127q0 -23 -7 -64.5t-7 -64.5q0 -18 3 -53t3 -49q0 -59 -57 -80q-66 -23 -70 -33q-115 -254 -264 -545q-197 -385 -283 -506q-219 -303 -454 -303q-145 0 -258 94q-119 98 -119 242z" />
<glyph unicode="z" horiz-adv-x="1091" d="M8 94q0 219 25 244q219 215 469 473q2 2 4 6q0 16 -42 16q-25 0 -65 -6q-47 0 -51 -30q-6 -49 -12 -56q-26 -30 -181 -30h-10q-112 0 -112 203q0 36 3 88.5t3 68.5t-4 49t-4 49q0 49 75 60h117q53 0 492 -8h-3q0 1 119 6q16 1 29 1q58 0 80 -14q37 -20 45 -137v-162 q0 -53 -22 -79q-53 -63 -134 -168q-35 -45 -124 -140q-84 -86 -121 -139q-4 -4 -2 -6q0 -10 28 -10q70 0 92.5 16.5t22.5 77.5q0 45 82 45h166q78 0 78 -139v-252q1 -69 -23 -97q-22 -27 -80 -26h-8l-66 2h-681q-96 0 -121 6q-63 18 -64 88z" />
<glyph unicode="{" horiz-adv-x="688" d="M23 674q203 100 200 276q0 63 -33.5 187.5t-33.5 187.5q0 121 51 207q63 109 186 108q63 0 146.5 -54t83.5 -109q0 -29 -43 -35h-70q-125 0 -123 -205q0 -41 39 -168t39 -188q0 -143 -164 -207q158 -57 160 -205q0 -74 -34 -218.5t-34 -213.5q-2 -147 168 -148 q64 0 64 -41q0 -51 -68 -92t-127 -41q-123 2 -209 68.5t-86 175.5q0 63 33 192.5t33 196.5q0 133 -29 193q-35 72 -149 133z" />
<glyph unicode="|" horiz-adv-x="419" d="M53 25l2 786q0 96 4 358q4 233 4 357q0 86 7 100q14 35 86 35q88 0 116 -37q20 -27 21 -113q0 -80 -8.5 -236.5t-8.5 -234.5q0 -160 8.5 -480t8.5 -482q0 -84 -8 -172q-4 -37 -80 -37q-117 0 -137 29q-14 18 -15 127z" />
<glyph unicode="}" horiz-adv-x="647" d="M25 -152q0 43 63 43q168 2 168 146q0 72 -33 215t-33 217q0 147 158 205q-162 66 -162 207q0 61 39 188t39 168q0 205 -125 205h-67q-43 6 -43 33q0 55 82 110t147 55q123 0 186 -106q51 -86 52 -207q0 -63 -35 -187t-35 -188q0 -180 205 -278h-2q-115 -61 -152 -133 q-29 -59 -28 -193q0 -68 32.5 -198t32.5 -193q0 -109 -86 -176.5t-207 -67.5q-59 0 -125 41q-72 43 -71 94z" />
<glyph unicode="~" horiz-adv-x="954" d="M29 856q-2 76 110 137q96 51 183 51q63 0 149 -39.5t113 -39.5q43 0 80.5 32.5t56.5 32.5q20 0 75.5 -82.5t55.5 -105.5q0 -37 -98.5 -100.5t-141.5 -63.5q-59 0 -143 47t-115 47q-49 0 -102 -52t-70 -52q-20 0 -86.5 83t-66.5 105z" />
<glyph unicode="&#xa1;" horiz-adv-x="618" d="M2 1405q0 109 67.5 167t176.5 58q135 0 198.5 -59.5t63.5 -194.5l-2 2q0 -115 -66.5 -178t-181.5 -63q-121 0 -188.5 71.5t-67.5 196.5zM25 541q2 176 6 258q14 201 51 229q14 10 96 21q72 10 105 10l131 2q53 0 53 -57q0 -12 -3 -37t-3 -37q0 -49 16 -133 q20 -109 23 -135q26 -240 26 -295v2q0 -49 -10 -129q-20 -162 -24 -174q-16 -63 -69.5 -86t-193.5 -23q-201 0 -200 123q0 66 -2 229q-2 147 -2 232z" />
<glyph unicode="&#xa2;" horiz-adv-x="1024" d="M-4 864q0 248 186 428q25 25 70 54q63 39 74 47q20 14 20 159q0 68 60 84q18 4 116 4q80 0 96 -36q6 -14 7 -107q0 -66 6 -82q12 -35 61 -35q4 0 21.5 12.5t42.5 12.5q123 0 149.5 -10.5t26.5 -65.5q0 -8 -2 -49v-66q0 -39 8 -119.5t8 -121.5q0 -53 -20 -66 q-12 -8 -68 -8q-33 0 -90 4q-63 4 -91 4t-40 51q-20 70 -33 93q-35 49 -108 49q-158 0 -158 -283q0 -86 35 -139q41 -68 121 -68q78 0 112 41q20 27 29 82q8 49 20 55l66 9q164 0 193.5 -8.5t29.5 -77.5q0 -129 -63 -238q-70 -115 -187 -162q-27 -10 -26 -80 q0 -178 -15 -198q-23 -33 -182 -33q-72 0 -86 51q-6 18 -4 109q2 137 -29 145q-356 102 -356 559z" />
<glyph unicode="&#xa3;" horiz-adv-x="1458" d="M10 784q0 141 15 199q6 25 58 34t54 23.5t15 141.5q8 84 34 141q74 156 238 246q154 86 336 86q279 0 442 -115q191 -133 191 -401q0 -127 -82 -219.5t-209 -92.5q-104 0 -184 58q-88 63 -87 164q2 123 80 155q10 4 9 13q0 16 -41 32.5t-60 14.5q-78 0 -156.5 -68 t-78.5 -141q0 -57 80 -74q35 -8 127 -8q63 0 63 -180q0 -80 -20 -127q-8 -16 -35 -19q39 2 -41 2q-33 0 -39 -57v-90q0 -27 18 -29q80 -8 203 -4q193 6 205 6q135 0 162 -49q10 -18 12 -170q0 -16 2 -57t2 -64q0 -102 -66 -127q-31 -10 -159 -10q-88 0 -246 4q-174 6 -248 6 q-39 0 -112.5 -4t-108.5 -4q-207 0 -256 20q-33 14 -33 168q0 106 39 183q4 4 74 102q41 57 41 117q0 82 -103 82h-36q-25 -2 -37 -2q-61 0 -62 114z" />
<glyph unicode="&#xa4;" horiz-adv-x="870" d="M41 1610q-4 20 123 20q20 0 33 -12q25 -18 32 -35q80 43 172 43q94 0 172 -47q23 29 34 39t34 14q127 1 123 -22l-2 2q-2 -6 -45 -58q-29 -33 -43 -55q84 -98 86 -266q2 -147 -84 -234l14 -24q20 -23 45 -70q4 -20 -61 -20q-6 0 -21 2h-20h-17q-10 -2 -16 -2 q-8 0 -18.5 5t-16.5 19q-74 -35 -162 -35q-90 0 -159 41q-14 -20 -21.5 -25t-17.5 -5q-4 0 -23 2h-22q-25 0 -58 -4q-39 0 -34 20q4 14 22.5 37t24.5 35l14 33q-74 74 -74 247q0 133 78 242q-6 10 -47 57q-20 20 -45 56zM254 1239q0 -55 40 -102t97 -47q150 -1 150 167v3 q0 51 -40 99t-91 48q-70 0 -113 -48t-43 -120z" />
<glyph unicode="&#xa5;" horiz-adv-x="1292" d="M41 1507q0 68 16 92q23 33 86 33q49 0 148.5 -4t148.5 -4q23 0 67 5t66 5q49 0 62 -71q2 -16 2 -113q0 -31 -6 -71t-6 -70q0 -55 -40 -67.5t-40 -33.5q0 -18 63 -157l107 2q8 37 12 41q49 80 49 127q0 14 -39 17t-39 44q0 31 8.5 70t10.5 65q2 27 -2 74q-4 55 -4 74 q0 70 90 69q18 0 54 -3t50 -3q49 0 146.5 5t144.5 5q55 0 55 -104v2q0 -4 2 -109q2 -78 0 -127q-4 -66 -14 -95t-57 -31q-59 0 -77 -12.5t-69 -108.5h49q141 0 144 -84q0 -23 -7.5 -60t-7.5 -59q0 -41 -65 -49q-14 -2 -119 -2h-53q-41 -2 -66 -2q-12 -29 -37 -82 q152 -4 185 -4q106 0 138 -14.5t32 -73.5q0 -125 -25 -148q-12 -12 -135 -12h-244q2 -47 37 -57q29 -8 60 -17q31 -23 30 -96q0 -76 -2 -152q-6 -111 -39.5 -126t-492.5 -15q-96 0 -119 41q-14 25 -16 137q0 41 10 154q4 43 92 43q12 0 21 6q6 18 2 88h-48q-31 0 -102.5 -3 t-103.5 -3q-68 0 -84 51q-4 16 -4 84q0 92 36 102q31 10 131.5 19.5t139.5 5.5l24 -2q-14 41 -30 78h-13h-59q-39 -2 -57 -2q-121 0 -146.5 16t-25.5 94q0 16 5 50t5 52.5t22 24.5q39 10 152 15q-53 104 -80 129q-4 4 -53 4t-62 63q-4 20 -4 96q0 29 -5 83.5t-5 80.5z" />
<glyph unicode="&#xa6;" horiz-adv-x="397" d="M45 727q0 74 107 74q51 0 92 -20.5t39 -53.5q-4 -78 -4 -139q0 -66 7 -186.5t7 -229.5v2q0 -84 -8 -174q-4 -37 -80 -37q-117 0 -137 29q-14 18 -15 127q0 37 -4 163t-4 445zM57 911l6 615q0 86 7 100q14 35 86 35q88 0 116 -37q21 -27 21 -113q0 -80 -8.5 -283.5 t-8.5 -281.5q0 -57 -129 -57q-70 0 -90 22z" />
<glyph unicode="&#xa7;" horiz-adv-x="1243" d="M25 160q0 96 120 94q106 0 232 -12q27 -16 43 -76q23 -78 35 -98q31 -49 94 -50q45 0 82 29t37 72q0 84 -138 176q-213 141 -256 184q-137 137 -137 330q0 195 150 321q-156 135 -156 334q0 186 120 310t304 124q49 0 136 -29.5t104 -29.5q8 0 15 19.5t15 23.5q18 8 58 8 q209 0 221 -25.5t12 -70.5q0 -29 -6 -86t-6 -86q0 -31 5 -93.5t5 -94.5q0 -74 -67 -74q-12 0 -44 3t-51 3q-18 0 -55 -5t-55 -5q-12 0 -29 8q-31 53 -59 109q-37 55 -109 55q-29 0 -53.5 -24.5t-24.5 -53.5q0 -72 150 -158q203 -117 276 -198q150 -164 150 -420 q0 -164 -96 -283q102 -127 102 -287q0 -227 -100 -372q-115 -168 -332 -168q-82 0 -197 53l-114 53q-10 -2 -15 -6q-10 -8 -13 -30.5t-11 -28.5q-16 -14 -54 -13q-31 4 -59 7q-23 0 -62.5 -5.5t-58.5 -5.5q-78 0 -94 60q-6 18 -6 127q0 27 5 81t5 83q0 37 -9 109.5t-9 111.5 zM559 805q0 -55 103 -90q40 28 40 71q0 20 -37.5 61.5t-58.5 41.5l-12 -6q-2 -4 -23 -35q-12 -20 -12 -43z" />
<glyph unicode="&#xa8;" horiz-adv-x="899" d="M39 1466q0 72 52 122t124 50q82 0 132 -47t50 -129v2q0 -76 -53 -123t-129 -47q-74 0 -125 48.5t-51 123.5zM498 1466q0 74 51 124t125 50q80 0 132 -45t52 -125h-2q0 -74 -53 -125t-129 -51q-74 0 -125 49.5t-51 122.5z" />
<glyph unicode="&#xa9;" horiz-adv-x="833" d="M41 381q0 158 100.5 275.5t255.5 117.5q158 0 266.5 -126t108.5 -286v3q0 -160 -105.5 -262.5t-265.5 -102.5q-166 0 -263 106.5t-97 274.5zM137 389q0 -115 70 -201q74 -94 186 -94q111 0 194 75.5t83 186.5v2q0 141 -68 224q-74 88 -213 88q-113 0 -182.5 -83 t-69.5 -198zM203 397q0 78 49 146q55 76 129 73q49 0 82 -24q12 14 82 20l12 -10q2 -6 2 -20q0 -141 -10 -164h-78l-12 2q-8 -2 -15 8q-10 18 -18 39q-14 20 -39 20q-68 0 -68 -112q0 -115 74 -115q29 0 39 27.5t29 31.5q29 0 60.5 -3t31.5 -25q-2 -66 -49 -108t-113 -42 q-98 0 -147 82q-41 70 -41 174z" />
<glyph unicode="&#xaa;" horiz-adv-x="620" d="M39 1196q0 92 66.5 148.5t158.5 54.5q55 0 47 -2q10 0 13 6q0 31 -21.5 60.5t-50.5 29.5q-23 0 -23 -10q12 -18 11 -27q0 -57 -82 -57q-92 0 -90 88q0 74 67 117q57 37 133 36q147 0 226 -129q29 -47 35 -152.5t22 -135.5q10 -20 41 -23q20 -2 20 -41q0 -8 -2 -24.5 t-2 -26.5q0 -6 2 -20.5t2 -22.5h-2q0 -45 -168 -45q-35 0 -53 18q-4 16 -16 33q-4 0 -18.5 -16.5t-18.5 -18.5q-37 -25 -96 -24q-86 0 -143.5 50t-57.5 134zM213 1212q0 -53 57 -53q80 1 80 60q0 57 -63 57q-74 0 -74 -64z" />
<glyph unicode="&#xab;" horiz-adv-x="1087" d="M43 803q0 18 80 188q78 162 102 201q20 33 86 37q-12 0 105 0q147 0 147 -39q0 -25 -74.5 -184.5t-74.5 -192.5t78.5 -191.5t78.5 -195.5q0 -35 -125 -39q-168 -6 -195.5 11.5t-117.5 194.5t-90 210zM518 805q0 16 82 186q78 164 99.5 199t86.5 41q-14 -2 103 -2 q152 0 151 -39q0 -25 -75.5 -184.5t-75.5 -192.5t79 -191.5t79 -195.5h2q0 -35 -127 -39q-168 -6 -197 11.5t-118 193.5t-89 213z" />
<glyph unicode="&#xac;" horiz-adv-x="1423" d="M43 664q0 10 5 29.5t5 25.5q-2 18 -10 143q-2 16 37 21q29 4 100 2q111 -4 131 -4q35 0 117 -2q74 -2 107 -2q18 0 277 13t390 13q182 0 184.5 -20.5t2.5 -53.5q0 -41 -7 -178q-6 -117 -4 -151q5 -35 11 -103q6 -106 -62 -106q-8 0 -34.5 4t-35.5 2q-2 0 -73 -14 q-29 -2 -37 65q-4 29 -2 86q2 213 -33 207q-68 -12 -539 -6l-172 -19l-254 -4q-104 -2 -104 52z" />
<glyph unicode="&#xad;" horiz-adv-x="1019" d="M51 795q0 111 144 110q29 0 81 -4t72 -4q33 0 139.5 4t139.5 4q23 0 67.5 -4t67.5 -4q10 0 30.5 4t30.5 4q64 1 64 -114q0 -12 -3 -39t-3 -41q0 -8 3 -30t3 -32q0 -43 -38 -80t-75 -37l-643 -2q-57 0 -70 64q-4 18 -4 108q0 16 -3 47t-3 46z" />
<glyph unicode="&#xae;" horiz-adv-x="837" d="M41 381q0 158 100.5 275.5t255.5 117.5q156 0 271 -131q108 -125 108 -283q0 -156 -108.5 -258t-266.5 -102q-166 0 -263 106.5t-97 274.5zM135 387q0 -115 68 -201q76 -94 188 -94q113 0 197 74.5t84 185.5q0 143 -68 226q-76 90 -215 90q-113 0 -183.5 -83t-70.5 -198z M225 559q0 37 21 41q-10 -2 55 -2q250 0 250 -141q0 -59 -45 -97q12 -33 43 -88l14 2q10 0 23 -8q4 -14 4 -71v2q0 -2 -6 -21q-25 -2 -76 -2q-31 0 -51 64q-25 76 -35 86q-43 0 -64 -2l-2 -21l2 -37l19 -8q8 -10 8 -63q0 -20 -16 -21q-20 2 -127 2q-8 8 -9 78l3 12l20 6 q8 74 8 111q0 102 -6 117q-25 -2 -31 18q-2 8 -2 43zM350 426q0 -6 4 -18q10 -2 31 -2q66 0 66 53v-2q0 51 -80 51h-9q-6 -2 -8 -2q-4 -8 -4 -80z" />
<glyph unicode="&#xaf;" horiz-adv-x="876" d="M51 1505q0 111 144 111q29 0 81 -4t72 -4q33 0 139.5 4t139.5 4q23 0 67.5 -4t67.5 -4q10 0 30.5 4t30.5 4q64 0 64 -115q0 -12 -3 -38.5t-3 -41.5q0 -8 3 -29.5t3 -31.5q0 -43 -38 -80t-75 -37l-643 -2q-57 0 -70 64q-4 18 -4 108q0 16 -3 47t-3 45z" />
<glyph unicode="&#xb0;" horiz-adv-x="796" d="M53 1288q0 162 80 264q86 113 244 113q141 0 233 -95.5t92 -236.5t-101 -249.5t-241 -108.5q-127 0 -217 92t-90 221zM256 1325q0 -143 115 -141q49 0 82.5 39t33.5 88l2 -2q0 61 -28 106q-33 53 -92 53q-113 2 -113 -143z" />
<glyph unicode="&#xb1;" horiz-adv-x="1218" d="M41 965v161q0 68 119 68q20 0 55 -2t45 -2q23 0 68 3t68.5 3t23.5 27q0 43 -8.5 145t-8.5 143q0 72 134 72q20 0 61 -6t61 -6q14 0 40 3t38 3q53 0 54 -64q0 -18 -4.5 -76.5t-4.5 -78.5q0 -106 4 -125q8 -27 45 -27q8 0 42 2t61 2q10 0 46 2t56 2q142 1 142 -77v-2 q0 -266 -15 -271q-25 -8 -121 -10q-23 0 -81 -6t-84 -6q-6 0 -26 3t-32 1q-31 0 -31 -27q0 -14 4.5 -45t4.5 -47q0 -10 -3 -43t-3 -45q0 -16 3 -50t3 -50q0 -78 -72 -78q-203 0 -250 21.5t-47 123.5q0 20 2 87t2 116t-63 49q-41 0 -134.5 -7t-136.5 -7q-47 0 -57 121z M66 299q0 111 192 111q37 0 106.5 -4.5t96.5 -4.5q45 0 187.5 4.5t185.5 4.5q33 0 88 -4q63 -6 90 -7q14 0 41.5 4.5t42.5 4.5q82 0 82 -115h2q0 -14 -5.5 -40t-5.5 -38q0 -10 4.5 -30.5t4.5 -32.5q0 -43 -50.5 -80t-99.5 -37h-854q-76 0 -94 63q-4 14 -6 109q0 14 -4 45 t-4 47z" />
<glyph unicode="&#xb2;" horiz-adv-x="751" d="M49 1300q2 133 102.5 223.5t249.5 90.5q127 0 220 -66q100 -72 100 -182q0 -96 -78 -170q-43 -39 -145 -98q-78 -43 -78 -66q0 -18 39 -12q14 0 39.5 2t38 2t12.5 33q0 23 35 22q-68 -2 51 -2q4 0 72 6q37 0 43 -26q-2 6 -2 -51q0 -27 2 -84t2 -86v-2q0 -14 -9 -23 q-8 -16 -159 -16q-14 0 -43 2t-45 2t-48 -2t-49 -2h-280q-53 0 -58.5 9t-9.5 38q0 172 103 280q59 61 188 127q102 49 102 80q0 55 -63 55q-84 0 -80 -100q-2 -12 -6 -16t-111 -4q-10 0 -30.5 -3.5t-30.5 -3.5q-74 0 -74 43z" />
<glyph unicode="&#xb3;" horiz-adv-x="653" d="M41 1073q0 51 22 51h68q45 -2 68 -2q33 0 30 -8q0 -37 32 -70.5t69 -33.5q72 0 71 59q0 45 -43 57q-18 6 -77 7q-12 0 -18.5 5t-9.5 59t-1 69q-2 16 4 30q35 8 72 19q66 16 65 67q0 53 -69 52q-51 0 -72 -48.5t-45 -48.5q-20 0 -55 4q-41 4 -54.5 4.5t-31.5 10.5 q-10 10 -11 123q0 18 2 55t2 53q0 37 37 43h74q20 0 26.5 -15.5t12.5 -15.5q4 0 29 17q59 23 133 22q98 0 177 -59t79 -154q0 -68 -35 -127q-16 -27 -38 -39l-22 -12q0 -4 14 -12l13 -8q90 -63 90 -174q0 -113 -76.5 -183.5t-191.5 -70.5q-106 0 -143 10q-90 25 -143.5 96.5 t-53.5 167.5z" />
<glyph unicode="&#xb4;" horiz-adv-x="559" d="M61 1327q0 23 48 137q61 141 61 144q2 12 20 12h123q92 -2 121 -2q16 0 18.5 -7.5t6.5 -23.5v2q0 -37 -72 -147q-88 -133 -94 -146.5t-127 -13.5q-59 0 -68 2q-37 8 -37 43z" />
<glyph unicode="&#xb6;" horiz-adv-x="1400" d="M10 1055q0 143 119 319q158 236 862 232h150q117 -4 123 -25l18 -57q10 -31 4 -193q-6 -215 -6 -194q0 -14 8 -281q4 -188 0 -281q4 -87 2 -196q-4 -14 -6 -211q-2 -168 -24 -166q-96 6 -103 6q-25 0 -43 -6t-43 -6q-43 0 -72.5 30.5t-29.5 73.5q0 8 -6.5 195.5 t-6.5 196.5q0 2 4.5 35.5t2.5 33.5q-20 4 -109 8q4 -242 4 -366q0 -84 -8 -172q-4 -37 -141 -37q-121 0 -147.5 27.5t-24.5 128.5l6 421q-98 4 -121 11q-180 53 -291 172q-121 129 -121 301zM334 1044q0 -133 213 -165q4 241 4 362v-2q-217 -35 -217 -195zM846 872 q61 4 67 5q48 0 48 53v270q0 29 -7.5 33t-42.5 4q-6 0 -51 4z" />
<glyph unicode="&#xb7;" horiz-adv-x="677" d="M115 817q0 94 65.5 165t159.5 71q100 0 167.5 -68t67.5 -166q0 -111 -62 -178.5t-171 -67.5q-96 0 -161.5 73t-65.5 171z" />
<glyph unicode="&#xb8;" horiz-adv-x="935" d="M442 -403q0 33 22.5 83t53.5 50q20 0 67.5 -71t100.5 -71q90 0 90 84q0 43 -38 78t-81 33q-16 0 -36.5 -10.5t-26.5 -10.5q-66 0 -80 60q-2 12 -2 110v78q-2 29 32 70t77 45q88 8 124 -70q8 -18 9 -49q0 -41 0 -37q0 -39 22 -43q41 0 125 -22q139 -68 139 -246 q0 -115 -94 -207t-209 -92q-113 0 -198 61q-94 70 -97 177z" />
<glyph unicode="&#xb9;" horiz-adv-x="555" d="M31 1477q0 23 16 29.5t35 13.5q45 29 78 55q10 16 39 39q14 6 80 6q129 0 141 -2q20 -4 24 -37l-6 -61q0 -8 -2 -33v-35q0 -33 4 -94.5t4 -87.5q0 -18 -3 -55t-3 -56q0 -16 2 -52t2 -55.5t8.5 -22.5t36.5 -3q55 0 62 -31q8 -39 8 -137h2q0 -37 -8 -44t-51 -7 q-14 0 -47 -2t-50 -2q-20 0 -64 2t-67 2q-14 0 -42.5 -2t-43.5 -2q-92 0 -108.5 13t-16.5 91q0 10 2.5 27.5t2.5 26.5q0 6 -2.5 16t-2.5 14q0 23 58.5 30t66 17.5t2.5 32.5q0 29 -3 92.5t-3 98.5q0 8 2 29.5t2 33.5q0 33 -22 33q-14 0 -40 -4t-38 -4q-35 0 -42 12t-11 55 t-2 60z" />
<glyph unicode="&#xba;" horiz-adv-x="620" d="M41 1329q0 131 80 220t211 89q129 0 213 -97t84 -228l-2 -2q0 -129 -83 -214t-212 -85t-213 96q-78 90 -78 221zM209 1311q0 -47 32.5 -85t80.5 -38q124 0 124 139q0 43 -33.5 84t-76.5 41q-59 0 -93 -40t-34 -101z" />
<glyph unicode="&#xbb;" horiz-adv-x="1087" d="M41 426q0 37 79 195.5t79 191.5t-76 192.5t-76 184.5q0 39 152 39q104 0 102 0q63 -6 84 -39q23 -39 102 -201q82 -170 82 -186q0 -35 -90 -211t-119 -193q-10 -6 -192 -12q-127 -4 -127 39zM520 426q0 37 79 195.5t79 191.5t-76 192.5t-76 184.5q0 39 150 39 q109 0 102 0q66 -4 87.5 -40t99.5 -198q82 -170 82 -186q0 -33 -90.5 -211t-118.5 -195q-10 -6 -195 -12q-41 -2 -72 4q-51 8 -51 35z" />
<glyph unicode="&#xbc;" horiz-adv-x="1597" d="M31 1475q0 23 16 29.5t35 13.5q45 29 78 55q10 16 39 39q14 6 80 6q129 0 141 -2q20 -4 24 -37l-6 -61q0 -8 -2 -33v-35q0 -33 4 -94.5t4 -87.5q0 -18 -3 -55t-3 -56q0 -16 2 -52t2 -55.5t8.5 -22.5t36.5 -3q55 0 62 -31q8 -39 8 -137h2q0 -37 -8 -44t-51 -7 q-14 0 -47 -2t-50 -2q-20 0 -64 2t-67 2q-14 0 -42.5 -2t-43.5 -2q-92 0 -108.5 13t-16.5 91q0 10 2.5 27.5t2.5 25.5q0 6 -2.5 16.5t-2.5 14.5q0 23 58.5 30t66 17.5t2.5 32.5q0 29 -3 92.5t-3 98.5q0 8 2 29.5t2 33.5q0 33 -22 33q-14 0 -40 -4t-38 -4q-35 0 -42 12 t-11 55t-2 60zM182 35q0 35 25 82q25 37 47 76q125 213 358 641q33 72 105 219q16 25 47 77q14 45 47 134q27 66 90 178q72 129 107 162q27 25 71 24q106 0 125 -2q80 -8 80 -43q0 -25 -29 -63q-25 -29 -47 -60q-31 -45 -59 -123q-41 -104 -51 -125q-59 -96 -162 -292 q-51 -123 -162 -365q-33 -59 -96 -184q-35 -63 -105 -193q-29 -80 -84 -178q-14 -8 -36 -8q-12 0 -37 3t-39 3q-18 0 -51 -3t-50 -3q-94 0 -94 43zM805 442q0 37 113 154q76 76 151 152q27 41 66 88h67q25 0 94 2h97q29 0 30 -19q-2 16 -2 -35q0 -37 2 -153v-152 q0 -20 19 -22q-10 2 35 2q65 0 65 -43v-2q0 -162 -10 -166q-16 -4 -27 -4q-12 0 -36.5 4t-34.5 4q-39 0 -39 -27q0 -14 33.5 -18t41.5 -12q25 -23 27 -123q0 -39 -24 -47q-10 -4 -78 -5q-193 0 -328 3q-29 0 -35 32q-2 18 0 86q0 33 57.5 46.5t57.5 41.5q0 25 -31 29h-57 q-14 0 -41 -3t-39 -3q-2 0 -98 4q-16 -2 -47 4q-20 10 -25 62q2 -20 2 71q0 8 -3 24.5t-3 24.5zM1087 446q0 -4 13 -4q78 0 80 6.5t2 18.5v2q0 72 -11 92q0 2 -2 0q4 0 -28 -33q-53 -74 -54 -82z" />
<glyph unicode="&#xbd;" horiz-adv-x="1421" d="M31 1475q0 23 16 29.5t35 13.5q45 29 78 55q10 16 39 39q14 6 80 6q129 0 141 -2q20 -4 24 -37l-6 -61q0 -8 -2 -33v-35q0 -33 4 -94.5t4 -87.5q0 -18 -3 -55t-3 -56q0 -16 2 -52t2 -55.5t8.5 -22.5t36.5 -3q55 0 62 -31q8 -39 8 -137h2q0 -37 -8 -44t-51 -7 q-14 0 -47 -2t-50 -2q-20 0 -64 2t-67 2q-14 0 -42.5 -2t-43.5 -2q-92 0 -108.5 13t-16.5 91q0 10 2.5 27.5t2.5 25.5q0 6 -2.5 16.5t-2.5 14.5q0 23 58.5 30t66 17.5t2.5 32.5q0 29 -3 92.5t-3 98.5q0 8 2 29.5t2 33.5q0 33 -22 33q-14 0 -40 -4t-38 -4q-35 0 -42 12 t-11 55t-2 60zM182 35q0 35 25 82q25 37 47 76q125 213 358 641q33 72 105 219q16 25 47 77q14 45 47 134q27 66 90 178q72 129 107 162q27 25 71 24q106 0 125 -2q80 -8 80 -43q0 -25 -29 -63q-25 -29 -47 -60q-31 -45 -59 -123q-41 -104 -51 -125q-59 -96 -162 -292 q-51 -123 -162 -365q-33 -59 -96 -184q-35 -63 -105 -193q-29 -80 -84 -178q-14 -8 -36 -8q-12 0 -37 3t-39 3q-18 0 -51 -3t-50 -3q-94 0 -94 43zM840 526q2 133 102 224.5t248 91.5q127 0 219 -66q102 -72 102 -184q0 -96 -77 -170q-43 -41 -146 -96q-78 -45 -78 -66 q0 -14 39 -14q14 0 40 2t38 2t12 33q0 23 33 24q27 -2 53 -2q8 0 37 2q23 2 35 2q37 0 43 -26q-2 6 -2 -52q0 -27 2 -83t2 -85v-2q0 -14 -8 -24q-8 -16 -162 -17q-14 0 -43 2.5t-43 2.5q-16 0 -48 -2.5t-48 -2.5h-281q-53 0 -58 9.5t-9 38.5q0 172 102 280q59 61 189 127 q102 49 102 80q0 55 -64 55q-82 0 -81 -98q-2 -18 -3 -16q-16 -16 -112 -4q20 0 -62 -9q-74 0 -73 43z" />
<glyph unicode="&#xbe;" horiz-adv-x="1597" d="M41 1051q0 51 22 51h68q45 -2 68 -2q33 0 30 -8q0 -37 32 -71t69 -34q72 0 71 60q0 45 -43 57q-18 6 -77 6q-12 0 -18.5 5t-9.5 59.5t-1 68.5q-2 16 4 31q35 8 72 18q66 16 65 68q0 53 -69 51q-51 0 -72 -48t-45 -48q-20 0 -55 4q-41 4 -54.5 4t-31.5 10q-10 10 -11 123 q0 18 2 55t2 54q0 37 37 43h74q20 0 26.5 -15.5t12.5 -15.5q4 0 29 16q59 23 133 23q98 0 177 -59.5t79 -153.5q0 -68 -35 -127q-16 -27 -38 -39l-22 -12q0 -4 14 -13l13 -8q90 -63 90 -174q0 -113 -76.5 -183.5t-191.5 -70.5q-106 0 -143 10q-90 25 -143.5 96.5 t-53.5 168.5zM203 35q0 35 24 82q25 37 47 76q125 213 359 641q33 72 104 219q16 25 47 77q14 45 47 134q27 66 91 178q72 129 106 162q27 25 72 24q106 0 125 -2q80 -8 80 -43q0 -25 -29 -63q-25 -29 -47 -60q-31 -45 -60 -123q-41 -104 -51 -125q-59 -96 -162 -292 q-51 -123 -161 -365q-33 -59 -97 -184q-35 -63 -104 -193q-29 -80 -84 -178q-14 -8 -37 -8q-12 0 -36.5 3t-39.5 3q-18 0 -51 -3t-49 -3q-94 0 -94 43zM805 442q0 37 113 154q76 76 151 152q27 41 66 88h67q25 0 94 2h97q29 0 30 -19q-2 16 -2 -35q0 -37 2 -153v-152 q0 -20 19 -22q-10 2 35 2q65 0 65 -43v-2q0 -162 -10 -166q-16 -4 -27 -4q-12 0 -36.5 4t-34.5 4q-39 0 -39 -27q0 -14 33.5 -18t41.5 -12q25 -23 27 -123q0 -39 -24 -47q-10 -4 -78 -5q-193 0 -328 3q-29 0 -35 32q-2 18 0 86q0 33 57.5 46.5t57.5 41.5q0 25 -31 29h-57 q-14 0 -41 -3t-39 -3q-2 0 -98 4q-16 -2 -47 4q-20 10 -25 62q2 -20 2 71q0 8 -3 24.5t-3 24.5zM1085 446q0 -4 13 -4q78 0 80 6.5t2 18.5v2q0 72 -11 92q0 2 -2 0q4 0 -28 -33q-53 -74 -54 -82z" />
<glyph unicode="&#xbf;" horiz-adv-x="1193" d="M4 465q0 156 86 248q80 63 160 129q86 76 86 192q0 80 108 80q20 0 61.5 -5t61.5 -5q14 0 43 3t41 3q70 0 101 -16q41 -20 41 -84q0 -141 -88 -242q-31 -35 -160 -131q-88 -63 -88 -121q0 -55 43 -96t98 -41q25 0 72 19.5t47 37.5l-25 22q-26 23 -33 38q-12 29 -12 65 q0 98 63.5 158.5t161.5 60.5q123 0 197 -90q68 -86 68 -209q0 -207 -161 -356.5t-366 -149.5h-39q-244 0 -399 123q-168 131 -168 367zM330 1382q0 111 62.5 178.5t172.5 67.5q96 0 162 -73t64 -171h2q0 -94 -65.5 -164.5t-160.5 -70.5q-100 0 -168.5 67.5t-68.5 165.5z" />
<glyph unicode="&#xc0;" horiz-adv-x="1501" d="M10 66v143q0 133 13 151q2 4 50 32t74 67q51 78 99 280q33 154 63 308l-67 -3q-96 -2 -97 134q0 27 4.5 72.5t4.5 60.5q0 84 12 108q23 49 104 49q18 0 53 -4t52 -4q20 0 64 4t67 4q20 0 61 -2t62 -2q39 0 116.5 8.5t116.5 8.5q25 0 49.5 -13.5t38.5 -52.5q10 -31 21 -63 q47 -94 123 -285q10 -53 36 -162q25 -53 68 -162q10 -43 37 -131q20 -35 57 -106q2 -4 8 -43q4 -27 21 -37q31 -6 61 -14q43 -8 43 -47q7 -234 7 -277q0 -90 -150 -90q-29 0 -84 4t-74 4q8 0 -172 -4q-16 0 -48 -5t-48 -5q-68 0 -88 39q-10 23 -12 88q0 29 -7.5 90t-7.5 94 q0 63 99 78q-8 37 -17 72q-16 43 -57 43q-33 0 -86 -2q-70 -6 -86 -7q-37 -29 -37 -77q0 -51 61 -52q55 0 56 -61q0 -12 -4 -39t-4 -41q0 -25 2 -63.5t2 -53.5q0 -55 -27 -79.5t-111 -24.5q-23 0 -68.5 5t-70.5 5q-29 0 -92 -5t-96 -5q-111 0 -123 2q-74 12 -72 68z M369 1841q4 16 7 22.5t17 6.5q131 4 246 4q16 0 20 -10q86 -295 86 -303q0 -35 -34 -43q-8 -2 -66 -2q-123 0 -127 10q-43 80 -86 157q-61 119 -63 158zM608 727h150q10 0 10 12h-2q0 43 -23 117q-27 90 -57 90q-33 0 -57 -96q-20 -76 -21 -123z" />
<glyph unicode="&#xc1;" horiz-adv-x="1482" d="M8 68v143q0 133 12 151q2 4 50.5 32t74.5 67q51 78 99 280q33 154 63 308l-67 -2q-96 -2 -97 133q0 27 4.5 72.5t4.5 60.5q0 84 12 108q23 49 104 49q18 0 53 -4t52 -4q20 0 64 4t67 4q20 0 61 -2t62 -2q39 0 116.5 8.5t116.5 8.5q25 0 49.5 -13.5t38.5 -52.5 q10 -31 21 -63q47 -94 123 -285q10 -53 36 -162q25 -53 68 -162q10 -43 37 -131q20 -35 57 -106q2 -4 8 -43q4 -27 21 -37q31 -6 61 -14q43 -8 43 -47q7 -234 7 -277q0 -90 -150 -90q-29 0 -84 4t-74 4q8 0 -172 -4q-16 0 -48 -5t-48 -5q-68 0 -88 39q-10 23 -12 88 q0 29 -7.5 90t-7.5 94q0 63 99 78q-8 37 -17 72q-16 43 -57 43q-33 0 -86 -2q-70 -6 -86 -7q-37 -29 -37 -77q0 -51 61 -52q55 0 56 -61q0 -12 -4 -39t-4 -41q0 -25 2 -63.5t2 -53.5q0 -55 -27 -79.5t-111 -24.5q-23 0 -68.5 5t-70.5 5q-29 0 -92 -5t-96 -5q-111 0 -123 2 q-74 12 -72 68zM526 1556q0 23 47 138q61 141 62 143q2 12 18 12h123q92 -2 121 -2q16 0 19.5 -7t7.5 -23l-2 2q0 -37 -72 -148q-86 -129 -94 -149q-4 -10 -125 -11q-59 0 -68 2q-37 8 -37 43zM606 729h150q10 0 10 12h-2q0 43 -23 117q-27 90 -57 90q-33 0 -57 -96 q-20 -76 -21 -123z" />
<glyph unicode="&#xc2;" horiz-adv-x="1501" d="M10 66v143q0 133 13 151q2 4 50 32t74 67q51 78 99 280q33 154 63 308l-67 -3q-96 -2 -97 134q0 27 4.5 72.5t4.5 60.5q0 84 12 108q23 49 104 49q18 0 53 -4t52 -4q20 0 64 4t67 4q20 0 61 -2t62 -2q39 0 116.5 8.5t116.5 8.5q25 0 49.5 -13.5t38.5 -52.5q10 -31 21 -63 q47 -94 123 -285q10 -53 36 -162q25 -53 68 -162q10 -43 37 -131q20 -35 57 -106q2 -4 8 -43q4 -27 21 -37q31 -6 61 -14q43 -8 43 -47q7 -234 7 -277q0 -90 -150 -90q-29 0 -84 4t-74 4q8 0 -172 -4q-16 0 -48 -5t-48 -5q-68 0 -88 39q-10 23 -12 88q0 29 -7.5 90t-7.5 94 q0 63 99 78q-8 37 -17 72q-16 43 -57 43q-33 0 -86 -2q-70 -6 -86 -7q-37 -29 -37 -77q0 -51 61 -52q55 0 56 -61q0 -12 -4 -39t-4 -41q0 -25 2 -63.5t2 -53.5q0 -55 -27 -79.5t-111 -24.5q-23 0 -68.5 5t-70.5 5q-29 0 -92 -5t-96 -5q-111 0 -123 2q-74 12 -72 68z M258 1550q0 37 82 158q98 141 106 160q4 10 127 10q8 0 29 2h31q16 0 41 -4q123 0 127 -10q10 -20 106 -148q82 -110 82 -147q-2 -8 -3 -20.5t-3 -20.5t-16 -8q-143 -4 -228 -2q-6 0 -21.5 22.5t-17.5 30.5q-23 31 -75 119q-45 -68 -99 -160q-2 -12 -41 -12q-29 0 -90 2h-92 q-37 0 -37 10q-2 2 -8 18zM608 727h150q10 0 10 12h-2q0 43 -23 117q-27 90 -57 90q-33 0 -57 -96q-20 -76 -21 -123z" />
<glyph unicode="&#xc3;" horiz-adv-x="1501" d="M10 66v143q0 133 13 151q2 4 50 32t74 67q51 78 99 280q33 154 63 308l-67 -3q-96 -2 -97 134q0 27 4.5 72.5t4.5 60.5q0 84 12 108q23 49 104 49q18 0 53 -4t52 -4q20 0 64 4t67 4q20 0 61 -2t62 -2q39 0 116.5 8.5t116.5 8.5q25 0 49.5 -13.5t38.5 -52.5q10 -31 21 -63 q47 -94 123 -285q10 -53 36 -162q25 -53 68 -162q10 -43 37 -131q20 -35 57 -106q2 -4 8 -43q4 -27 21 -37q31 -6 61 -14q43 -8 43 -47q7 -234 7 -277q0 -90 -150 -90q-29 0 -84 4t-74 4q8 0 -172 -4q-16 0 -48 -5t-48 -5q-68 0 -88 39q-10 23 -12 88q0 29 -7.5 90t-7.5 94 q0 63 99 78q-8 37 -17 72q-16 43 -57 43q-33 0 -86 -2q-70 -6 -86 -7q-37 -29 -37 -77q0 -51 61 -52q55 0 56 -61q0 -12 -4 -39t-4 -41q0 -25 2 -63.5t2 -53.5q0 -55 -27 -79.5t-111 -24.5q-23 0 -68.5 5t-70.5 5q-29 0 -92 -5t-96 -5q-111 0 -123 2q-74 12 -72 68z M217 1686q0 76 111 137q96 51 180 51q63 0 149 -40t115 -40q43 0 81 33t54 33q20 0 75.5 -83t55.5 -106q0 -37 -98 -100.5t-139 -63.5q-59 0 -143.5 47.5t-114.5 47.5q-49 0 -103.5 -52.5t-70.5 -52.5q-20 0 -86 83t-66 106zM608 727h150q10 0 10 12h-2q0 43 -23 117 q-27 90 -57 90q-33 0 -57 -96q-20 -76 -21 -123z" />
<glyph unicode="&#xc4;" horiz-adv-x="1501" d="M8 68v143q0 133 12 151q2 4 50.5 32t74.5 67q51 78 99 280q33 154 63 308l-67 -2q-96 -2 -97 133q0 27 4.5 72.5t4.5 60.5q0 84 12 108q23 49 104 49q18 0 53 -4t52 -4q20 0 64 4t67 4q20 0 61 -2t62 -2q39 0 116.5 8.5t116.5 8.5q25 0 49.5 -13.5t38.5 -52.5 q10 -31 21 -63q47 -94 123 -285q10 -53 36 -162q25 -53 68 -162q10 -43 37 -131q20 -35 57 -106q2 -4 8 -43q4 -27 21 -37q31 -6 61 -14q43 -8 43 -47q7 -234 7 -277q0 -90 -150 -90q-29 0 -84 4t-74 4q8 0 -172 -4q-16 0 -48 -5t-48 -5q-68 0 -88 39q-10 23 -12 88 q0 29 -7.5 90t-7.5 94q0 63 99 78q-8 37 -17 72q-16 43 -57 43q-33 0 -86 -2q-70 -6 -86 -7q-37 -29 -37 -77q0 -51 61 -52q55 0 56 -61q0 -12 -4 -39t-4 -41q0 -25 2 -63.5t2 -53.5q0 -55 -27 -79.5t-111 -24.5q-23 0 -68.5 5t-70.5 5q-29 0 -92 -5t-96 -5q-111 0 -123 2 q-74 12 -72 68zM154 1694q0 72 52 122t124 50q82 0 132 -47t50 -129v2q0 -76 -53 -123t-129 -47q-74 0 -125 48t-51 124zM606 729h150q10 0 10 12h-2q0 43 -23 117q-27 90 -57 90q-33 0 -57 -96q-20 -76 -21 -123zM612 1694q0 74 51.5 124t124.5 50q80 0 132.5 -45 t52.5 -125h-2q0 -74 -53.5 -125t-129.5 -51q-74 0 -125 49t-51 123z" />
<glyph unicode="&#xc5;" horiz-adv-x="1501" d="M10 63v144q0 133 13 151q2 4 50 32t74 67q51 78 99 280q33 154 63 307h-67q-96 0 -97 134q0 27 4.5 71.5t4.5 59.5q0 84 12 108q23 49 104 49q18 0 53 -4t52 -4q20 0 64 4t67 4q20 0 61 -2t62 -2q39 0 116.5 8.5t116.5 8.5q25 0 49.5 -13.5t38.5 -52.5q10 -31 21 -63 q47 -94 123 -285q10 -53 36 -162q25 -53 68 -162q10 -43 37 -131q20 -35 57 -106q2 -4 8 -43q4 -27 21 -37q31 -6 61 -14q43 -8 43 -48q7 -233 7 -276q0 -90 -150 -90q-29 0 -84 4t-74 4q8 0 -172 -4q-16 0 -48 -5t-48 -5q-68 0 -88 39q-10 23 -12 88q0 29 -7.5 90t-7.5 94 q0 63 99 78q-8 37 -17 72q-16 43 -57 43q-33 0 -86 -2q-70 -6 -86 -7q-37 -29 -37 -77q0 -51 61 -52q55 0 56 -61q0 -12 -4 -39t-4 -41q0 -25 2 -63.5t2 -53.5q0 -55 -27 -79.5t-111 -24.5q-23 0 -68.5 5t-70.5 5q-29 0 -92 -5t-96 -5q-111 0 -123 2q-74 12 -72 67z M236 1835q0 141 95 232.5t236 91.5t250 -101.5t109 -238.5v-2q0 -127 -92.5 -217.5t-221.5 -90.5q-162 0 -264 80q-113 86 -112 246zM432 1823q0 -113 141 -113q144 0 144 117q0 49 -39 83t-88 34q-61 0 -107 -29q-51 -33 -51 -92zM608 725h150q10 0 10 12h-2q0 43 -23 117 q-27 90 -57 90q-33 0 -57 -96q-20 -76 -21 -123z" />
<glyph unicode="&#xc6;" horiz-adv-x="2086" d="M8 72q12 80 25 159q25 150 39 170q2 4 55 34t86 75q63 84 143 311q55 170 111 342l-68 -2q-78 -2 -77 94q0 41 12 107l20 94q14 94 29 121q29 53 111 53q16 0 51 -4t53 -4q23 0 67 5t64 5q18 0 59 -2t64 -2q37 0 117 8.5t121 8.5q23 0 43 -11q4 -4 4 -8q57 -4 86 -4 q98 0 292.5 5t290.5 5q104 0 125 -12q31 -20 31 -117q0 -63 2 -172q4 -127 4 -174q0 -61 -24 -76q-14 -10 -82 -10q-25 0 -75 -8t-75 -8q-84 0 -100 30q-6 12 -8 113q-84 6 -152 8q-25 0 -41 -16t-16 -37v-154q0 -27 53 -26q14 0 82.5 4t83.5 4q66 0 65 -86q0 -31 -3 -95.5 t-3 -97.5q0 -55 -49 -67q-14 -4 -98 -4q-18 0 -56 -6q-43 -10 -43 -21l-2 -188q0 -27 88 -27q92 0 111 31q12 20 12 69q0 72 52 72h118q78 -2 117 -2q61 0 72.5 -14t11.5 -80v2q0 -31 -4 -94.5t-4 -96.5q0 -25 4 -73.5t4 -71.5q0 -86 -28.5 -109.5t-112.5 -23.5q-23 0 -70 5 t-72 5q-27 0 -83 -5t-85 -5q-76 0 -227 4q-25 -4 -178 4h-92h-15q-14 0 -38.5 -4t-34.5 -4t-25 6l-2 -2q-16 0 -49 -5t-51 -5q-84 0 -84 71q0 18 8 70q2 70 12 205q6 45 39 65q20 10 74 21q-4 39 -6 80q-10 45 -51 45q-33 0 -172 -10q-43 -33 -52 -82q-8 -59 54 -60 q55 0 47 -67q-8 -29 -23 -88l-16 -136q-8 -59 -37 -81q-33 -29 -115 -29q-23 0 -67.5 6t-69.5 6q-31 0 -93.5 -5t-94.5 -5q-61 0 -123 2q-76 10 -66 72zM715 811l147 -2q11 0 15 14v2q6 45 -5 127q-12 100 -47 101q-33 0 -73 -107q-33 -88 -37 -135z" />
<glyph unicode="&#xc7;" horiz-adv-x="1302" d="M2 856q0 276 168 518q186 264 451 264q76 0 184 -43q102 -41 98 -43q6 0 36 33t69 33q12 0 34.5 -4t32.5 -4q18 0 55 3t54 3q57 0 57 -96q0 -39 -8 -118t-8 -120q0 -37 8 -109.5t8 -109.5q0 -119 -31 -123q-12 -2 -43 -2q-23 0 -69.5 3t-71.5 3q-18 0 -55 -5t-53 -5 q-68 0 -99 57q-25 51 -51 105q-37 57 -119 57q-109 0 -166 -141q-45 -109 -45 -236q0 -131 49 -223q61 -117 181 -117q74 0 108 51q8 12 37 93q18 51 53 51q23 0 69 -8.5t71 -8.5t74.5 6.5t76.5 6.5q61 0 62 -115q0 -109 -53.5 -216.5t-137.5 -178.5q-70 -57 -114 -77 t-134 -30q-25 -2 -20 -41q0 -39 22 -43q41 0 125 -22q139 -68 140 -246q0 -115 -94.5 -207t-209.5 -92q-113 0 -198 61q-94 70 -94 177q0 33 22.5 83t50.5 50q20 0 67.5 -71t100.5 -71q90 0 90 84q0 43 -37.5 78t-80.5 33q-16 0 -37 -10.5t-27 -10.5q-66 0 -80 60 q-2 12 -2 110q0 51 -18 78q-68 37 -133 74q-137 78 -215 186q-150 211 -150 586z" />
<glyph unicode="&#xc8;" horiz-adv-x="1198" d="M8 1171q0 14 5 40t7 36q4 29 0 78q-6 63 -6 78q-2 72 140 72q29 0 89 -6.5t91 -6.5q104 0 293 4q203 6 291 7q102 0 124 -11q31 -18 31 -106q0 -57 2 -156q4 -115 4 -156q0 -55 -24 -69q-14 -8 -82 -8q-25 0 -75 -7.5t-75 -7.5q-84 0 -100 27q-6 12 -8 100q-86 6 -90 6 q-37 0 -37 -47l-2 -153q0 -25 55 -25q14 0 42 4t42 4q41 0 53.5 -11t12.5 -52q0 -27 -3.5 -84t-3.5 -86q0 -51 -28 -62q-8 -4 -78 -4q-57 0 -57 -24l-3 -168q0 -25 46 -25q68 0 74.5 10.5t9.5 81.5q2 61 51 62q117 -2 235 -2q61 0 72.5 -12.5t11.5 -69.5q0 -29 -4 -86 t-4 -84q0 -23 4 -67t4 -66q0 -76 -27.5 -97.5t-113.5 -23.5q-25 0 -72 5t-69 5q-27 0 -82.5 -3t-83.5 -3l-504 6q-14 0 -43 -3t-43 -3q-61 0 -62 45q0 109 7 330q2 47 88 47q41 0 47 84q-2 55 -2 110q0 14 6 173q4 104 0 172l-2 30q-2 23 -25 29h-41q-18 2 -30 6 q-57 25 -58 143zM268 1804q4 16 7.5 22.5t17.5 6.5q131 4 248 4q16 0 19 -12.5t58 -143.5q48 -116 48 -139v2q0 -35 -35 -43q-8 -2 -66 -2q-123 0 -129 13.5t-94 144.5q-72 111 -74 147z" />
<glyph unicode="&#xc9;" horiz-adv-x="1198" d="M8 1171q0 14 5 40t7 36q4 29 0 78q-6 63 -6 78q-2 72 140 72q29 0 89 -6.5t91 -6.5q104 0 293 4q203 6 291 7q102 0 124 -11q31 -18 31 -106q0 -57 2 -156q4 -115 4 -156q0 -55 -24 -69q-14 -8 -82 -8q-25 0 -75 -7.5t-75 -7.5q-84 0 -100 27q-6 12 -8 100q-86 6 -90 6 q-37 0 -37 -47l-2 -153q0 -25 55 -25q14 0 42 4t42 4q41 0 53.5 -11t12.5 -52q0 -27 -3.5 -84t-3.5 -86q0 -51 -28 -62q-8 -4 -78 -4q-57 0 -57 -24l-3 -168q0 -25 46 -25q68 0 74.5 10.5t9.5 81.5q2 61 51 62q117 -2 235 -2q61 0 72.5 -12.5t11.5 -69.5q0 -29 -4 -86 t-4 -84q0 -23 4 -67t4 -66q0 -76 -27.5 -97.5t-113.5 -23.5q-25 0 -72 5t-69 5q-27 0 -82.5 -3t-83.5 -3l-504 6q-14 0 -43 -3t-43 -3q-61 0 -62 45q0 109 7 330q2 47 88 47q41 0 47 84q-2 55 -2 110q0 14 6 173q4 104 0 172l-2 30q-2 23 -25 29h-41q-18 2 -30 6 q-57 25 -58 143zM424 1554q0 23 47 138q61 141 61 143q2 12 21 12h123q92 -2 121 -2q16 0 18 -7t6 -23v2q0 -37 -71 -148q-88 -133 -94.5 -146.5t-127.5 -13.5q-59 0 -67 2q-37 8 -37 43z" />
<glyph unicode="&#xca;" horiz-adv-x="1198" d="M10 1169q0 14 5 40t8 36q4 29 0 78q-6 63 -7 78q-2 72 140 72q29 0 89 -6.5t91 -6.5q104 0 293 4q203 6 291 6q102 0 124 -10q31 -18 31 -106q0 -57 2 -156q4 -115 4 -156q0 -55 -24 -69q-14 -8 -82 -8q-25 0 -75 -7.5t-75 -7.5q-84 0 -100 27q-6 12 -8 100q-86 6 -90 6 q-37 0 -37 -47l-2 -153q0 -25 55 -25q14 0 42 4t42 4q41 0 53.5 -11t12.5 -52q0 -27 -3.5 -84t-3.5 -86q0 -51 -28 -62q-8 -4 -78 -4q-57 0 -57 -24l-2 -168q0 -25 45 -25q68 0 75 10.5t9 81.5q2 61 51 62q117 -2 235 -2q61 0 72.5 -12.5t11.5 -69.5q0 -29 -4 -86.5 t-4 -83.5q0 -23 4 -67t4 -66q0 -76 -27.5 -97.5t-113.5 -23.5q-25 0 -72 5t-69 5q-27 0 -82.5 -3t-83.5 -3l-504 6q-14 0 -43 -3t-43 -3q-61 0 -62 45q0 109 7 330q2 47 88 47q41 0 47 84q-2 55 -2 110q0 14 6 172q4 104 0 173l-2 30q-2 23 -25 29h-41q-18 2 -30 6 q-57 25 -58 143zM186 1544q0 37 82 158q96 139 105 160q4 10 127 10q8 0 28 2h31q16 0 41 -4q123 0 127 -10q10 -20 107 -148q81 -110 81 -147h3q-6 -39 -9 -41q-2 -8 -16 -8q-143 -4 -225 -3q-6 0 -22.5 23t-18.5 31q-23 31 -74 119q-45 -68 -100 -160q-2 -12 -39 -13 q-29 0 -90 3h-93q-37 0 -38 10q-8 8 -7 18z" />
<glyph unicode="&#xcb;" horiz-adv-x="1198" d="M8 1171q0 14 5 40t7 36q4 29 0 78q-6 63 -6 78q-2 72 140 72q29 0 89 -6.5t91 -6.5q104 0 293 4q203 6 291 7q102 0 124 -11q31 -18 31 -106q0 -57 2 -156q4 -115 4 -156q0 -55 -24 -69q-14 -8 -82 -8q-25 0 -75 -7.5t-75 -7.5q-84 0 -100 27q-6 12 -8 100q-86 6 -90 6 q-37 0 -37 -47l-2 -153q0 -25 55 -25q14 0 42 4t42 4q41 0 53.5 -11t12.5 -52q0 -27 -3.5 -84t-3.5 -86q0 -51 -28 -62q-8 -4 -78 -4q-57 0 -57 -24l-3 -168q0 -25 46 -25q68 0 74.5 10.5t9.5 81.5q2 61 51 62q117 -2 235 -2q61 0 72.5 -12.5t11.5 -69.5q0 -29 -4 -86 t-4 -84q0 -23 4 -67t4 -66q0 -76 -27.5 -97.5t-113.5 -23.5q-25 0 -72 5t-69 5q-27 0 -82.5 -3t-83.5 -3l-504 6q-14 0 -43 -3t-43 -3q-61 0 -62 45q0 109 7 330q2 47 88 47q41 0 47 84q-2 55 -2 110q0 14 6 173q4 104 0 172l-2 30q-2 23 -25 29h-41q-18 2 -30 6 q-57 25 -58 143zM123 1675q0 72 52 122t126 50q82 0 132 -47t50 -129v2q0 -76 -53 -123t-131 -47q-74 0 -125 48t-51 124zM582 1675q0 74 51 124t123 50q80 0 132 -45t52 -125q0 -76 -53 -126t-131 -50q-74 0 -124 49.5t-50 122.5z" />
<glyph unicode="&#xcc;" horiz-adv-x="917" d="M8 322q0 57 45 73q23 8 103 8q45 0 45 97q0 27 -4 71.5t-4 53.5q0 49 4 144t4 142q0 78 -23 101q-12 14 -49 14t-52.5 16.5t-19.5 55.5q-2 27 0 71q4 55 4 58q0 27 -12 78t-12 77q0 80 184 80q37 0 95.5 -3t72.5 -3q37 0 107.5 5t105.5 5q158 0 158 -71q0 -23 -5 -68 t-5 -65q0 -25 5 -76t5 -78q0 -68 -62 -68h-18h-18q-31 0 -31 -22v-68q0 -31 7 -93t7 -95q0 -39 -7 -120t-7 -122q0 -96 53 -119q49 -6 100.5 -13.5t51.5 -68.5q0 -20 -7.5 -61t-7.5 -61q0 -23 3 -64t3 -59q0 -51 -27.5 -57.5t-70.5 -8.5q-29 0 -80 2q-57 2 -76 2 q-63 0 -196 -3t-203 -3q-100 0 -131 16.5t-31 61.5q0 12 3 52t3 69q0 20 -5 59t-5 58zM160 1804q2 4 3 10.5t3 12.5t16 6q131 4 248 4q16 0 20.5 -12.5t59.5 -143.5q47 -116 47 -139v2q0 -35 -35 -43q-8 -2 -65 -2q-125 0 -129 10.5t-97 147.5q-72 111 -71 147z" />
<glyph unicode="&#xcd;" horiz-adv-x="917" d="M8 322q0 57 45 73q23 8 103 8q45 0 45 97q0 27 -4 71.5t-4 53.5q0 49 4 144t4 142q0 78 -23 101q-12 14 -49 14t-52.5 16.5t-19.5 55.5q-2 27 0 71q4 55 4 58q0 27 -12 78t-12 77q0 80 184 80q37 0 95.5 -3t72.5 -3q37 0 107.5 5t105.5 5q158 0 158 -71q0 -23 -5 -68 t-5 -65q0 -25 5 -76t5 -78q0 -68 -62 -68h-18h-18q-31 0 -31 -22v-68q0 -31 7 -93t7 -95q0 -39 -7 -120t-7 -122q0 -96 53 -119q49 -6 100.5 -13.5t51.5 -68.5q0 -20 -7.5 -61t-7.5 -61q0 -23 3 -64t3 -59q0 -51 -27.5 -57.5t-70.5 -8.5q-29 0 -80 2q-57 2 -76 2 q-63 0 -196 -3t-203 -3q-100 0 -131 16.5t-31 61.5q0 12 3 52t3 69q0 20 -5 59t-5 58zM250 1534q0 20 47 137q55 131 58 143.5t22 12.5h123q92 -2 121 -2q16 0 18 -7.5t6 -23.5v2q0 -37 -72 -147q-88 -133 -94 -146.5t-127 -13.5q-57 0 -65 2q-37 8 -37 43z" />
<glyph unicode="&#xce;" horiz-adv-x="917" d="M10 319q0 57 45 74q23 8 103 8q45 0 45 97q0 27 -4 71.5t-4 53.5q0 49 4 144t4 142q0 78 -23 101q-12 14 -49 14t-52.5 16.5t-19.5 55.5q-2 27 0 71q4 55 4 58q0 27 -12 78t-12 77q0 80 184 80q37 0 95.5 -3t72.5 -3q37 0 107.5 5t105.5 5q158 0 158 -71q0 -23 -5 -68 t-5 -65q0 -25 5 -76t5 -78q0 -68 -62 -68h-18h-18q-31 0 -31 -22v-68q0 -31 7 -93t7 -95q0 -39 -7 -120t-7 -122q0 -96 53 -119q49 -6 100.5 -13.5t51.5 -68.5q0 -20 -7.5 -61t-7.5 -61q0 -23 3 -64t3 -59q0 -51 -27.5 -57.5t-70.5 -8.5q-29 0 -80 2q-57 2 -76 2 q-63 0 -196 -3t-203 -3q-100 0 -131 16.5t-31 61.5q0 12 3 52t3 69q0 20 -5 59t-5 57zM20 1524q0 37 82 157q96 139 105 160q4 10 127 10q8 0 28 2h31q16 0 41 -4q123 0 127 -10q10 -20 107 -147q82 -111 82 -148h2q-6 -39 -9 -41q-2 -8 -16 -8q-143 -4 -225 -2 q-6 0 -22.5 22.5t-18.5 30.5q-23 31 -76 119q-45 -68 -98 -160q-2 -12 -39 -12q-29 0 -90 2h-92q-37 0 -39 10q-8 8 -7 19z" />
<glyph unicode="&#xcf;" horiz-adv-x="917" d="M8 322q0 57 45 73q23 8 103 8q45 0 45 97q0 27 -4 71.5t-4 53.5q0 49 4 144t4 142q0 78 -23 101q-12 14 -49 14t-52.5 16.5t-19.5 55.5q-2 27 0 71q4 55 4 58q0 27 -12 78t-12 77q0 80 184 80q37 0 95.5 -3t72.5 -3q37 0 107.5 5t105.5 5q158 0 158 -71q0 -23 -5 -68 t-5 -65q0 -25 5 -76t5 -78q0 -68 -62 -68h-18h-18q-31 0 -31 -22v-68q0 -31 7 -93t7 -95q0 -39 -7 -120t-7 -122q0 -96 53 -119q49 -6 100.5 -13.5t51.5 -68.5q0 -20 -7.5 -61t-7.5 -61q0 -23 3 -64t3 -59q0 -51 -27.5 -57.5t-70.5 -8.5q-29 0 -80 2q-57 2 -76 2 q-63 0 -196 -3t-203 -3q-100 0 -131 16.5t-31 61.5q0 12 3 52t3 69q0 20 -5 59t-5 58zM10 1663q0 72 52.5 122t123.5 50q82 0 132.5 -47t50.5 -129v2q0 -76 -53.5 -123t-129.5 -47q-74 0 -125 48t-51 124zM467 1663q0 74 50 124t124 50q80 0 132 -45t52 -125q0 -74 -53 -125 t-129 -51q-74 0 -125 49t-51 123z" />
<glyph unicode="&#xd1;" horiz-adv-x="1519" d="M14 1044q0 33 2 136v137q0 16 5.5 47t5.5 47q0 47 73 53q-10 0 111 0q33 0 96.5 4.5t93.5 4.5h39q55 0 133 -121q49 -84 101 -168q43 -68 139 -197q6 -6 36 -64.5t36 -58.5q10 0 10 23l2 170q0 29 -18 33q2 0 -48 0q-76 0 -75 53q0 12 4 34.5t4 32.5q0 18 -6 53t-6 52 q0 152 67 151q45 0 135 -3t136 -3q39 0 115.5 4t115.5 4q72 0 88 -10q25 -14 25 -74q0 -49 -4.5 -147t-4.5 -149.5t-98 -51.5q-23 0 -24 -12q-16 -190 -17 -510q0 -43 35 -51q4 -2 74 0q33 0 41 -25q4 -10 4 -51q0 -53 -5 -160.5t-5 -158.5q0 -68 -99 -68q-20 0 -63 3t-66 3 t-70 -3t-71 -3q-61 0 -76 20q-100 170 -317 506q-20 35 -41 70q-35 57 -47 55q-14 0 -15 -67v-111q0 -37 12.5 -44t47.5 -7q25 -2 32 -14q20 -29 23 -78q-2 31 -2 -84q0 -31 10 -91.5t10 -91.5q0 -63 -73 -63q-16 0 -52 4t-51 4q-25 0 -73 -4t-72 -4q-20 0 -63.5 4t-65.5 4 q-27 0 -80 -4t-82 -4q-57 0 -57 172v64q2 37 2 43q0 88 6 127q2 10 56 19t59 28q6 31 6 86v376q0 63 -17.5 81t-81.5 18q-47 0 -45 30zM299 1706q0 76 111 137q96 51 180 51q63 0 149 -39.5t115 -39.5q43 0 81 32.5t54 32.5q20 0 75.5 -82.5t55.5 -105.5q0 -37 -98 -100.5 t-139 -63.5q-59 0 -143.5 47t-114.5 47q-49 0 -103.5 -52t-70.5 -52q-20 0 -86 82.5t-66 105.5z" />
<glyph unicode="&#xd2;" horiz-adv-x="1626" d="M2 737q0 279 219 508q117 123 244 173t309 52l19 -2q365 4 540 -200q125 -145 174 -258q58 -129 58 -297h-2q0 -309 -223.5 -516t-563.5 -207q-338 0 -559 223q-215 217 -215 524zM451 711q0 -117 84 -211q88 -100 215 -101q160 0 251 111q82 99 82 246v-2q0 102 -86 198 q-92 100 -202 101q-160 0 -252 -97.5t-92 -244.5zM532 1812q4 16 7.5 22.5t17.5 6.5q131 4 246 4q16 0 20 -12t60 -143q47 -118 47 -138q0 -35 -35 -43q-8 -2 -66 -2q-123 0 -129 13.5t-94 144.5q-72 111 -74 147z" />
<glyph unicode="&#xd3;" horiz-adv-x="1626" d="M2 739q0 279 219 508q117 123 244 173t309 53l19 -3q365 4 540 -200q125 -145 174 -258q58 -129 58 -297h-2q0 -309 -223.5 -516t-563.5 -207q-338 0 -559 223q-215 217 -215 524zM451 713q0 -117 84 -211q88 -100 215 -101q160 0 251 111q82 99 82 246v-2q0 102 -86 198 q-92 100 -202 101q-160 0 -252 -97.5t-92 -244.5zM639 1552q0 20 47 138q55 131 58.5 143t21.5 12h123q92 -2 121 -2q16 0 18 -7.5t6 -23.5v3q0 -37 -71 -148q-88 -133 -94.5 -146.5t-127.5 -13.5q-57 0 -65 2q-37 8 -37 43z" />
<glyph unicode="&#xd4;" horiz-adv-x="1626" d="M2 737q0 279 219 508q117 123 244 173t309 52l19 -2q365 4 540 -200q125 -145 174 -258q58 -129 58 -297h-2q0 -309 -223.5 -516t-563.5 -207q-338 0 -559 223q-215 217 -215 524zM434 1522q0 37 82 157q98 141 107 160q4 10 127 10q8 0 28 2h31q16 0 41 -4 q123 0 127 -10q10 -20 106 -147q82 -111 82 -148q-2 -8 -3 -20.5t-3 -20.5t-16 -8q-143 -4 -228 -2q-6 0 -21 22.5t-17 30.5q-23 31 -76 119q-45 -68 -99 -160q-2 -12 -40 -12q-29 0 -91 2h-92q-37 0 -37 10q-2 2 -8 19zM451 711q0 -117 84 -211q88 -100 215 -101 q160 0 251 111q82 99 82 246v-2q0 102 -86 198q-92 100 -202 101q-160 0 -252 -97.5t-92 -244.5z" />
<glyph unicode="&#xd5;" horiz-adv-x="1626" d="M2 737q0 279 219 508q117 123 244 173t309 52l19 -2q365 4 540 -200q125 -145 174 -258q58 -129 58 -297h-2q0 -309 -223.5 -516t-563.5 -207q-338 0 -559 223q-215 217 -215 524zM406 1665q0 76 110 137q96 51 180 51q63 0 149.5 -39.5t115.5 -39.5q43 0 80.5 32.5 t54.5 32.5q20 0 75.5 -82.5t55.5 -105.5q0 -37 -98.5 -100.5t-139.5 -63.5q-59 0 -143 47t-115 47q-49 0 -103.5 -52t-70.5 -52q-20 0 -85.5 82.5t-65.5 105.5zM451 711q0 -117 84 -211q88 -100 215 -101q160 0 251 111q82 99 82 246v-2q0 102 -86 198q-92 100 -202 101 q-160 0 -252 -97.5t-92 -244.5z" />
<glyph unicode="&#xd6;" horiz-adv-x="1626" d="M0 739q0 279 219 508q117 123 244 173t309 53l19 -3q365 4 540 -200q125 -145 174 -258q58 -129 58 -297h-2q0 -309 -223.5 -516t-563.5 -207q-338 0 -559 223q-215 217 -215 524zM395 1673q0 72 52.5 122t123.5 50q82 0 132.5 -47t50.5 -129v2q0 -76 -53.5 -123 t-129.5 -47q-74 0 -125 48t-51 124zM449 713q0 -117 83 -211q88 -100 216 -101q160 0 251 111q82 99 82 246v-2q0 102 -86 198q-92 100 -202 101q-160 0 -252 -97.5t-92 -244.5zM854 1673q0 74 51 124t125 50q80 0 132 -45t52 -125h-2q0 -74 -53 -125t-129 -51 q-74 0 -125 49t-51 123z" />
<glyph unicode="&#xd7;" horiz-adv-x="1247" d="M57 313q0 37 56 86q41 35 84 70q51 53 135 137q18 18 0 39q-94 92 -246 244q-16 18 -16 41q0 39 65 98q35 25 101 76q20 23 40 43q29 29 48 29q23 0 49 -29q57 -66 139 -162q72 -80 111 -80q25 0 59 33q41 41 82 80t84 80q59 51 100 51q27 0 47 -23q180 -197 170 -213v-2 q-12 -23 -84 -84q-59 -66 -153 -161q-23 -16 -45 -33q-27 -23 -6 -45q25 -18 69 -62q39 -45 94 -110q31 -31 64 -60q35 -37 35 -65q0 -25 -29 -51q-164 -147 -213 -148q-41 0 -102 66q-90 92 -179 186q-20 20 -34 21q-16 0 -45 -27q-84 -88 -228 -232q-10 -10 -24 -10 q-41 0 -117 78l-94 102q-16 16 -17 37z" />
<glyph unicode="&#xd8;" horiz-adv-x="1626" d="M2 821q0 309 219 561q119 137 245 192.5t308 57.5l21 2q172 0 311 -55q12 14 31 33q27 25 71 24q100 0 117 -2q76 -8 72 -43q-2 -20 -86 -123q-8 -12 -13 -20q14 -14 35 -41q125 -164 174 -287q58 -141 58 -329h-2q0 -342 -223.5 -571.5t-565.5 -229.5q-154 0 -287 57 q-16 -27 -25 -34t-36 -11q20 0 -70 8q-16 0 -49 -3t-51 -3q-88 0 -82 43q4 35 82 152q-254 244 -254 622zM418 788q0 -119 71 -229q102 154 181 285q39 72 125 217q30 41 77 129v2q-37 12 -75 12q-176 0 -277.5 -117.5t-101.5 -298.5zM698 412q33 -4 50 -2q174 0 276 133 q90 121 90 299q0 94 -59 192q-55 -84 -133 -233q-94 -176 -129 -236q-31 -49 -95 -153z" />
<glyph unicode="&#xd9;" horiz-adv-x="1515" d="M8 1386q0 82 105 82q16 0 48 -2t46 -2h291q18 0 55 3t55 3q51 0 72.5 -17t21.5 -69q0 -25 -5 -74.5t-5 -76.5q0 -16 3 -49t3 -51q0 -43 -16 -59.5t-64 -16.5q-33 0 -32 -76q0 -49 3 -149.5t3 -151.5q0 -123 16 -166q31 -88 137 -88q96 0 132 68q20 43 20 143q0 289 2 211 q-4 137 -25 203q-4 14 -35.5 16t-35.5 10q-16 31 -19 82q2 -94 2 86q0 20 -3 61.5t-3 61.5q2 106 117 107q20 0 68.5 -4.5t70.5 -4.5q57 0 171 4.5t169 4.5q53 0 70 -27q8 -17 8 -74l2 2q0 -20 -5 -61t-5 -62q0 -18 4 -55t4 -53q0 -88 -94 -88q-16 0 -17 -10 q-10 -59 -10 -156q-2 -80 -2 -158q-2 -135 -4 -268q-8 -141 -55 -227q-59 -109 -203 -185q-121 -66 -289 -65q-272 0 -397 63q-156 80 -211 301q-8 35 -10 191q-2 184 -4 243q-6 137 -23 242q-4 20 -45 23q-47 2 -57 16q-16 25 -21 61q-2 25 0 68q4 53 4 64q0 23 -4 64.5 t-4 61.5zM457 1808q4 16 7 22.5t17 6.5q131 4 246 4q16 0 20.5 -12t59.5 -143q47 -117 47 -140v2q0 -35 -35 -43q-8 -2 -65 -2q-123 0 -129.5 13.5t-94.5 144.5q-72 111 -73 147z" />
<glyph unicode="&#xda;" horiz-adv-x="1515" d="M6 1386q0 82 105 82q16 0 47.5 -2t46.5 -2h291q18 0 55 3t55 3q51 0 72.5 -17t21.5 -69q0 -25 -5 -74.5t-5 -76.5q0 -16 3 -49t3 -51q0 -43 -16 -59.5t-64 -16.5q-33 0 -32 -76q0 -49 3 -149.5t3 -151.5q0 -123 16 -166q31 -88 137 -88q96 0 131 68q20 43 21 143 q0 289 2 211q-4 137 -25 203q-4 14 -35.5 16t-35.5 10q-16 31 -19 82q2 -94 2 86q0 20 -3 61.5t-3 61.5q2 106 117 107q20 0 68.5 -4.5t70.5 -4.5q57 0 171 4.5t169 4.5q53 0 70 -27q8 -17 8 -74l2 2q0 -20 -5 -61t-5 -62q0 -18 4 -55t4 -53q0 -88 -94 -88q-16 0 -17 -10 q-10 -59 -10 -156q-2 -80 -2 -158q-2 -135 -4 -268q-8 -141 -55 -227q-59 -109 -203 -185q-121 -66 -289 -65q-272 0 -397 63q-156 80 -211 301q-8 35 -10 191q-2 184 -4 243q-6 137 -23 242q-4 20 -45 23q-47 2 -57 16q-16 25 -21 61q-2 25 0 68q4 53 4 64q0 23 -4 64.5 t-4 61.5zM612 1571q0 23 50 137q59 141 59 143q2 12 18 13h123q92 -2 121 -2q16 0 19.5 -7.5t7.5 -23.5l-2 2q0 -37 -72 -147q-86 -129 -94 -150q-4 -10 -127 -10q-57 0 -66 2q-37 8 -37 43z" />
<glyph unicode="&#xdb;" horiz-adv-x="1515" d="M10 1384q0 82 105 82q16 0 48 -2t46 -2h291q18 0 55 3t55 3q51 0 73 -17t22 -69q0 -25 -5.5 -75t-5.5 -76q0 -16 3 -49t3 -52q0 -43 -16 -59t-63 -16q-33 0 -33 -76q0 -49 3 -149.5t3 -151.5q0 -123 16 -166q31 -88 138 -88q96 0 131 68q20 43 20 143q0 289 2 211 q-4 137 -24 203q-4 14 -36 16t-36 10q-16 31 -19 82q2 -94 2 86q0 20 -3 61.5t-3 61.5q2 106 117 107q20 0 68.5 -4.5t70.5 -4.5q57 0 171 4.5t169 4.5q53 0 70 -27q8 -17 8 -74l2 2q0 -20 -5 -61t-5 -62q0 -18 4 -55t4 -53q0 -88 -94 -88q-16 0 -16 -11q-10 -59 -11 -155 q-2 -80 -2 -158q-2 -135 -4 -268q-8 -141 -55 -227q-59 -109 -203 -185q-121 -66 -289 -65q-272 0 -397 63q-156 80 -211 301q-8 35 -10 191q-2 184 -4 243q-6 137 -23 242q-4 20 -45 23q-47 2 -57 16q-16 25 -21 61q-2 25 0 68q4 53 4 63q0 23 -4 65t-4 62zM367 1526 q0 37 82 157q98 141 106 160q4 10 127 10q8 0 29 2h30q16 0 41 -4q123 0 127 -10q10 -20 107 -147q82 -111 82 -148h2q-6 -39 -8 -41q-2 -8 -17 -8q-143 -4 -227 -2q-6 0 -21.5 22.5t-17.5 30.5q-23 31 -76 119q-45 -68 -98 -160q-2 -12 -41 -12q-29 0 -90 2h-92 q-37 0 -37 10q-2 2 -8 19z" />
<glyph unicode="&#xdc;" horiz-adv-x="1525" d="M18 1386q2 82 105 82q16 0 47 -2t45 -2h293q18 0 55 3t55 3q51 0 72 -17t21 -69q0 -25 -5.5 -74.5t-5.5 -76.5q0 -16 4.5 -50t4.5 -50q0 -45 -17.5 -60.5t-64.5 -15.5q-33 0 -33 -76q0 -53 4 -150q4 -106 4 -151q2 -127 16 -166q29 -88 136 -88q96 0 131 68q20 43 20 143 q0 289 2 211q-4 137 -24 203q-4 14 -36 16t-36 10q-16 31 -18 82q2 -94 2 86q0 20 -3.5 61.5t-3.5 61.5q2 106 117 107q20 0 68.5 -4.5t70.5 -4.5q55 0 170 4.5t172 4.5q53 0 70 -27q8 -17 8 -74v2q0 -20 -5 -61t-5 -62q0 -18 4 -55t4 -53q0 -88 -94 -88q-16 0 -16 -10 q-10 -59 -11 -156q-2 -80 -2 -158q-2 -135 -4 -268q-8 -141 -55 -227q-59 -109 -203 -185q-121 -66 -286 -65q-272 0 -398 63q-158 80 -213 301q-8 33 -8 191q0 324 -27 485q-4 20 -45 23q-47 2 -57 16q-16 25 -20 61q-4 25 0 68q2 51 2 64q0 18 -3.5 61t-3.5 65zM354 1681 q0 72 52.5 122t125.5 50q82 0 132.5 -47t50.5 -129v2q0 -76 -53.5 -123t-131.5 -47q-74 0 -125 48.5t-51 123.5zM813 1681q0 74 51 124t123 50q80 0 132 -44.5t52 -124.5q0 -76 -53 -126.5t-131 -50.5q-74 0 -124 49.5t-50 122.5z" />
<glyph unicode="&#xdd;" horiz-adv-x="1296" d="M8 1360q0 61 19.5 87t83.5 26q49 0 148 -4.5t149 -4.5q23 0 66.5 5.5t66.5 5.5q49 0 61 -66q2 -14 2 -102q0 -29 -6 -83.5t-6 -78.5q0 -49 -40 -60.5t-40 -31.5q0 -16 51 -93t64 -75q12 0 37 45q16 27 30 55q16 18 32.5 40t16.5 40q0 12 -38.5 15t-38.5 40q0 29 9 82 t9 76q2 25 -2 65q-4 49 -4 66q0 63 94 64q18 0 52 -2.5t48 -2.5q43 0 146 5q94 4 145 4q56 -1 56 -95l2 -108q2 -80 0 -129q-4 -70 -13.5 -95.5t-87.5 -27.5q-31 0 -47 -10q-31 -18 -151.5 -182t-133.5 -203q-18 -53 -18 -162q0 -49 33 -54t63 -10q33 -12 33 -79 q0 -82 -2 -164q-6 -127 -42 -141.5t-490 -14.5q-96 0 -119 37q-14 23 -17 121q-2 88 11 194q2 27 47 35q63 10 64 12t1 74q0 31 4 89.5t4 86.5q0 41 -92 193q-88 143 -131 182q-4 4 -53 4t-61 76q-4 25 -5 104q0 25 -5 74t-5 76zM504 1546q0 20 47 137q55 131 58 143.5 t22 12.5h123q92 -2 120 -2q16 0 18.5 -7.5t6.5 -23.5v2q0 -37 -72 -147q-88 -133 -94 -146.5t-127 -13.5q-57 0 -65 2q-37 8 -37 43z" />
<glyph unicode="&#xdf;" horiz-adv-x="1474" d="M2 68q0 55 6 284q2 63 21.5 93t80 30t81 15.5t20.5 70.5q0 16 -6 55t-6 54q0 49 6 66.5t6 64.5q0 14 5 42.5t5 43.5q0 37 -10 82q-68 10 -116 10t-48 72v170q0 10 8 50t8 48t52 10q39 0 78 -2q41 4 51 19q82 127 190 206q68 49 230 76q43 14 94 14q150 0 301 -106 q207 -145 207 -365q0 -115 -105 -276q0 -8 10.5 -14.5t18.5 -10.5q51 -41 104.5 -83t81.5 -103q37 -78 37 -182q2 -213 -164 -361q-158 -141 -354 -137q-57 2 -117 2q-70 4 -78 25q-14 35 -14 153q0 219 27 217q25 -2 49 -2q188 0 194 127q4 86 -63 133q-53 37 -119 35 q-70 -18 -102 -2q-27 14 -27 99q0 98 23 178q59 0 116 41q68 49 64 125q-6 117 -125 116q-51 0 -96 -24q-27 -14 -43 -72q-12 -43 -13 -70v-344q4 -127 -6 -415q-4 -106 -6 -213q-6 -117 -39 -114t-131 -3q-123 -4 -168 -4q-219 0 -219 76z" />
<glyph unicode="&#xe0;" horiz-adv-x="1212" d="M10 348q0 186 137 301q129 111 318 111q16 0 46 -4t44 -4q20 0 20 18q0 57 -43 116.5t-100 59.5q-43 0 -43 -18q0 2 12.5 -17.5t12.5 -38.5q0 -55 -52.5 -84.5t-109.5 -29.5q-78 0 -133.5 47t-55.5 125q0 145 136 233q117 76 270 76q297 0 455 -256q57 -92 66 -305 t40 -270q23 -41 82 -48q43 -4 43 -81q0 -16 -4 -49t-4 -52q0 -16 4 -45t4 -43v-2q0 -90 -338 -90q-76 0 -108 41q-2 2 -13 35q-10 25 -20 24q-6 0 -37 -30.5t-37 -34.5q-80 -49 -192 -49q-170 0 -285 98t-115 266zM305 1587q2 4 3 10.5t3 12.5t17 6q131 4 247 4q16 0 19 -10 q4 -16 59 -146q47 -117 47 -137h2q0 -35 -34 -43q-10 -2 -68 -2q-123 0 -128 12.5t-95 145.5q-72 111 -72 147zM362 383q0 -45 35 -77t80 -32q61 0 107 29q53 35 53 94v-2q0 115 -129 115q-145 0 -146 -127z" />
<glyph unicode="&#xe1;" horiz-adv-x="1212" d="M8 350q0 186 137 301q129 111 318 111q16 0 46 -4t44 -4q20 0 20 18q0 57 -43 116.5t-100 59.5q-43 0 -43 -18q0 2 12.5 -17.5t12.5 -38.5q0 -55 -52.5 -84.5t-109.5 -29.5q-78 0 -133.5 47t-55.5 125q0 145 136 233q117 76 270 76q297 0 455 -256q57 -92 66 -305 t40 -270q23 -41 82 -48q43 -4 43 -81q0 -16 -4 -49t-4 -52q0 -16 4 -45t4 -43v-2q0 -90 -338 -90q-76 0 -108 41q-2 2 -13 35q-10 25 -20 24q-6 0 -37 -30.5t-37 -34.5q-80 -49 -192 -49q-170 0 -285 98t-115 266zM360 385q0 -45 35 -77t80 -32q61 0 107 29q53 35 53 94v-2 q0 115 -129 115q-145 0 -146 -127zM371 1327q0 23 47 137q61 141 61 144q2 12 21 12h123q92 -2 120 -2q16 0 18.5 -7.5t6.5 -23.5v2q0 -37 -72 -147q-88 -133 -94 -146.5t-127 -13.5q-59 0 -67 2q-37 8 -37 43z" />
<glyph unicode="&#xe2;" horiz-adv-x="1212" d="M10 348q0 186 137 301q129 111 318 111q16 0 46 -4t44 -4q20 0 20 18q0 57 -43 116.5t-100 59.5q-43 0 -43 -18q0 2 12.5 -17.5t12.5 -38.5q0 -55 -52.5 -84.5t-109.5 -29.5q-78 0 -133.5 47t-55.5 125q0 145 136 233q117 76 270 76q297 0 455 -256q57 -92 66 -305 t40 -270q23 -41 82 -48q43 -4 43 -81q0 -16 -4 -49t-4 -52q0 -16 4 -45t4 -43v-2q0 -90 -338 -90q-76 0 -108 41q-2 2 -13 35q-10 25 -20 24q-6 0 -37 -30.5t-37 -34.5q-80 -49 -192 -49q-170 0 -285 98t-115 266zM135 1307q0 37 82 157q96 139 105 160q4 10 127 10h59h20 q14 -2 21 -2q123 0 127 -10q10 -20 106 -147q82 -111 82 -148h2q-6 -39 -8 -41q-2 -8 -16 -8q-131 -4 -226 -4q-6 0 -21 22.5t-20 32.5q-23 31 -73 119q-45 -68 -99 -160q-2 -12 -41 -12q-29 0 -90 2h-92q-37 0 -37 10q-2 2 -8 19zM362 383q0 -45 35 -77t80 -32q61 0 107 29 q53 35 53 94v-2q0 115 -129 115q-145 0 -146 -127z" />
<glyph unicode="&#xe3;" horiz-adv-x="1212" d="M8 348q0 186 137 301q129 111 318 111q16 0 46 -4t44 -4q20 0 20 18q0 57 -43 116.5t-100 59.5q-43 0 -43 -18q0 2 12.5 -17.5t12.5 -38.5q0 -55 -52.5 -84.5t-109.5 -29.5q-78 0 -133.5 47t-55.5 125q0 145 136 233q117 76 270 76q297 0 455 -256q57 -92 66 -305 t40 -270q23 -41 82 -48q43 -4 43 -81q0 -16 -4 -49t-4 -52q0 -16 4 -45t4 -43v-2q0 -90 -338 -90q-76 0 -108 41q-2 2 -13 35q-10 25 -20 24q-6 0 -37 -30.5t-37 -34.5q-80 -49 -192 -49q-170 0 -285 98t-115 266zM115 1452q-2 76 110 137q96 51 183 51q63 0 149 -39.5 t113 -39.5q43 0 80.5 32.5t56.5 32.5q20 0 75.5 -82.5t55.5 -105.5q0 -37 -98.5 -100.5t-141.5 -63.5q-59 0 -143 47t-115 47q-49 0 -102 -52t-70 -52q-20 0 -86.5 83t-66.5 105zM360 383q0 -45 35 -77t80 -32q61 0 107 29q53 35 53 94v-2q0 115 -129 115q-145 0 -146 -127z " />
<glyph unicode="&#xe4;" horiz-adv-x="1212" d="M8 350q0 186 137 301q129 111 318 111q16 0 46 -4t44 -4q20 0 20 18q0 57 -43 116.5t-100 59.5q-43 0 -43 -18q0 2 12.5 -17.5t12.5 -38.5q0 -55 -52.5 -84.5t-109.5 -29.5q-78 0 -133.5 47t-55.5 125q0 145 136 233q117 76 270 76q297 0 455 -256q57 -92 66 -305 t40 -270q23 -41 82 -48q43 -4 43 -81q0 -16 -4 -49t-4 -52q0 -16 4 -45t4 -43v-2q0 -90 -338 -90q-76 0 -108 41q-2 2 -13 35q-10 25 -20 24q-6 0 -37 -30.5t-37 -34.5q-80 -49 -192 -49q-170 0 -285 98t-115 266zM100 1466q0 72 52.5 122t126.5 50q82 0 132 -47t50 -129v2 q0 -76 -53.5 -123t-131.5 -47q-74 0 -125 48.5t-51 123.5zM360 385q0 -45 35 -77t80 -32q61 0 107 29q53 35 53 94v-2q0 115 -129 115q-145 0 -146 -127zM559 1466q0 74 51.5 124t122.5 50q80 0 132.5 -45t52.5 -125q0 -76 -53.5 -126t-131.5 -50q-74 0 -124 49.5t-50 122.5 z" />
<glyph unicode="&#xe5;" horiz-adv-x="1212" d="M8 346q0 186 137 301q129 111 318 111q16 0 46 -4t44 -4q20 0 20 18q0 57 -43 116.5t-100 59.5q-43 0 -43 -18q0 2 12.5 -17.5t12.5 -38.5q0 -55 -52.5 -84.5t-109.5 -29.5q-78 0 -133.5 47t-55.5 125q0 145 136 233q117 76 270 76q297 0 455 -256q57 -92 66 -305 t40 -270q23 -41 82 -48q43 -4 43 -82q0 -16 -4 -48.5t-4 -51.5q0 -16 4 -45t4 -43v-2q0 -90 -338 -90q-76 0 -108 41q-2 2 -13 35q-10 25 -20 24q-6 0 -37 -30.5t-37 -34.5q-80 -49 -192 -49q-170 0 -285 98t-115 266zM147 1614q0 141 94.5 232t237.5 91q141 0 250 -101.5 t109 -238.5v-2q0 -127 -92.5 -217t-219.5 -90q-162 0 -264 80q-115 86 -115 246zM346 1599q0 -113 141 -112q144 0 144 117q0 49 -39 82.5t-88 33.5q-61 0 -107 -28q-51 -33 -51 -93zM360 381q0 -45 35 -77t80 -32q61 0 107 29q53 35 53 94v-2q0 115 -129 115 q-145 0 -146 -127z" />
<glyph unicode="&#xe6;" horiz-adv-x="1863" d="M8 348q0 186 137 301q129 111 318 111q16 0 46 -4t44 -4q20 0 20 18q0 57 -43 116.5t-100 59.5q-43 0 -43 -18q0 2 12.5 -17.5t12.5 -38.5q0 -55 -52.5 -84.5t-109.5 -29.5q-78 0 -133.5 47t-55.5 125q0 145 136 233q117 76 270 76q236 0 383 -160q154 160 377 160 q250 0 407 -184q150 -174 150 -428v2q0 -47 -8 -70q-10 -41 -129 -41q-27 0 -69 2t-50 2h-461q-16 0 -16 -20q0 -92 73 -146q10 -4 13 -10q41 -23 90 -22q66 0 125 61t110 61l242 3q23 0 32 -9.5t9 -29.5q-2 -74 -70 -191q-76 -131 -172 -184t-250 -55q-162 -2 -264 34 q-74 -16 -174 -16q-76 0 -108 41q-2 2 -13 35q-10 25 -20 24q-6 0 -37 -30.5t-37 -34.5q-80 -49 -192 -49q-170 0 -285 98t-115 266zM358 387q0 -45 35 -76.5t80 -31.5q61 0 107 28q53 35 53 94v-2q0 115 -129 115q-145 0 -146 -127zM1063 770q0 -20 131 -20h106 q107 -1 107 28h-2q0 55 -66 82q-49 23 -108 21q-55 0 -107 -29q-61 -33 -61 -82z" />
<glyph unicode="&#xe7;" horiz-adv-x="1144" d="M2 596v18q0 250 156 430q164 188 409 191q41 0 114 -22.5t97 -22.5q4 0 22.5 13.5t49.5 13.5q12 0 35.5 -3.5t32.5 -3.5h92q37 -10 37 -84q0 -20 -4.5 -61t-4.5 -61q0 -43 9.5 -131.5t9.5 -133.5q0 -68 -37 -80q-10 -4 -100 -4q-27 0 -79.5 3.5t-76.5 3.5q-33 0 -49 55 q-23 82 -37 102q-35 55 -119 55q-176 -2 -176 -313q0 -92 39 -153q45 -74 133 -74t125 47q23 27 33 90q8 53 19 60.5t65 7.5q195 0 226.5 -10.5t31.5 -84.5q0 -170 -94 -301q-104 -143 -267 -145q-39 0 -39 -37q0 -35 15 -39q43 -8 87 -17t79 -30q96 -59 96 -203 q0 -135 -87 -229t-220 -94q-121 0 -201 61q-86 68 -86 184q0 121 74 121q39 0 76.5 -70.5t103.5 -70.5q78 0 78 82q0 117 -135 117q-10 0 -29 -9.5t-25 -9.5q-76 0 -75 107v45q2 29 2 41q0 29 -2 33q-2 20 -13 26q-33 12 -100 43q-291 147 -291 547z" />
<glyph unicode="&#xe8;" horiz-adv-x="1196" d="M2 614q0 252 152 433q160 193 405 192q250 0 408 -184q149 -174 149 -428v2q0 -45 -6 -70q-10 -41 -129 -41q-29 0 -71 2t-50 2h-459q-14 0 -18 -20q0 -74 51 -126t125 -52q66 0 125 61t111 61l241 3q43 0 43 -39q0 -68 -71 -191q-78 -131 -174.5 -185t-247.5 -54 q-260 0 -426 188q-158 182 -158 446zM313 1587q2 4 3 10.5t3.5 12.5t16.5 6q131 4 248 4q16 0 18 -10q54 -123 109 -283q0 -35 -35 -43q-8 -2 -68 -2q-123 0 -128 12.5t-95 145.5q-72 111 -72 147zM395 770q0 -20 131 -20h107q106 -1 106 28q0 55 -65 82q-51 23 -111 21 q-55 0 -106 -29q-61 -33 -62 -82z" />
<glyph unicode="&#xe9;" horiz-adv-x="1177" d="M2 616q0 252 152 433q160 193 405 192q250 0 408 -184q149 -174 149 -428v2q0 -45 -6 -70q-10 -41 -129 -41q-29 0 -71 2t-50 2h-459q-14 0 -18 -20q0 -74 51 -126t125 -52q66 0 125 61.5t111 61.5l241 2q43 0 43 -39q0 -68 -71 -191q-78 -131 -174.5 -185t-247.5 -54 q-260 0 -426 188q-158 182 -158 446zM395 772q0 -20 131 -20h107q106 -1 106 28q0 55 -65 82q-51 23 -111 21q-55 0 -106 -29q-61 -33 -62 -82zM434 1327q0 20 47 137q55 131 58.5 143.5t21.5 12.5h123q92 -2 121 -2q16 0 18 -7.5t6 -23.5v2q0 -37 -71 -147 q-88 -133 -94.5 -146.5t-126.5 -13.5q-57 0 -66 2q-37 8 -37 43z" />
<glyph unicode="&#xea;" horiz-adv-x="1177" d="M2 614q0 252 152 433q160 193 405 192q250 0 408 -184q149 -174 149 -428v2q0 -45 -6 -70q-10 -41 -129 -41q-29 0 -71 2t-50 2h-459q-14 0 -18 -20q0 -74 51 -126t125 -52q66 0 125 61t111 61l241 3q43 0 43 -39q0 -68 -71 -191q-78 -131 -174.5 -185t-247.5 -54 q-260 0 -426 188q-158 182 -158 446zM197 1307q0 37 82 157q98 141 106 160q4 10 127 10h59h21q14 -2 20 -2q123 0 127 -10q10 -20 107 -147q82 -111 82 -148q-2 -8 -3 -20.5t-3 -20.5t-17 -8q-131 -4 -227 -4q-6 0 -21.5 22.5t-17.5 32.5q-23 31 -76 119q-45 -68 -98 -160 q-2 -12 -41 -12q-29 0 -90 2h-92q-37 0 -37 10q-2 2 -8 19zM395 770q0 -20 131 -20h107q106 -1 106 28q0 55 -65 82q-51 23 -111 21q-55 0 -106 -29q-61 -33 -62 -82z" />
<glyph unicode="&#xeb;" horiz-adv-x="1177" d="M0 616q0 252 152 433q160 193 405 192q250 0 408 -184q149 -174 149 -428v2q0 -45 -6 -70q-10 -41 -129 -41q-29 0 -71 2t-50 2h-459q-14 0 -18 -20q0 -74 51 -126t125 -52q66 0 125 61.5t111 61.5l241 2q43 0 43 -39q0 -68 -71 -191q-78 -131 -174.5 -185t-247.5 -54 q-260 0 -426 188q-158 182 -158 446zM135 1466q0 72 52.5 122t123.5 50q82 0 132.5 -47t50.5 -129v2q0 -76 -53.5 -123t-129.5 -47q-74 0 -125 48.5t-51 123.5zM393 772q0 -20 131 -20h107q106 -1 106 28q0 55 -65 82q-51 23 -111 21q-55 0 -106 -29q-61 -33 -62 -82z M594 1466q0 74 51 124t125 50q80 0 132 -45t52 -125h-2q0 -74 -53 -125t-129 -51q-74 0 -125 49.5t-51 122.5z" />
<glyph unicode="&#xec;" horiz-adv-x="724" d="M8 100v41q2 29 2 43q0 121 10 160q4 16 62.5 30.5t64.5 35.5q14 43 17 110q2 45 -2 125q-4 90 -4 115q0 63 -41 74q-49 14 -56 28q-12 31 -18 221q-2 100 18 119q31 27 197 25q172 -2 199 -6q55 -10 67 -62q6 -33 6 -192q0 -539 27 -570q16 -18 51 -25t45 -20 q21 -21 21 -78v2q0 -18 -2 -49q-2 -37 -2 -47v-123q-4 -39 -33 -49t-133 -10l-400 -2q-96 0 -96 104zM70 1587q4 16 7 22.5t17 6.5q131 4 246 4q16 0 20.5 -12.5t59.5 -143.5q47 -117 47 -137q0 -35 -35 -43q-8 -2 -65 -2q-123 0 -129.5 13.5t-94.5 144.5q-72 111 -73 147z " />
<glyph unicode="&#xed;" horiz-adv-x="724" d="M6 102v41q2 29 2 43q0 121 10 160q4 16 62.5 30.5t64.5 35.5q14 43 17 110q2 45 -2 125q-4 90 -4 115q0 63 -41 74q-49 14 -56 28q-12 31 -18 221q-2 100 18 119q31 27 197 25q172 -2 199 -6q55 -10 67 -62q6 -33 6 -192q0 -539 27 -570q16 -18 51 -25t45 -20 q21 -21 21 -78v3q0 -18 -2 -50q-2 -37 -2 -47v-123q-4 -39 -33 -49t-133 -10l-400 -2q-96 0 -96 104zM186 1327q0 23 50 137q59 141 59 144q2 12 18 12h123q92 -2 121 -2q16 0 19.5 -7.5t7.5 -23.5l-2 2q0 -37 -72 -147q-86 -129 -94 -150q-4 -10 -127 -10q-57 0 -66 2 q-37 8 -37 43z" />
<glyph unicode="&#xee;" horiz-adv-x="792" d="M8 1307q0 37 82 157q98 141 107 160q4 10 127 10h59h20q14 -2 21 -2q123 0 127 -10q10 -20 106 -147q82 -111 82 -148q-2 -8 -3 -20.5t-3 -20.5t-16 -8q-131 -4 -228 -4q-6 0 -21 22.5t-17 32.5q-23 31 -76 119q-45 -68 -99 -160q-2 -12 -40 -12q-29 0 -91 2h-92 q-37 0 -37 10q-2 2 -8 19zM78 100v41q2 29 2 43q0 121 10 160q4 16 62.5 30.5t64.5 35.5q14 43 16 110q2 45 -2 125q-4 90 -4 115q0 63 -41 74q-51 14 -57 28q-16 35 -16 221q0 102 18 119q31 27 197 25q172 -2 198 -6q55 -10 66 -62q6 -31 6 -192q-2 -535 27 -570 q16 -18 51 -25t45 -20q20 -21 20 -78v2q0 -10 -2 -49q-2 -29 0 -47q0 -61 -2 -123q-2 -39 -30.5 -49t-133.5 -10l-399 -2q-96 0 -96 104z" />
<glyph unicode="&#xef;" horiz-adv-x="876" d="M6 1466q0 72 52.5 122t123.5 50q82 0 132.5 -47t50.5 -129v2q0 -76 -53.5 -123t-129.5 -47q-74 0 -125 48.5t-51 123.5zM102 102v41q2 29 2 43q0 121 11 160q4 16 61 30.5t64 35.5q12 43 16 110q2 45 -2 125q-2 90 -2 115q0 63 -41 74q-51 14 -57 28q-16 35 -17 221 q0 102 19 119q31 27 196 25q172 -2 199 -6q55 -10 65 -62q6 -31 7 -192q-2 -535 26 -570q16 -18 51 -25t45 -20q21 -21 21 -78v3q0 -10 -2 -50q-2 -29 0 -47q0 -61 -2 -123q-2 -39 -31 -49t-133 -10l-399 -2q-96 0 -97 104zM465 1466q0 74 51 124t125 50q80 0 132 -45 t52 -125h-2q0 -74 -53 -125t-129 -51q-74 0 -125 49.5t-51 122.5z" />
<glyph unicode="&#xf1;" horiz-adv-x="1312" d="M10 1049q0 115 4 125q14 55 95 55q20 0 58 -4t56 -4q33 0 98.5 4t98.5 4q49 0 78 -31q8 -8 17 -44t13 -36l45 33q53 37 107 57q76 33 151 33q240 0 326 -199q53 -129 53 -407q0 -186 7 -227q4 -25 41.5 -33t48.5 -29q14 -30 14 -151l-2 2q0 -180 -41 -185 q-115 -12 -227 -12q-193 0 -183 0q-141 6 -151 45q-4 16 -8 43q0 18 6 55t6 56q0 18 -3 53t-3 51q0 55 50 83t52 36q4 25 4 78q0 150 -18 213q-37 123 -150 123q-57 0 -98 -39t-41 -97q0 -231 12 -294q4 -23 57.5 -32t53.5 -71q0 -201 -19 -270q-8 -33 -49 -33 q-14 0 -45.5 4t-48.5 4q-16 0 -49 -4t-49 -4h-252q-104 0 -105 150q0 190 18.5 212.5t51.5 23.5t43 20q16 31 17 137q0 27 4 80t4 79q0 90 -31 115q-8 6 -57 12q-41 6 -47 29q-12 43 -13 191zM240 1458q0 76 110 137q96 51 180 52q63 0 149.5 -40t115.5 -40q43 0 80.5 32.5 t54.5 32.5q20 0 75.5 -82.5t55.5 -105.5q0 -37 -98.5 -100.5t-139.5 -63.5q-59 0 -143 47t-115 47q-49 0 -103 -52t-71 -52q-20 0 -85.5 83t-65.5 105z" />
<glyph unicode="&#xf2;" horiz-adv-x="1245" d="M2 621q0 260 156 434q162 182 417 182q260 0 435 -199q164 -188 164 -452q0 -258 -166 -429t-424 -171t-424 190q-158 182 -158 445zM311 1587q2 4 3 10.5t3 12.5t17 6q131 4 248 4q16 0 20 -12.5t60 -143.5q47 -117 47 -137q0 -35 -35 -43q-8 -2 -66 -2 q-125 0 -129 10.5t-96 147.5q-72 111 -72 147zM340 590q0 -94 64.5 -172t158.5 -78q125 0 191 80q61 74 61 201l-2 2q0 86 -63 163q-70 80 -152 80q-119 0 -188.5 -78.5t-69.5 -197.5z" />
<glyph unicode="&#xf3;" horiz-adv-x="1245" d="M2 623q0 260 156 434q162 182 417 182q260 0 435 -199q164 -188 164 -452q0 -258 -166 -429t-424 -171t-424 190q-158 182 -158 445zM340 592q0 -94 64.5 -172t158.5 -78q125 0 191 80q61 74 61 201l-2 2q0 86 -63 163q-70 80 -152 80q-119 0 -188.5 -78.5t-69.5 -197.5z M469 1327q0 20 47 137q55 131 58.5 143.5t21.5 12.5h123q92 -2 121 -2q16 0 18 -7.5t6 -23.5v2q0 -37 -71 -147q-88 -133 -94.5 -146.5t-127.5 -13.5q-57 0 -65 2q-37 8 -37 43z" />
<glyph unicode="&#xf4;" horiz-adv-x="1245" d="M2 621q0 260 156 434q162 182 417 182q260 0 435 -199q164 -188 164 -452q0 -258 -166 -429t-424 -171t-424 190q-158 182 -158 445zM199 1307q0 37 82 157q98 141 106 160q4 10 127 10h59h21q14 -2 20 -2q123 0 127 -10q10 -20 107 -147q82 -111 82 -148q-2 -8 -3 -20.5 t-3 -20.5t-17 -8q-131 -4 -227 -4q-6 0 -21.5 22.5t-17.5 32.5q-23 31 -76 119q-45 -68 -98 -160q-2 -12 -41 -12q-29 0 -90 2h-92q-37 0 -37 10q-2 2 -8 19zM340 590q0 -94 64.5 -172t158.5 -78q125 0 191 80q61 74 61 201l-2 2q0 86 -63 163q-70 80 -152 80 q-119 0 -188.5 -78.5t-69.5 -197.5z" />
<glyph unicode="&#xf5;" horiz-adv-x="1245" d="M2 621q0 260 156 434q162 182 417 182q260 0 435 -199q164 -188 164 -452q0 -258 -166 -429t-424 -171t-424 190q-158 182 -158 445zM180 1452q0 76 111 137q96 51 180 51q63 0 149.5 -39.5t114.5 -39.5q43 0 81 32.5t54 32.5q20 0 75.5 -82.5t55.5 -105.5 q0 -37 -98 -100.5t-139 -63.5q-59 0 -143 47t-115 47q-49 0 -103.5 -52t-70.5 -52q-20 0 -86 83t-66 105zM340 590q0 -94 64.5 -172t158.5 -78q125 0 191 80q61 74 61 201l-2 2q0 86 -63 163q-70 80 -152 80q-119 0 -188.5 -78.5t-69.5 -197.5z" />
<glyph unicode="&#xf6;" horiz-adv-x="1245" d="M0 623q0 260 156 434q162 182 417 182q260 0 435 -199q163 -188 163 -452q0 -258 -165.5 -429t-423.5 -171t-424 190q-158 182 -158 445zM170 1466q0 72 52 122t124 50q82 0 132 -47t50 -129v2q0 -76 -53 -123t-129 -47q-74 0 -125 48.5t-51 123.5zM338 592 q0 -94 64.5 -172t158.5 -78q125 0 191 80q61 74 61 201l-2 2q0 86 -63 163q-70 80 -152 80q-119 0 -188.5 -78.5t-69.5 -197.5zM629 1466q0 74 51 124t125 50q80 0 132 -45t52 -125h-2q0 -74 -53 -125t-129 -51q-74 0 -125 49.5t-51 122.5z" />
<glyph unicode="&#xf7;" horiz-adv-x="950" d="M35 717v39q2 25 2 32q0 100 166 101q33 0 93 -4t81 -4q72 4 215 8l221 -2q72 0 72 -103v-127q0 -68 -127 -67l-631 -2q-92 0 -92 129zM262 336q0 80 53.5 135t130.5 55q80 0 133.5 -55t53.5 -135q0 -84 -50.5 -141.5t-133.5 -57.5q-82 0 -134.5 58.5t-52.5 140.5z M262 1133q0 80 53.5 134t130.5 54q80 0 134.5 -55t54.5 -133h2q0 -86 -49 -142.5t-133 -56.5q-82 0 -137.5 57.5t-55.5 141.5z" />
<glyph unicode="&#xf8;" horiz-adv-x="1263" d="M2 621q0 260 158 434q162 182 420 182q156 0 282 -78q49 61 69.5 73.5t49.5 12.5h88q57 -6 51 -33q-2 -10 -71 -94q-33 -41 -50 -67q175 -191 175 -465v2q0 -258 -167 -430t-425 -174q-145 0 -269 67q-20 -35 -32.5 -42t-28.5 -7q-8 0 -27 2h-26q-12 0 -38 -2t-38 -2 q-68 0 -60 35q6 27 33 61q23 29 45 58l17 22q-156 180 -156 445zM338 590q0 -70 37 -129q86 113 131 178q37 55 112 166q14 16 39 49v2q-33 12 -61 10q-119 0 -188.5 -78.5t-69.5 -197.5zM518 348q23 -6 45 -6q125 0 191 80q61 74 61 201l-2 -2q0 55 -31 120 q-43 -55 -104 -153q-78 -129 -98 -158q-12 -16 -62 -82z" />
<glyph unicode="&#xf9;" horiz-adv-x="1144" d="M8 1159q0 39 17 49q20 18 260 19h172q41 0 57 -14.5t16 -57.5q0 -37 -2 -110.5t-2 -112.5t-11 -54.5t-50 -15.5q-25 0 -25 -57q0 -305 15 -371q16 -76 112 -76q70 0 92 60q14 35 15 119q0 377 2 157q0 96 -17 154q-4 12 -28.5 13t-30.5 9q-16 31 -12 273q0 35 6 51 q12 35 74 35q55 0 346 -4q33 0 47 -4q25 -8 29 -31q14 -76 14 -219q0 -88 -51 -111l-27 -4q-16 -2 -16 -12q-4 -43 -2 -115q4 -104 4 -115q0 -29 2 -82v-77q0 -150 -37 -232q-43 -98 -162 -172q-96 -59 -231 -59q-260 0 -360.5 104.5t-100.5 362.5q0 252 -19 381 q-2 16 -35.5 18t-41.5 14q-18 31 -19 287zM276 1587q2 4 3.5 10.5t3.5 12.5t18 6q135 4 246 4q16 0 20 -12.5t60 -143.5q47 -117 47 -137q0 -35 -35 -43q-8 -2 -66 -2q-125 0 -129 10.5t-96 147.5q-72 111 -72 147z" />
<glyph unicode="&#xfa;" horiz-adv-x="1144" d="M6 1161q0 39 17 49q20 18 260 19h172q41 0 57 -14.5t16 -57.5q0 -37 -2 -110.5t-2 -112.5t-11 -54.5t-50 -15.5q-25 0 -25 -57q0 -305 15 -371q16 -76 112 -76q70 0 92 60q14 35 15 119q0 377 2 157q0 96 -17 154q-4 12 -28.5 13t-30.5 9q-16 31 -12 273q0 35 6 51 q12 35 74 35q55 0 346 -4q33 0 47 -4q25 -8 28 -31q15 -76 15 -219q0 -88 -51 -111l-27 -4q-16 -2 -16 -12q-4 -43 -2 -115q4 -104 4 -115q0 -29 2 -81v-78q0 -150 -37 -232q-43 -98 -162 -172q-96 -59 -231 -59q-260 0 -360.5 104.5t-100.5 362.5q0 252 -19 381 q-2 16 -35.5 18t-41.5 14q-18 31 -19 287zM406 1327q0 23 49 137q59 141 59 144q2 12 18 12h123q92 -2 121 -2q16 0 19.5 -7.5t7.5 -23.5l-2 2q0 -37 -72 -147q-86 -129 -94 -150q-4 -10 -127 -10q-57 0 -66 2q-37 8 -36 43z" />
<glyph unicode="&#xfb;" horiz-adv-x="1144" d="M10 1159q0 39 17 49q20 18 260 19h172q41 0 57 -14.5t16 -57.5q0 -37 -2 -110.5t-2 -112.5t-11 -54.5t-50 -15.5q-25 0 -25 -57q0 -305 15 -371q16 -76 112 -76q70 0 93 60q14 35 14 119q0 377 2 157q0 96 -16 154q-4 12 -29 13t-31 9q-16 31 -12 273q0 35 6 51 q12 35 74 35q55 0 346 -4q33 0 47 -4q25 -8 29 -31q14 -76 14 -219q0 -88 -51 -111l-27 -4q-16 -2 -16 -12q-4 -43 -2 -115q4 -104 4 -115q0 -29 2 -82v-77q0 -150 -37 -232q-43 -98 -162 -172q-96 -59 -231 -59q-260 0 -360.5 104.5t-100.5 362.5q0 252 -19 381 q-2 16 -35.5 18t-41.5 14q-18 31 -19 287zM172 1307q0 37 82 157q98 141 106 160q4 10 127 10h60h20q14 -2 21 -2q123 0 127 -10q10 -20 106 -147q82 -111 82 -148h2q-6 -39 -8 -41q-2 -8 -16 -8q-131 -4 -228 -4q-6 0 -21.5 22.5t-17.5 32.5q-23 31 -75 119 q-45 -68 -99 -160q-2 -12 -41 -12q-29 0 -90 2h-92q-37 0 -37 10q-2 2 -8 19z" />
<glyph unicode="&#xfc;" horiz-adv-x="1144" d="M8 1161q0 39 17 49q20 18 260 19h172q41 0 57 -14.5t16 -57.5q0 -37 -2 -110.5t-2 -112.5t-11 -54.5t-50 -15.5q-25 0 -25 -57q0 -305 15 -371q16 -76 112 -76q70 0 92 60q14 35 15 119q0 377 2 157q0 96 -17 154q-4 12 -28.5 13t-30.5 9q-16 31 -12 273q0 35 6 51 q12 35 74 35q55 0 346 -4q33 0 47 -4q25 -8 29 -31q14 -76 14 -219q0 -88 -51 -111l-27 -4q-16 -2 -16 -12q-4 -43 -2 -115q4 -104 4 -115q0 -29 2 -81v-78q0 -150 -37 -232q-43 -98 -162 -172q-96 -59 -231 -59q-260 0 -360.5 104.5t-100.5 362.5q0 252 -19 381 q-2 16 -35.5 18t-41.5 14q-18 31 -19 287zM143 1466q0 72 52.5 122t123.5 50q82 0 132.5 -47t50.5 -129v2q0 -76 -53.5 -123t-129.5 -47q-74 0 -125 48.5t-51 123.5zM602 1466q0 74 51.5 124t122.5 50q80 0 132.5 -45t52.5 -125q0 -76 -53.5 -126t-131.5 -50 q-74 0 -124 49.5t-50 122.5z" />
<glyph unicode="&#xfd;" horiz-adv-x="1583" d="M8 -293q0 281 283 281q70 0 110 -33q14 -12 41 -56l27 -44q16 0 57 73.5t41 96.5q0 53 -139 364q-131 293 -182 375q-33 53 -88 80q-35 16 -35 76q0 199 28.5 256t122.5 57q23 0 111 -5t154 -5q20 0 61 4t64 4q88 0 112 -90q10 -41 8 -164q0 -53 -4 -72q-6 -43 -29.5 -57 t-48.5 -29q-37 -18 -36 -33q0 -27 61 -176q53 -133 78 -184q6 -16 14 -16q16 0 45 77q16 47 33 95q18 39 37 80q20 49 20 83q0 57 -51 67.5t-55 35.5q-8 41 -6 129q2 51 10 136t24.5 99.5t104.5 16.5q20 0 58 -6t59 -6q49 0 143 6t139 6q98 0 123 -33q19 -25 19 -127 q0 -23 -7.5 -64.5t-7.5 -64.5q0 -18 3 -53t3 -49q0 -59 -57 -80q-66 -23 -70 -33q-115 -254 -264 -545q-197 -385 -282 -506q-219 -303 -455 -303q-145 0 -258 94q-119 98 -119 242zM686 1327q0 20 47 137q55 131 58.5 143.5t21.5 12.5h123q92 -2 121 -2q16 0 18 -7.5 t6 -23.5v2q0 -37 -71 -147q-88 -133 -94.5 -146.5t-127.5 -13.5q-57 0 -65 2q-37 8 -37 43z" />
<glyph unicode="&#xff;" horiz-adv-x="1585" d="M6 -293q0 281 283 281q70 0 110 -33q14 -12 41 -56l27 -44q16 0 57 73.5t41 96.5q0 53 -139 364q-131 293 -182 375q-33 53 -88 80q-35 16 -35 76q0 199 28.5 256t122.5 57q23 0 111 -5t154 -5q20 0 61 4t64 4q88 0 112 -90q10 -41 8 -164q0 -53 -4 -72q-6 -43 -29.5 -57 t-48.5 -29q-37 -18 -36 -33q0 -27 61 -176q53 -133 78 -184q6 -16 14 -16q16 0 45 77q16 47 33 95q18 39 37 80q20 49 20 83q0 57 -51 67.5t-55 35.5q-8 41 -6 129q2 51 10 136t24.5 99.5t104.5 16.5q20 0 58 -6t59 -6q49 0 143 6t139 6q98 0 123 -33q19 -25 19 -127 q0 -23 -7.5 -64.5t-7.5 -64.5q0 -18 3 -53t3 -49q0 -59 -57 -80q-66 -23 -70 -33q-115 -254 -264 -545q-197 -385 -282 -506q-219 -303 -455 -303q-145 0 -258 94q-119 98 -119 242zM389 1466q0 72 52.5 122t123.5 50q82 0 132.5 -47t50.5 -129v2q0 -76 -53.5 -123 t-129.5 -47q-74 0 -125 48.5t-51 123.5zM848 1466q0 74 51 124t125 50q80 0 132 -45t52 -125h-2q0 -74 -53 -125t-129 -51q-74 0 -125 49.5t-51 122.5z" />
<glyph unicode="&#x152;" horiz-adv-x="2004" d="M2 821q0 309 219 561q119 137 245 193.5t308 58.5q104 2 187 0q29 0 88 -6t92 -6q98 0 292.5 5t290.5 5q104 0 125 -12q33 -20 33 -117q0 -43 2 -172q2 -109 2 -174q0 -61 -24 -76q-14 -10 -80 -10q-25 0 -75 -8t-77 -8q-84 0 -100 30q-6 12 -8 113q-29 4 -88 8 q-37 2 -37 -53l-2 -174q0 -27 53 -27q14 0 42 4.5t42 4.5q41 0 53 -12.5t12 -53.5q0 -31 -3 -95.5t-3 -97.5q0 -57 -26 -67q-10 -4 -78 -4q-57 0 -57 -27l-5 -188q0 -27 48 -27q68 0 77 17q4 6 4 83q0 72 54 72h118q78 -2 117 -2q61 0 72.5 -14t11.5 -80v2q0 -33 -4 -94 q-6 -68 -6 -97q0 -27 4 -74.5t4 -70.5q0 -86 -28.5 -109.5t-112.5 -23.5q-25 0 -71 5t-68 5q-27 0 -83.5 -5t-84.5 -5q-92 0 -252 4q-180 6 -252 6q10 0 -74 -8q-106 -10 -123 -10q-338 0 -559 250q-215 240 -215 581zM453 791q0 -127 84 -232q88 -113 215 -113 q150 0 190 121q21 64 21 275h-2q0 258 -89 301q-16 10 -30.5 18t-44.5 8q-160 0 -252 -107.5t-92 -270.5z" />
<glyph unicode="&#x153;" horiz-adv-x="2009" d="M2 621q0 260 156 434q164 182 420 182q240 0 405 -170q158 172 389 172q250 0 408 -184q149 -174 149 -428v2q0 -47 -8 -70q-10 -41 -129 -41q-27 0 -69 2t-50 2h-461q-16 0 -16 -20q0 -74 51 -126t125 -52q66 0 125 61t111 61l241 3q23 0 32 -9.5t9 -29.5 q-2 -74 -69 -191q-76 -131 -172.5 -185t-249.5 -54q-238 -2 -404 163q-166 -158 -411 -157q-260 0 -424 190q-158 182 -158 445zM338 592q0 -94 64.5 -172t158.5 -78q123 0 189 78q63 72 61 194q0 3 2 11v2q0 84 -66.5 162.5t-150.5 78.5q-119 0 -188.5 -78.5t-69.5 -197.5z M1208 770q0 -20 131 -20h107q106 -1 106 28h-2q0 55 -65 82q-49 23 -109 21q-55 0 -106 -29q-61 -33 -62 -82z" />
<glyph unicode="&#x178;" horiz-adv-x="1306" d="M6 1360q0 61 19.5 87t83.5 26q49 0 148 -4.5t149 -4.5q23 0 66.5 5.5t66.5 5.5q49 0 61 -66q2 -14 2 -102q0 -29 -6 -83.5t-6 -78.5q0 -49 -40 -60.5t-40 -31.5q0 -16 51 -93t64 -75q12 0 37 45q16 27 30 55q16 18 32.5 40t16.5 40q0 12 -38.5 15t-38.5 40q0 29 9 82 t9 76q2 25 -2 65q-4 49 -4 66q0 63 94 64q18 0 52 -2.5t48 -2.5q43 0 146 5q94 4 145 4q56 -1 56 -95l2 -108q2 -80 0 -129q-4 -70 -13.5 -95.5t-87.5 -27.5q-31 0 -47 -10q-31 -18 -151.5 -182t-133.5 -203q-18 -53 -18 -162q0 -49 33 -54t63 -10q33 -12 33 -79 q0 -82 -2 -164q-6 -127 -42 -141.5t-491 -14.5q-96 0 -118 37q-14 23 -17 121q-2 88 11 194q2 27 47 35q63 10 64 12t1 74q0 31 4 89.5t4 86.5q0 41 -92 193q-88 143 -131 182q-4 4 -53 4t-62 76q-4 25 -4 104q0 25 -5 74t-5 76zM229 1669q0 72 52.5 122t124.5 50 q82 0 132 -47t50 -129v2q0 -76 -53.5 -123t-128.5 -47q-74 0 -125.5 48t-51.5 124zM688 1669q0 74 51.5 124t124.5 50q80 0 132.5 -45t52.5 -125h-2q0 -74 -53.5 -125t-129.5 -51q-74 0 -125 49t-51 123z" />
<glyph unicode="&#x2c6;" horiz-adv-x="694" d="M41 1286q0 37 82 158q98 141 106 160q4 10 127 10h60h20q14 -2 21 -2q123 0 127 -10q10 -20 106 -148q82 -110 82 -147h2q-6 -39 -8 -41q-2 -8 -16 -9q-131 -4 -228 -4q-6 0 -21.5 22.5t-17.5 33.5q-23 31 -75 118q-45 -68 -99 -159q-2 -12 -41 -13q-29 0 -90 2h-92 q-37 0 -37 11q-2 2 -8 18z" />
<glyph unicode="&#x2dc;" horiz-adv-x="974" d="M55 1452q-2 76 111 137q96 51 182 51q63 0 149.5 -39.5t112.5 -39.5q43 0 81 32.5t57 32.5q20 0 75.5 -82.5t55.5 -105.5q0 -37 -98.5 -100.5t-141.5 -63.5q-59 0 -143 47t-115 47q-49 0 -102.5 -52t-69.5 -52q-20 0 -87 83t-67 105z" />
<glyph unicode="&#x2000;" horiz-adv-x="1079" />
<glyph unicode="&#x2001;" horiz-adv-x="2159" />
<glyph unicode="&#x2002;" horiz-adv-x="1079" />
<glyph unicode="&#x2003;" horiz-adv-x="2159" />
<glyph unicode="&#x2004;" horiz-adv-x="719" />
<glyph unicode="&#x2005;" horiz-adv-x="539" />
<glyph unicode="&#x2006;" horiz-adv-x="359" />
<glyph unicode="&#x2007;" horiz-adv-x="359" />
<glyph unicode="&#x2008;" horiz-adv-x="269" />
<glyph unicode="&#x2009;" horiz-adv-x="431" />
<glyph unicode="&#x200a;" horiz-adv-x="119" />
<glyph unicode="&#x2010;" horiz-adv-x="1019" d="M51 795q0 111 144 110q29 0 81 -4t72 -4q33 0 139.5 4t139.5 4q23 0 67.5 -4t67.5 -4q10 0 30.5 4t30.5 4q64 1 64 -114q0 -12 -3 -39t-3 -41q0 -8 3 -30t3 -32q0 -43 -38 -80t-75 -37l-643 -2q-57 0 -70 64q-4 18 -4 108q0 16 -3 47t-3 46z" />
<glyph unicode="&#x2011;" horiz-adv-x="1019" d="M51 795q0 111 144 110q29 0 81 -4t72 -4q33 0 139.5 4t139.5 4q23 0 67.5 -4t67.5 -4q10 0 30.5 4t30.5 4q64 1 64 -114q0 -12 -3 -39t-3 -41q0 -8 3 -30t3 -32q0 -43 -38 -80t-75 -37l-643 -2q-57 0 -70 64q-4 18 -4 108q0 16 -3 47t-3 46z" />
<glyph unicode="&#x2012;" horiz-adv-x="1019" d="M51 795q0 111 144 110q29 0 81 -4t72 -4q33 0 139.5 4t139.5 4q23 0 67.5 -4t67.5 -4q10 0 30.5 4t30.5 4q64 1 64 -114q0 -12 -3 -39t-3 -41q0 -8 3 -30t3 -32q0 -43 -38 -80t-75 -37l-643 -2q-57 0 -70 64q-4 18 -4 108q0 16 -3 47t-3 46z" />
<glyph unicode="&#x2013;" horiz-adv-x="1560" d="M35 803q0 111 237 110q45 0 132.5 -4t119.5 -4q55 0 231.5 4t229.5 4q37 0 133 -4t135 -4q18 0 52 4t51 4q104 1 104 -114q0 -14 -7 -41t-7 -39q0 -10 6 -30.5t6 -31.5q0 -43 -62.5 -79.5t-123.5 -36.5l-1102 -2q-94 0 -117 63q-4 14 -6 109q0 14 -6 44.5t-6 47.5z" />
<glyph unicode="&#x2014;" horiz-adv-x="1871" d="M45 803q0 111 309 110q59 0 172 -4t156 -4q70 0 299 4t301 4q47 0 173 -4t175 -4q23 0 67 4t64 4q78 0 103 -20q12 -14 14 -53q4 -135 4 -121q0 -10 -3 -71.5t-3 -72.5q0 -39 -84 -38q-20 0 -66.5 2t-70.5 2l-1436 -2q-123 0 -149 63q-6 12 -11 109q0 14 -7 44.5t-7 47.5 z" />
<glyph unicode="&#x2018;" horiz-adv-x="489" d="M10 1245q0 119 80 258q90 156 201 158q78 0 78 -53q0 -14 -27 -31q-37 -23 -51 -41q-27 -35 -27 -96q0 -27 25 -27q90 0 146.5 -60.5t56.5 -150.5q0 -96 -72 -161.5t-168 -65.5q-113 0 -177.5 77.5t-64.5 192.5z" />
<glyph unicode="&#x2019;" horiz-adv-x="585" d="M10 1434q0 96 72 160.5t170 64.5q113 0 178 -82q62 -73 62 -188q0 -119 -80 -259q-90 -156 -201 -155q-78 0 -78 51q0 14 27 31q37 23 51 41q27 35 27 96q0 27 -27 27q-88 0 -144.5 61t-56.5 152z" />
<glyph unicode="&#x201a;" horiz-adv-x="704" d="M72 510q0 106 80.5 179t187.5 73q127 0 196.5 -88t69.5 -217q0 -131 -90 -285q-100 -172 -221 -172q-86 0 -86 49q0 23 31 43q43 27 55 43q31 37 31 105q0 33 -35 32q-96 0 -157.5 71t-61.5 167z" />
<glyph unicode="&#x201c;" horiz-adv-x="1032" d="M12 1247q0 119 80 258q90 156 201 156q76 0 78 -53q0 -14 -27 -31q-35 -20 -51 -39q-27 -37 -27 -96q0 -27 27 -27q88 0 144.5 -61.5t56.5 -151.5q0 -94 -73 -159.5t-169 -65.5q-113 0 -176.5 78t-63.5 192zM553 1245q0 119 80 258q90 156 201 156q78 0 77 -53 q0 -14 -26 -31q-37 -23 -51 -41q-27 -33 -27 -92q0 -29 24 -29q88 0 145.5 -61.5t57.5 -151.5l2 2q0 -94 -72.5 -161.5t-168.5 -67.5q-113 0 -181 82q-61 76 -61 190z" />
<glyph unicode="&#x201d;" horiz-adv-x="1124" d="M10 1432q0 96 72 160.5t170 64.5q113 0 178 -82q62 -74 62 -189q0 -119 -80 -258q-90 -156 -201 -155q-76 0 -78 53q0 14 27 31q37 23 51 41q27 35 27 94q0 27 -25 27q-88 0 -145.5 61t-57.5 152zM549 1434q0 94 72.5 159.5t169.5 65.5q113 0 178 -82q61 -73 61 -188v-3 q0 -117 -80 -256q-90 -156 -198 -155q-78 0 -80 53q0 16 26 31q37 23 52 41q27 33 26 92q0 29 -24 29q-88 0 -145.5 61t-57.5 152z" />
<glyph unicode="&#x201e;" horiz-adv-x="1134" d="M10 459q0 96 72 161.5t170 65.5q113 0 176.5 -77.5t63.5 -194.5v2q0 -119 -80 -258q-90 -156 -201 -158q-76 0 -78 53q0 14 27 31q37 23 51 41q27 35 27 94q0 27 -25 29q-88 0 -145.5 61.5t-57.5 149.5zM549 461q0 94 72.5 160.5t169.5 66.5q113 0 176 -77.5t63 -194.5 v-2q0 -117 -80 -256q-90 -156 -198 -154q-78 0 -80 51q0 16 26 31q37 23 52 41q27 33 26 92q0 29 -24 31q-88 0 -145.5 61.5t-57.5 149.5z" />
<glyph unicode="&#x2022;" horiz-adv-x="774" d="M31 840q0 141 98 247.5t238 106.5q92 0 192 -58.5t137 -140.5q23 -51 27 -151h-2q0 -166 -92 -268.5t-254 -102.5q-145 0 -244.5 108.5t-99.5 258.5z" />
<glyph unicode="&#x2026;" horiz-adv-x="1910" d="M74 244q0 94 65.5 164.5t159.5 70.5q100 0 168 -67.5t68 -165.5q0 -111 -62.5 -178.5t-171.5 -67.5q-96 0 -161.5 72.5t-65.5 171.5zM709 244q0 94 65.5 164.5t159.5 70.5q100 0 167.5 -67.5t67.5 -165.5q0 -111 -62.5 -178.5t-170.5 -67.5q-96 0 -161.5 72.5 t-65.5 171.5zM1343 244q0 94 66 164.5t160 70.5q100 0 167.5 -67.5t67.5 -165.5q0 -111 -62.5 -178.5t-170.5 -67.5q-96 0 -162 72.5t-66 171.5z" />
<glyph unicode="&#x202f;" horiz-adv-x="431" />
<glyph unicode="&#x2039;" horiz-adv-x="565" d="M41 803q0 18 80 188q78 162 102 201q20 33 86 37q-12 0 105 0q147 0 147 -39q0 -25 -74.5 -184.5t-74.5 -192.5t78.5 -191.5t78.5 -195.5q0 -35 -125 -39q-168 -6 -195.5 11.5t-117.5 194.5t-90 210z" />
<glyph unicode="&#x203a;" horiz-adv-x="663" d="M51 426q0 35 78 193.5t78 193.5q0 33 -75 191.5t-75 185.5q0 39 150 39q109 0 102 0q66 -4 87.5 -40t99.5 -198q82 -170 82 -186q0 -33 -90.5 -211t-118.5 -195q-10 -6 -195 -12q-41 -2 -72 4q-51 8 -51 35z" />
<glyph unicode="&#x205f;" horiz-adv-x="539" />
<glyph unicode="&#x2122;" horiz-adv-x="1097" d="M41 403q0 80 8 105q16 16 60 16q344 0 350 -6q14 -10 14 -96q0 -37 -9 -42t-46 -5q-25 0 -82 -4q-8 -6 0 -52q0 -289 -10 -315q-8 -4 -27 -4h-92q-18 0 -25.5 4t-7.5 49q0 39 3 115t3 113q0 76 -7 85t-79 11q-53 0 -53 26zM528 35q0 426 17 473q4 14 30 14h115 q8 0 45 -71q23 -43 45 -89l2 -2q-2 0 31 76q10 31 23 64q12 23 53 22q113 0 125 -16.5t12 -149.5q0 -55 5 -165.5t5 -165.5q0 -14 -10 -21l-61 -6q-59 0 -62 2q-8 6 -8 59q0 45 -6 138q-4 61 -8 61t-47 -82t-62 -82q-12 0 -52 81t-50 81q-2 0 -4 -59v-56q2 -41 2 -53 q0 -27 -4 -80q-4 -10 -23 -10h-84q-29 0 -29 37z" />
<glyph unicode="&#xe000;" horiz-adv-x="1228" d="M0 0v1229h1229v-1229h-1229z" />
</font>
</defs>
</svg>
